%TF.GenerationSoftware,KiCad,Pcbnew,(6.0.1)*%
%TF.CreationDate,2022-01-25T15:54:23+01:00*%
%TF.ProjectId,v0_miniAB_batboard,76305f6d-696e-4694-9142-5f626174626f,rev?*%
%TF.SameCoordinates,Original*%
%TF.FileFunction,Soldermask,Bot*%
%TF.FilePolarity,Negative*%
%FSLAX46Y46*%
G04 Gerber Fmt 4.6, Leading zero omitted, Abs format (unit mm)*
G04 Created by KiCad (PCBNEW (6.0.1)) date 2022-01-25 15:54:23*
%MOMM*%
%LPD*%
G01*
G04 APERTURE LIST*
G04 Aperture macros list*
%AMRoundRect*
0 Rectangle with rounded corners*
0 $1 Rounding radius*
0 $2 $3 $4 $5 $6 $7 $8 $9 X,Y pos of 4 corners*
0 Add a 4 corners polygon primitive as box body*
4,1,4,$2,$3,$4,$5,$6,$7,$8,$9,$2,$3,0*
0 Add four circle primitives for the rounded corners*
1,1,$1+$1,$2,$3*
1,1,$1+$1,$4,$5*
1,1,$1+$1,$6,$7*
1,1,$1+$1,$8,$9*
0 Add four rect primitives between the rounded corners*
20,1,$1+$1,$2,$3,$4,$5,0*
20,1,$1+$1,$4,$5,$6,$7,0*
20,1,$1+$1,$6,$7,$8,$9,0*
20,1,$1+$1,$8,$9,$2,$3,0*%
%AMHorizOval*
0 Thick line with rounded ends*
0 $1 width*
0 $2 $3 position (X,Y) of the first rounded end (center of the circle)*
0 $4 $5 position (X,Y) of the second rounded end (center of the circle)*
0 Add line between two ends*
20,1,$1,$2,$3,$4,$5,0*
0 Add two circle primitives to create the rounded ends*
1,1,$1,$2,$3*
1,1,$1,$4,$5*%
G04 Aperture macros list end*
%ADD10C,3.000000*%
%ADD11RoundRect,0.250000X0.395409X-0.586218X0.586218X0.395409X-0.395409X0.586218X-0.586218X-0.395409X0*%
%ADD12C,1.500000*%
%ADD13RoundRect,0.250000X0.625000X-0.350000X0.625000X0.350000X-0.625000X0.350000X-0.625000X-0.350000X0*%
%ADD14O,1.750000X1.200000*%
%ADD15RoundRect,0.249999X0.350001X0.625001X-0.350001X0.625001X-0.350001X-0.625001X0.350001X-0.625001X0*%
%ADD16O,1.200000X1.750000*%
%ADD17RoundRect,0.249999X-0.625001X0.350001X-0.625001X-0.350001X0.625001X-0.350001X0.625001X0.350001X0*%
%ADD18RoundRect,0.249999X0.625001X-0.350001X0.625001X0.350001X-0.625001X0.350001X-0.625001X-0.350001X0*%
%ADD19RoundRect,0.250001X-0.499999X-0.499999X0.499999X-0.499999X0.499999X0.499999X-0.499999X0.499999X0*%
%ADD20RoundRect,0.249999X-0.194454X0.689431X-0.689431X0.194454X0.194454X-0.689431X0.689431X-0.194454X0*%
%ADD21HorizOval,1.200000X-0.194454X0.194454X0.194454X-0.194454X0*%
%ADD22RoundRect,0.249999X-0.676283X0.236153X-0.554729X-0.453214X0.676283X-0.236153X0.554729X0.453214X0*%
%ADD23HorizOval,1.200000X-0.270822X-0.047753X0.270822X0.047753X0*%
%ADD24RoundRect,0.249999X0.554729X-0.453214X0.676283X0.236153X-0.554729X0.453214X-0.676283X-0.236153X0*%
%ADD25HorizOval,1.200000X-0.270822X0.047753X0.270822X-0.047753X0*%
%ADD26C,1.400000*%
%ADD27HorizOval,1.400000X0.000000X0.000000X0.000000X0.000000X0*%
G04 APERTURE END LIST*
D10*
%TO.C,J2*%
X92019371Y-109905705D03*
D11*
X96260000Y-110730000D03*
D12*
X99204882Y-111302427D03*
%TD*%
D13*
%TO.C,J3*%
X103370000Y-113630000D03*
D14*
X103370000Y-111630000D03*
X103370000Y-109630000D03*
X103370000Y-107630000D03*
%TD*%
D15*
%TO.C,J6*%
X111710000Y-108680000D03*
D16*
X109710000Y-108680000D03*
%TD*%
D17*
%TO.C,J7*%
X118500000Y-90925000D03*
D14*
X118500000Y-92925000D03*
X118500000Y-94925000D03*
%TD*%
D18*
%TO.C,J8*%
X81200000Y-94925000D03*
D14*
X81200000Y-92925000D03*
X81200000Y-90925000D03*
%TD*%
D10*
%TO.C,J9*%
X109710000Y-96640000D03*
X90010000Y-96640000D03*
D19*
X87850000Y-100960000D03*
D12*
X90850000Y-100960000D03*
X93850000Y-100960000D03*
X96850000Y-100960000D03*
X99850000Y-100960000D03*
X102850000Y-100960000D03*
X105850000Y-100960000D03*
X108850000Y-100960000D03*
X111850000Y-100960000D03*
X87850000Y-103960000D03*
X90850000Y-103960000D03*
X93850000Y-103960000D03*
X96850000Y-103960000D03*
X99850000Y-103960000D03*
X102850000Y-103960000D03*
X105850000Y-103960000D03*
X108850000Y-103960000D03*
X111850000Y-103960000D03*
%TD*%
D10*
%TO.C,REF\u002A\u002A*%
X122030000Y-99990000D03*
%TD*%
%TO.C,REF\u002A\u002A*%
X78190000Y-100000000D03*
%TD*%
D20*
%TO.C,J1*%
X87130000Y-82930000D03*
D21*
X85715786Y-84344214D03*
X84301573Y-85758427D03*
X82887359Y-87172641D03*
%TD*%
D22*
%TO.C,J4*%
X77190000Y-106030000D03*
D23*
X77537296Y-107999616D03*
%TD*%
D24*
%TO.C,J5*%
X122450000Y-108000000D03*
D25*
X122797296Y-106030384D03*
%TD*%
D26*
%TO.C,TH1*%
X112655924Y-82530924D03*
D27*
X118044078Y-87919078D03*
%TD*%
M02*
