%FSLAX45Y45*%
G04 Gerber Fmt 4.5, Leading zero omitted, Abs format (unit mm)*
G04 Created by KiCad (PCBNEW (6.0.1)) date 2022-01-25 15:54:27*
%MOMM*%
%LPD*%
G01*
G04 APERTURE LIST*
%TA.AperFunction,Profile*%
%ADD10C,0.200000*%
%TD*%
%ADD11C,0.200000*%
%ADD12C,0.300000*%
G04 APERTURE END LIST*
D10*
X10391183Y-8240162D02*
X10296903Y-8222418D01*
X7638747Y-11077176D02*
X7643880Y-11080807D01*
X9425869Y-11701792D02*
X9519904Y-11731279D01*
X8771462Y-8066735D02*
X8766852Y-8065248D01*
X8793404Y-8077603D02*
X8789193Y-8074972D01*
X9519904Y-11731279D02*
X9615616Y-11755621D01*
X10846792Y-8379784D02*
X10831788Y-8379662D01*
X12367243Y-11094750D02*
X12371529Y-11092989D01*
X12431170Y-11019607D02*
X12531170Y-10399605D01*
X7612592Y-9238739D02*
X7573534Y-9317920D01*
X7633828Y-11073305D02*
X7638747Y-11077176D01*
X8688710Y-11220713D02*
X8758468Y-11292186D01*
X11480857Y-11070506D02*
X11463149Y-11083471D01*
X9725438Y-8222418D02*
X9631157Y-8240162D01*
X9712803Y-11774720D02*
X9811261Y-11788482D01*
X11333630Y-11220713D02*
X11399670Y-11145056D01*
X7671719Y-11094709D02*
X7677611Y-11096603D01*
X12145330Y-8881067D02*
X12145330Y-8881067D01*
X7441990Y-9827816D02*
X7451317Y-9739803D01*
X8523131Y-11058557D02*
X8541484Y-11070506D01*
X8667671Y-8090416D02*
X7877010Y-8881067D01*
X8805360Y-8086870D02*
X8801496Y-8083552D01*
X12320620Y-11101137D02*
X12325502Y-11101482D01*
X7689625Y-11099487D02*
X7695724Y-11100472D01*
X12145330Y-8881067D02*
X11354670Y-8090416D01*
X8622670Y-11145056D02*
X8607994Y-11128244D01*
X9207000Y-8378408D02*
X9160614Y-8378784D01*
X9631157Y-8240162D02*
X9537703Y-8262976D01*
X12419174Y-11050724D02*
X12421459Y-11046621D01*
X12416715Y-11054701D02*
X12419174Y-11050724D01*
X12264636Y-9015598D02*
X12207192Y-8946761D01*
X10919480Y-8363814D02*
X10905468Y-8369180D01*
X9243649Y-11627765D02*
X9333716Y-11667255D01*
X7592398Y-11005774D02*
X7593932Y-11011843D01*
X8719281Y-8062960D02*
X8714572Y-8063989D01*
X11228937Y-8077603D02*
X11233147Y-8074972D01*
X12297197Y-11100910D02*
X12292543Y-11100329D01*
X7624662Y-11064886D02*
X7629131Y-11069205D01*
X11220844Y-8083552D02*
X11216981Y-8086870D01*
X8733583Y-8061244D02*
X8728795Y-8061587D01*
X8752736Y-8062159D02*
X8747966Y-8061587D01*
X8679253Y-8080463D02*
X8675265Y-8083552D01*
X11537667Y-11037790D02*
X11518161Y-11047645D01*
X12408347Y-11065835D02*
X12411295Y-11062261D01*
X12576808Y-10095116D02*
X12583315Y-10005695D01*
X11216981Y-8086870D02*
X11213250Y-8090416D01*
X12315933Y-11101449D02*
X12320620Y-11101137D01*
X7732859Y-11099850D02*
X7739030Y-11098637D01*
X12306551Y-11101536D02*
X12301868Y-11101312D01*
X12283311Y-11098637D02*
X11708231Y-10999606D01*
X7457461Y-10184561D02*
X7457461Y-10184561D01*
X10011170Y-8199604D02*
X9915651Y-8202139D01*
X7726664Y-11100742D02*
X7732859Y-11099850D01*
X7714246Y-11101574D02*
X7720456Y-11101316D01*
X10211080Y-11788482D02*
X10309537Y-11774720D01*
X8523131Y-11058557D02*
X8504179Y-11047645D01*
X12335161Y-11101485D02*
X12339926Y-11101152D01*
X7656355Y-9161810D02*
X7704749Y-9087355D01*
X8541484Y-11070506D02*
X8559191Y-11083471D01*
X10502437Y-11731279D02*
X10596472Y-11701792D01*
X10309537Y-11774720D02*
X10406724Y-11755621D01*
X10011170Y-11799606D02*
X10011170Y-11799606D01*
X8709909Y-8065248D02*
X8705298Y-8066735D01*
X12353893Y-11098869D02*
X12358419Y-11097694D01*
X8776011Y-8068451D02*
X8771462Y-8066735D01*
X11293546Y-8061587D02*
X11298316Y-8062159D01*
X12402003Y-11072550D02*
X12405248Y-11069266D01*
X8504179Y-11047645D02*
X8484673Y-11037790D01*
X8747966Y-8061587D02*
X8743177Y-8061244D01*
X7677611Y-11096603D02*
X7683584Y-11098196D01*
X12431170Y-11019607D02*
X12431170Y-11019607D01*
X10801830Y-8376010D02*
X10787004Y-8372457D01*
X10202003Y-8209743D02*
X10106690Y-8202139D01*
X10933101Y-8357387D02*
X10919480Y-8363814D01*
X12391458Y-11081473D02*
X12395102Y-11078658D01*
X11708231Y-10999606D02*
X11708231Y-10999606D01*
X7593932Y-11011843D02*
X7595765Y-11017803D01*
X12358419Y-11097694D02*
X12362871Y-11096320D01*
X12325502Y-11101482D02*
X12330351Y-11101596D01*
X11224833Y-8080463D02*
X11220844Y-8083552D01*
X7649193Y-11084171D02*
X7654645Y-11087245D01*
X12536895Y-10361712D02*
X12539543Y-10342735D01*
X7600303Y-11029356D02*
X7602995Y-11034929D01*
X12580351Y-9827816D02*
X12571024Y-9739803D01*
X11708231Y-10999606D02*
X11708231Y-10999606D01*
X7683584Y-11098196D02*
X7689625Y-11099487D01*
X7439026Y-10005695D02*
X7437869Y-9916521D01*
X8683357Y-8077603D02*
X8679253Y-8080463D01*
X10688625Y-11667255D02*
X10778691Y-11627765D01*
X12423563Y-11042396D02*
X12425481Y-11038055D01*
X8687567Y-8074972D02*
X8683357Y-8077603D01*
X8380415Y-11005136D02*
X8358535Y-11002078D01*
X7595765Y-11017803D02*
X7597891Y-11023644D01*
X12428734Y-11029039D02*
X12430057Y-11024373D01*
X8667671Y-8090416D02*
X8667671Y-8090416D01*
X8988002Y-11480535D02*
X9070588Y-11534309D01*
X12409748Y-9238739D02*
X12365986Y-9161810D01*
X11463149Y-11083471D02*
X11446131Y-11097430D01*
X10772367Y-8367736D02*
X10765138Y-8364934D01*
X9333716Y-11667255D02*
X9425869Y-11701792D01*
X11708231Y-10999606D02*
X11708231Y-10999606D01*
X9445281Y-8290860D02*
X9354098Y-8323813D01*
X8801496Y-8083552D02*
X8797508Y-8080463D01*
X8559191Y-11083471D02*
X8576209Y-11097430D01*
X8780488Y-8070396D02*
X8776011Y-8068451D01*
X8622670Y-11145056D02*
X8622670Y-11145056D01*
X7457461Y-10184561D02*
X7591171Y-10999606D01*
X11283960Y-8061129D02*
X11288757Y-8061244D01*
X10976761Y-8326693D02*
X10970971Y-8331847D01*
X8700750Y-8068451D02*
X8696273Y-8070396D01*
X8671401Y-8086870D02*
X8667671Y-8090416D01*
X7591171Y-10999606D02*
X7592398Y-11005774D01*
X12512523Y-9482145D02*
X12483088Y-9399129D01*
X8714572Y-8063989D02*
X8709909Y-8065248D01*
X7616433Y-11055630D02*
X7620427Y-11060358D01*
X11663805Y-11002078D02*
X11685922Y-11000228D01*
X11663804Y-11002078D02*
X11641925Y-11005136D01*
X11578161Y-11021341D02*
X11557682Y-11029015D01*
X7620427Y-11060358D02*
X7624662Y-11064886D01*
X12339926Y-11101152D02*
X12344640Y-11100603D01*
X10577060Y-8290860D02*
X10484638Y-8262976D01*
X11255489Y-8065248D02*
X11260152Y-8063989D01*
X11250878Y-8066735D02*
X11246330Y-8068451D01*
X12542050Y-10323738D02*
X12542050Y-10323738D01*
X9820338Y-8209743D02*
X9725438Y-8222418D01*
X7815149Y-8946761D02*
X7877010Y-8881067D01*
X12531170Y-10399605D02*
X12534105Y-10380669D01*
X7629131Y-11069205D02*
X7633828Y-11073305D01*
X8789193Y-8074972D02*
X8784885Y-8072570D01*
X11347076Y-8083552D02*
X11350939Y-8086870D01*
X8402012Y-11009380D02*
X8423282Y-11014789D01*
X9537703Y-8262976D02*
X9445281Y-8290860D01*
X11317042Y-8066735D02*
X11321591Y-8068451D01*
X12287913Y-11099572D02*
X12283311Y-11098637D01*
X12395102Y-11078658D02*
X12398619Y-11075682D01*
X7660224Y-11090028D02*
X7665920Y-11092517D01*
X11264861Y-8062960D02*
X11269604Y-8062159D01*
X8705298Y-8066735D02*
X8700750Y-8068451D01*
X12387692Y-11084123D02*
X12391458Y-11081473D01*
X12344640Y-11100603D02*
X12349298Y-11099840D01*
X10861726Y-8378784D02*
X10846792Y-8379784D01*
X11250878Y-8066735D02*
X11255489Y-8065248D01*
X11446131Y-11097430D02*
X11429848Y-11112361D01*
X11228937Y-8077603D02*
X11224833Y-8080463D01*
X8784885Y-8072570D02*
X8780488Y-8070396D01*
X8738380Y-8061129D02*
X8733583Y-8061244D01*
X7597891Y-11023644D02*
X7600303Y-11029356D01*
X7643880Y-11080807D02*
X7649193Y-11084171D01*
X12405248Y-11069266D02*
X12408347Y-11065835D01*
X10946266Y-8349909D02*
X10933101Y-8357387D01*
X12542050Y-10323738D02*
X12564880Y-10184561D01*
X10484638Y-8262976D02*
X10391183Y-8240162D01*
X8402012Y-11009380D02*
X8380415Y-11005136D01*
X8728795Y-8061587D02*
X8724024Y-8062159D01*
X9354098Y-8323813D02*
X9264360Y-8361836D01*
X10296903Y-8222418D02*
X10202003Y-8209743D01*
X8757480Y-8062960D02*
X8752736Y-8062159D01*
X10111556Y-11796809D02*
X10211080Y-11788482D01*
X7539252Y-9399129D02*
X7509818Y-9482145D01*
X7612686Y-11050714D02*
X7616433Y-11055630D01*
X7573534Y-9317920D02*
X7539252Y-9399129D01*
X12427207Y-11033601D02*
X12428734Y-11029039D01*
X11330465Y-8072570D02*
X11334773Y-8074972D01*
X8358535Y-11002078D02*
X8336418Y-11000228D01*
X12583315Y-10005695D02*
X12584472Y-9916521D01*
X9615616Y-11755621D02*
X9712803Y-11774720D01*
X12531170Y-10399605D02*
X12531170Y-10399605D01*
X11190603Y-11359378D02*
X11263873Y-11292186D01*
X7457461Y-10184561D02*
X7445533Y-10095116D01*
X11599058Y-11014789D02*
X11578161Y-11021341D01*
X11326068Y-8070396D02*
X11330465Y-8072570D01*
X8809091Y-8090416D02*
X8805360Y-8086870D01*
X7704749Y-9087355D02*
X7757704Y-9015598D01*
X11269604Y-8062159D02*
X11274375Y-8061587D01*
X9915651Y-8202139D02*
X9820338Y-8209743D01*
X11114023Y-11422193D02*
X11190603Y-11359378D01*
X10106690Y-8202139D02*
X10011170Y-8199604D01*
X10891129Y-8373471D02*
X10876527Y-8376676D01*
X11499209Y-11058557D02*
X11480857Y-11070506D01*
X8762188Y-8063989D02*
X8757480Y-8062960D01*
X8797508Y-8080463D02*
X8793404Y-8077603D01*
X11260152Y-8063989D02*
X11264861Y-8062960D01*
X7602995Y-11034929D02*
X7605961Y-11040353D01*
X11518161Y-11047645D02*
X11499209Y-11058557D01*
X11343087Y-8080463D02*
X11347076Y-8083552D01*
X11274375Y-8061587D02*
X11279163Y-8061244D01*
X10958911Y-8341391D02*
X10946266Y-8349909D01*
X8675265Y-8083552D02*
X8671401Y-8086870D01*
X8691876Y-8072570D02*
X8687567Y-8074972D01*
X8622670Y-11145056D02*
X8688710Y-11220713D01*
X11279163Y-8061244D02*
X11283960Y-8061129D01*
X10011170Y-11799606D02*
X10111556Y-11796809D01*
X12537038Y-9566745D02*
X12512523Y-9482145D01*
X12398619Y-11075682D02*
X12402003Y-11072550D01*
X12365986Y-9161810D02*
X12317591Y-9087355D01*
X9910784Y-11796809D02*
X10011170Y-11799606D01*
X8576209Y-11097430D02*
X8592492Y-11112361D01*
X7720456Y-11101316D02*
X7726664Y-11100742D01*
X12564880Y-10184561D02*
X12576808Y-10095116D01*
X11241853Y-8070396D02*
X11246330Y-8068451D01*
X11334773Y-8074972D02*
X11338984Y-8077603D01*
X10982382Y-8321286D02*
X10976761Y-8326693D01*
X10905468Y-8369180D02*
X10891129Y-8373471D01*
X10668243Y-8323813D02*
X10577060Y-8290860D01*
X10011170Y-11799606D02*
X10011170Y-11799606D01*
X12375722Y-11091042D02*
X12379818Y-11088912D01*
X12207192Y-8946761D02*
X12145330Y-8881067D01*
X11312432Y-8065248D02*
X11317042Y-8066735D01*
X12315933Y-11101449D02*
X12311241Y-11101581D01*
X10831788Y-8379662D02*
X10816780Y-8378408D01*
X7695724Y-11100472D02*
X7701868Y-11101149D01*
X8592492Y-11112361D02*
X8607994Y-11128244D01*
X11350939Y-8086870D02*
X11354670Y-8090416D01*
X8336418Y-11000228D02*
X8314110Y-10999606D01*
X7451317Y-9739803D02*
X7465778Y-9652705D01*
X11263873Y-11292186D02*
X11333630Y-11220713D01*
X8831738Y-11359378D02*
X8908317Y-11422193D01*
X12584472Y-9916521D02*
X12580351Y-9827816D01*
X8464658Y-11029015D02*
X8484673Y-11037790D01*
X11034339Y-11480535D02*
X11114023Y-11422193D01*
X11233147Y-8074972D02*
X11237456Y-8072570D01*
X11307768Y-8063989D02*
X11312432Y-8065248D01*
X12448806Y-9317920D02*
X12409748Y-9238739D01*
X7815149Y-8946761D02*
X7757704Y-9015598D01*
X12483088Y-9399129D02*
X12448806Y-9317920D01*
X8758468Y-11292186D02*
X8831738Y-11359378D01*
X7609193Y-11045618D02*
X7612686Y-11050714D01*
X8444179Y-11021341D02*
X8464658Y-11029015D01*
X12571024Y-9739803D02*
X12556562Y-9652705D01*
X11288757Y-8061244D02*
X11293546Y-8061587D01*
X12539543Y-10342735D02*
X12542050Y-10323738D01*
X12411295Y-11062261D02*
X12414086Y-11058548D01*
X11399670Y-11145056D02*
X11399670Y-11145056D01*
X9160614Y-8378784D02*
X9145814Y-8376676D01*
X12292543Y-11100329D02*
X12287913Y-11099572D01*
X12330351Y-11101596D02*
X12335161Y-11101485D01*
X11213250Y-8090416D02*
X10982382Y-8321286D01*
X11414346Y-11128244D02*
X11399670Y-11145056D01*
X11303060Y-8062960D02*
X11307768Y-8063989D01*
X9102860Y-8363814D02*
X9145814Y-8376676D01*
X12421459Y-11046621D02*
X12423563Y-11042396D01*
X8743177Y-8061244D02*
X8738380Y-8061129D01*
X8423282Y-11014789D02*
X8444179Y-11021341D01*
X11399670Y-11145056D02*
X11399670Y-11145056D01*
X12349298Y-11099840D02*
X12353893Y-11098869D01*
X12425481Y-11038055D02*
X12427207Y-11033601D01*
X12534105Y-10380669D02*
X12536895Y-10361712D01*
X10876527Y-8376676D02*
X10861726Y-8378784D01*
X7877010Y-8881067D02*
X7877010Y-8881067D01*
X12362871Y-11096320D02*
X12367243Y-11094750D01*
X9089240Y-8357387D02*
X9063430Y-8341391D01*
X7612592Y-9238739D02*
X7656355Y-9161810D01*
X11429848Y-11112361D02*
X11414346Y-11128244D01*
X7739030Y-11098637D02*
X8314110Y-10999606D01*
X7708046Y-11101518D02*
X7714246Y-11101574D01*
X7437869Y-9916521D02*
X7441990Y-9827816D01*
X10816780Y-8378408D02*
X10801830Y-8376010D01*
X11298316Y-8062159D02*
X11303060Y-8062960D01*
X10787004Y-8372457D02*
X10772367Y-8367736D01*
X9063430Y-8341391D02*
X9051370Y-8331847D01*
X9045579Y-8326693D02*
X8809091Y-8090416D01*
X10765138Y-8364934D02*
X10757981Y-8361836D01*
X10951752Y-11534309D02*
X11034339Y-11480535D01*
X9102860Y-8363814D02*
X9089240Y-8357387D01*
X11641925Y-11005136D02*
X11620327Y-11009380D01*
X11620327Y-11009380D02*
X11599058Y-11014789D01*
X11557682Y-11029015D02*
X11537667Y-11037790D01*
X10982382Y-8321286D02*
X10982382Y-8321286D01*
X7465778Y-9652705D02*
X7485302Y-9566745D01*
X9070588Y-11534309D02*
X9155872Y-11583418D01*
X11708230Y-10999606D02*
X11685921Y-11000228D01*
X7665920Y-11092517D02*
X7671719Y-11094709D01*
X10406724Y-11755621D02*
X10502437Y-11731279D01*
X12371529Y-11092989D02*
X12375722Y-11091042D01*
X10970971Y-8331847D02*
X10958911Y-8341391D01*
X11241853Y-8070396D02*
X11237456Y-8072570D01*
X12556562Y-9652705D02*
X12537038Y-9566745D01*
X9264360Y-8361836D02*
X9207000Y-8378408D01*
X11321591Y-8068451D02*
X11326068Y-8070396D01*
X12414086Y-11058548D02*
X12416715Y-11054701D01*
X12297197Y-11100910D02*
X12301868Y-11101312D01*
X12379818Y-11088912D02*
X12383810Y-11086604D01*
X9155872Y-11583418D02*
X9243649Y-11627765D01*
X9811261Y-11788482D02*
X9910784Y-11796809D01*
X7445533Y-10095116D02*
X7439026Y-10005695D01*
X12311241Y-11101581D02*
X12306551Y-11101536D01*
X10757980Y-8361836D02*
X10668243Y-8323813D01*
X10866469Y-11583418D02*
X10951752Y-11534309D01*
X11399670Y-11145056D02*
X11399670Y-11145056D01*
X10778691Y-11627765D02*
X10866469Y-11583418D01*
X10596472Y-11701792D02*
X10688625Y-11667255D01*
X9045579Y-8326693D02*
X9051370Y-8331847D01*
X7654645Y-11087245D02*
X7660224Y-11090028D01*
X7509818Y-9482145D02*
X7485302Y-9566745D01*
X12317591Y-9087355D02*
X12264636Y-9015598D01*
X7605961Y-11040353D02*
X7609193Y-11045618D01*
X11338984Y-8077603D02*
X11343087Y-8080463D01*
X12430057Y-11024373D02*
X12431170Y-11019607D01*
X8908317Y-11422193D02*
X8988002Y-11480535D01*
X8766852Y-8065248D02*
X8762188Y-8063989D01*
X8724024Y-8062159D02*
X8719281Y-8062960D01*
X12383810Y-11086604D02*
X12387692Y-11084123D01*
X7701868Y-11101149D02*
X7708046Y-11101518D01*
X8696273Y-8070396D02*
X8691876Y-8072570D01*
D11*
D12*
X7669000Y-9850000D02*
X7969000Y-10150000D01*
X7969000Y-9850000D02*
X7669000Y-10150000D01*
X8851000Y-9514000D02*
X9151000Y-9814000D01*
X9151000Y-9514000D02*
X8851000Y-9814000D01*
X9051937Y-10840571D02*
X9351937Y-11140571D01*
X9351937Y-10840571D02*
X9051937Y-11140571D01*
X10821000Y-9514000D02*
X11121000Y-9814000D01*
X11121000Y-9514000D02*
X10821000Y-9814000D01*
X12053000Y-9849000D02*
X12353000Y-10149000D01*
X12353000Y-9849000D02*
X12053000Y-10149000D01*
D11*
X7685488Y-12120082D02*
X7685488Y-11920082D01*
X7733107Y-11920082D01*
X7761678Y-11929606D01*
X7780726Y-11948654D01*
X7790250Y-11967702D01*
X7799773Y-12005797D01*
X7799773Y-12034368D01*
X7790250Y-12072463D01*
X7780726Y-12091511D01*
X7761678Y-12110559D01*
X7733107Y-12120082D01*
X7685488Y-12120082D01*
X7885488Y-12120082D02*
X7885488Y-11986749D01*
X7885488Y-12024844D02*
X7895012Y-12005797D01*
X7904535Y-11996273D01*
X7923583Y-11986749D01*
X7942631Y-11986749D01*
X8009297Y-12120082D02*
X8009297Y-11986749D01*
X8009297Y-11920082D02*
X7999773Y-11929606D01*
X8009297Y-11939130D01*
X8018821Y-11929606D01*
X8009297Y-11920082D01*
X8009297Y-11939130D01*
X8133107Y-12120082D02*
X8114059Y-12110559D01*
X8104535Y-12091511D01*
X8104535Y-11920082D01*
X8237869Y-12120082D02*
X8218821Y-12110559D01*
X8209297Y-12091511D01*
X8209297Y-11920082D01*
X8466440Y-12120082D02*
X8466440Y-11920082D01*
X8533107Y-12062940D01*
X8599774Y-11920082D01*
X8599774Y-12120082D01*
X8780726Y-12120082D02*
X8780726Y-12015321D01*
X8771202Y-11996273D01*
X8752155Y-11986749D01*
X8714059Y-11986749D01*
X8695012Y-11996273D01*
X8780726Y-12110559D02*
X8761678Y-12120082D01*
X8714059Y-12120082D01*
X8695012Y-12110559D01*
X8685488Y-12091511D01*
X8685488Y-12072463D01*
X8695012Y-12053416D01*
X8714059Y-12043892D01*
X8761678Y-12043892D01*
X8780726Y-12034368D01*
X8875964Y-11986749D02*
X8875964Y-12186749D01*
X8875964Y-11996273D02*
X8895012Y-11986749D01*
X8933107Y-11986749D01*
X8952155Y-11996273D01*
X8961678Y-12005797D01*
X8971202Y-12024844D01*
X8971202Y-12081987D01*
X8961678Y-12101035D01*
X8952155Y-12110559D01*
X8933107Y-12120082D01*
X8895012Y-12120082D01*
X8875964Y-12110559D01*
X9056916Y-12101035D02*
X9066440Y-12110559D01*
X9056916Y-12120082D01*
X9047393Y-12110559D01*
X9056916Y-12101035D01*
X9056916Y-12120082D01*
X9056916Y-11996273D02*
X9066440Y-12005797D01*
X9056916Y-12015321D01*
X9047393Y-12005797D01*
X9056916Y-11996273D01*
X9056916Y-12015321D01*
X7227869Y-12349606D02*
X7427869Y-12549606D01*
X7427869Y-12349606D02*
X7227869Y-12549606D01*
X7666440Y-12340082D02*
X7790250Y-12340082D01*
X7723583Y-12416273D01*
X7752154Y-12416273D01*
X7771202Y-12425797D01*
X7780726Y-12435321D01*
X7790250Y-12454368D01*
X7790250Y-12501987D01*
X7780726Y-12521035D01*
X7771202Y-12530559D01*
X7752154Y-12540082D01*
X7695012Y-12540082D01*
X7675964Y-12530559D01*
X7666440Y-12521035D01*
X7875964Y-12521035D02*
X7885488Y-12530559D01*
X7875964Y-12540082D01*
X7866440Y-12530559D01*
X7875964Y-12521035D01*
X7875964Y-12540082D01*
X8009297Y-12340082D02*
X8028345Y-12340082D01*
X8047393Y-12349606D01*
X8056916Y-12359130D01*
X8066440Y-12378178D01*
X8075964Y-12416273D01*
X8075964Y-12463892D01*
X8066440Y-12501987D01*
X8056916Y-12521035D01*
X8047393Y-12530559D01*
X8028345Y-12540082D01*
X8009297Y-12540082D01*
X7990250Y-12530559D01*
X7980726Y-12521035D01*
X7971202Y-12501987D01*
X7961678Y-12463892D01*
X7961678Y-12416273D01*
X7971202Y-12378178D01*
X7980726Y-12359130D01*
X7990250Y-12349606D01*
X8009297Y-12340082D01*
X8199773Y-12340082D02*
X8218821Y-12340082D01*
X8237869Y-12349606D01*
X8247393Y-12359130D01*
X8256916Y-12378178D01*
X8266440Y-12416273D01*
X8266440Y-12463892D01*
X8256916Y-12501987D01*
X8247393Y-12521035D01*
X8237869Y-12530559D01*
X8218821Y-12540082D01*
X8199773Y-12540082D01*
X8180726Y-12530559D01*
X8171202Y-12521035D01*
X8161678Y-12501987D01*
X8152154Y-12463892D01*
X8152154Y-12416273D01*
X8161678Y-12378178D01*
X8171202Y-12359130D01*
X8180726Y-12349606D01*
X8199773Y-12340082D01*
X8390250Y-12340082D02*
X8409297Y-12340082D01*
X8428345Y-12349606D01*
X8437869Y-12359130D01*
X8447393Y-12378178D01*
X8456916Y-12416273D01*
X8456916Y-12463892D01*
X8447393Y-12501987D01*
X8437869Y-12521035D01*
X8428345Y-12530559D01*
X8409297Y-12540082D01*
X8390250Y-12540082D01*
X8371202Y-12530559D01*
X8361678Y-12521035D01*
X8352154Y-12501987D01*
X8342631Y-12463892D01*
X8342631Y-12416273D01*
X8352154Y-12378178D01*
X8361678Y-12359130D01*
X8371202Y-12349606D01*
X8390250Y-12340082D01*
X8542631Y-12540082D02*
X8542631Y-12406749D01*
X8542631Y-12425797D02*
X8552155Y-12416273D01*
X8571202Y-12406749D01*
X8599774Y-12406749D01*
X8618821Y-12416273D01*
X8628345Y-12435321D01*
X8628345Y-12540082D01*
X8628345Y-12435321D02*
X8637869Y-12416273D01*
X8656916Y-12406749D01*
X8685488Y-12406749D01*
X8704535Y-12416273D01*
X8714059Y-12435321D01*
X8714059Y-12540082D01*
X8809297Y-12540082D02*
X8809297Y-12406749D01*
X8809297Y-12425797D02*
X8818821Y-12416273D01*
X8837869Y-12406749D01*
X8866440Y-12406749D01*
X8885488Y-12416273D01*
X8895012Y-12435321D01*
X8895012Y-12540082D01*
X8895012Y-12435321D02*
X8904535Y-12416273D01*
X8923583Y-12406749D01*
X8952155Y-12406749D01*
X8971202Y-12416273D01*
X8980726Y-12435321D01*
X8980726Y-12540082D01*
X9371202Y-12330559D02*
X9199774Y-12587702D01*
X9628345Y-12340082D02*
X9647393Y-12340082D01*
X9666440Y-12349606D01*
X9675964Y-12359130D01*
X9685488Y-12378178D01*
X9695012Y-12416273D01*
X9695012Y-12463892D01*
X9685488Y-12501987D01*
X9675964Y-12521035D01*
X9666440Y-12530559D01*
X9647393Y-12540082D01*
X9628345Y-12540082D01*
X9609297Y-12530559D01*
X9599774Y-12521035D01*
X9590250Y-12501987D01*
X9580726Y-12463892D01*
X9580726Y-12416273D01*
X9590250Y-12378178D01*
X9599774Y-12359130D01*
X9609297Y-12349606D01*
X9628345Y-12340082D01*
X9780726Y-12521035D02*
X9790250Y-12530559D01*
X9780726Y-12540082D01*
X9771202Y-12530559D01*
X9780726Y-12521035D01*
X9780726Y-12540082D01*
X9980726Y-12540082D02*
X9866440Y-12540082D01*
X9923583Y-12540082D02*
X9923583Y-12340082D01*
X9904535Y-12368654D01*
X9885488Y-12387702D01*
X9866440Y-12397225D01*
X10171202Y-12540082D02*
X10056916Y-12540082D01*
X10114059Y-12540082D02*
X10114059Y-12340082D01*
X10095012Y-12368654D01*
X10075964Y-12387702D01*
X10056916Y-12397225D01*
X10285488Y-12425797D02*
X10266440Y-12416273D01*
X10256916Y-12406749D01*
X10247393Y-12387702D01*
X10247393Y-12378178D01*
X10256916Y-12359130D01*
X10266440Y-12349606D01*
X10285488Y-12340082D01*
X10323583Y-12340082D01*
X10342631Y-12349606D01*
X10352155Y-12359130D01*
X10361678Y-12378178D01*
X10361678Y-12387702D01*
X10352155Y-12406749D01*
X10342631Y-12416273D01*
X10323583Y-12425797D01*
X10285488Y-12425797D01*
X10266440Y-12435321D01*
X10256916Y-12444844D01*
X10247393Y-12463892D01*
X10247393Y-12501987D01*
X10256916Y-12521035D01*
X10266440Y-12530559D01*
X10285488Y-12540082D01*
X10323583Y-12540082D01*
X10342631Y-12530559D01*
X10352155Y-12521035D01*
X10361678Y-12501987D01*
X10361678Y-12463892D01*
X10352155Y-12444844D01*
X10342631Y-12435321D01*
X10323583Y-12425797D01*
X10552155Y-12540082D02*
X10437869Y-12540082D01*
X10495012Y-12540082D02*
X10495012Y-12340082D01*
X10475964Y-12368654D01*
X10456916Y-12387702D01*
X10437869Y-12397225D01*
X10628345Y-12340082D02*
X10628345Y-12378178D01*
X10704535Y-12340082D02*
X10704535Y-12378178D01*
X10999774Y-12616273D02*
X10990250Y-12606749D01*
X10971202Y-12578178D01*
X10961678Y-12559130D01*
X10952155Y-12530559D01*
X10942631Y-12482940D01*
X10942631Y-12444844D01*
X10952155Y-12397225D01*
X10961678Y-12368654D01*
X10971202Y-12349606D01*
X10990250Y-12321035D01*
X10999774Y-12311511D01*
X11171202Y-12340082D02*
X11075964Y-12340082D01*
X11066440Y-12435321D01*
X11075964Y-12425797D01*
X11095012Y-12416273D01*
X11142631Y-12416273D01*
X11161678Y-12425797D01*
X11171202Y-12435321D01*
X11180726Y-12454368D01*
X11180726Y-12501987D01*
X11171202Y-12521035D01*
X11161678Y-12530559D01*
X11142631Y-12540082D01*
X11095012Y-12540082D01*
X11075964Y-12530559D01*
X11066440Y-12521035D01*
X11418821Y-12540082D02*
X11418821Y-12340082D01*
X11504535Y-12540082D02*
X11504535Y-12435321D01*
X11495012Y-12416273D01*
X11475964Y-12406749D01*
X11447393Y-12406749D01*
X11428345Y-12416273D01*
X11418821Y-12425797D01*
X11628345Y-12540082D02*
X11609297Y-12530559D01*
X11599773Y-12521035D01*
X11590250Y-12501987D01*
X11590250Y-12444844D01*
X11599773Y-12425797D01*
X11609297Y-12416273D01*
X11628345Y-12406749D01*
X11656916Y-12406749D01*
X11675964Y-12416273D01*
X11685488Y-12425797D01*
X11695012Y-12444844D01*
X11695012Y-12501987D01*
X11685488Y-12521035D01*
X11675964Y-12530559D01*
X11656916Y-12540082D01*
X11628345Y-12540082D01*
X11809297Y-12540082D02*
X11790250Y-12530559D01*
X11780726Y-12511511D01*
X11780726Y-12340082D01*
X11961678Y-12530559D02*
X11942631Y-12540082D01*
X11904535Y-12540082D01*
X11885488Y-12530559D01*
X11875964Y-12511511D01*
X11875964Y-12435321D01*
X11885488Y-12416273D01*
X11904535Y-12406749D01*
X11942631Y-12406749D01*
X11961678Y-12416273D01*
X11971202Y-12435321D01*
X11971202Y-12454368D01*
X11875964Y-12473416D01*
X12047393Y-12530559D02*
X12066440Y-12540082D01*
X12104535Y-12540082D01*
X12123583Y-12530559D01*
X12133107Y-12511511D01*
X12133107Y-12501987D01*
X12123583Y-12482940D01*
X12104535Y-12473416D01*
X12075964Y-12473416D01*
X12056916Y-12463892D01*
X12047393Y-12444844D01*
X12047393Y-12435321D01*
X12056916Y-12416273D01*
X12075964Y-12406749D01*
X12104535Y-12406749D01*
X12123583Y-12416273D01*
X12199773Y-12616273D02*
X12209297Y-12606749D01*
X12228345Y-12578178D01*
X12237869Y-12559130D01*
X12247393Y-12530559D01*
X12256916Y-12482940D01*
X12256916Y-12444844D01*
X12247393Y-12397225D01*
X12237869Y-12368654D01*
X12228345Y-12349606D01*
X12209297Y-12321035D01*
X12199773Y-12311511D01*
X12561678Y-12616273D02*
X12552154Y-12606749D01*
X12533107Y-12578178D01*
X12523583Y-12559130D01*
X12514059Y-12530559D01*
X12504535Y-12482940D01*
X12504535Y-12444844D01*
X12514059Y-12397225D01*
X12523583Y-12368654D01*
X12533107Y-12349606D01*
X12552154Y-12321035D01*
X12561678Y-12311511D01*
X12637869Y-12406749D02*
X12637869Y-12540082D01*
X12637869Y-12425797D02*
X12647393Y-12416273D01*
X12666440Y-12406749D01*
X12695012Y-12406749D01*
X12714059Y-12416273D01*
X12723583Y-12435321D01*
X12723583Y-12540082D01*
X12847393Y-12540082D02*
X12828345Y-12530559D01*
X12818821Y-12521035D01*
X12809297Y-12501987D01*
X12809297Y-12444844D01*
X12818821Y-12425797D01*
X12828345Y-12416273D01*
X12847393Y-12406749D01*
X12875964Y-12406749D01*
X12895012Y-12416273D01*
X12904535Y-12425797D01*
X12914059Y-12444844D01*
X12914059Y-12501987D01*
X12904535Y-12521035D01*
X12895012Y-12530559D01*
X12875964Y-12540082D01*
X12847393Y-12540082D01*
X12971202Y-12406749D02*
X13047393Y-12406749D01*
X12999773Y-12340082D02*
X12999773Y-12511511D01*
X13009297Y-12530559D01*
X13028345Y-12540082D01*
X13047393Y-12540082D01*
X13266440Y-12406749D02*
X13266440Y-12606749D01*
X13266440Y-12416273D02*
X13285488Y-12406749D01*
X13323583Y-12406749D01*
X13342631Y-12416273D01*
X13352154Y-12425797D01*
X13361678Y-12444844D01*
X13361678Y-12501987D01*
X13352154Y-12521035D01*
X13342631Y-12530559D01*
X13323583Y-12540082D01*
X13285488Y-12540082D01*
X13266440Y-12530559D01*
X13475964Y-12540082D02*
X13456916Y-12530559D01*
X13447393Y-12511511D01*
X13447393Y-12340082D01*
X13637869Y-12540082D02*
X13637869Y-12435321D01*
X13628345Y-12416273D01*
X13609297Y-12406749D01*
X13571202Y-12406749D01*
X13552154Y-12416273D01*
X13637869Y-12530559D02*
X13618821Y-12540082D01*
X13571202Y-12540082D01*
X13552154Y-12530559D01*
X13542631Y-12511511D01*
X13542631Y-12492463D01*
X13552154Y-12473416D01*
X13571202Y-12463892D01*
X13618821Y-12463892D01*
X13637869Y-12454368D01*
X13704535Y-12406749D02*
X13780726Y-12406749D01*
X13733107Y-12340082D02*
X13733107Y-12511511D01*
X13742631Y-12530559D01*
X13761678Y-12540082D01*
X13780726Y-12540082D01*
X13923583Y-12530559D02*
X13904535Y-12540082D01*
X13866440Y-12540082D01*
X13847393Y-12530559D01*
X13837869Y-12511511D01*
X13837869Y-12435321D01*
X13847393Y-12416273D01*
X13866440Y-12406749D01*
X13904535Y-12406749D01*
X13923583Y-12416273D01*
X13933107Y-12435321D01*
X13933107Y-12454368D01*
X13837869Y-12473416D01*
X14104535Y-12540082D02*
X14104535Y-12340082D01*
X14104535Y-12530559D02*
X14085488Y-12540082D01*
X14047393Y-12540082D01*
X14028345Y-12530559D01*
X14018821Y-12521035D01*
X14009297Y-12501987D01*
X14009297Y-12444844D01*
X14018821Y-12425797D01*
X14028345Y-12416273D01*
X14047393Y-12406749D01*
X14085488Y-12406749D01*
X14104535Y-12416273D01*
X14180726Y-12616273D02*
X14190250Y-12606749D01*
X14209297Y-12578178D01*
X14218821Y-12559130D01*
X14228345Y-12530559D01*
X14237869Y-12482940D01*
X14237869Y-12444844D01*
X14228345Y-12397225D01*
X14218821Y-12368654D01*
X14209297Y-12349606D01*
X14190250Y-12321035D01*
X14180726Y-12311511D01*
M02*
