%TF.GenerationSoftware,KiCad,Pcbnew,(6.0.1)*%
%TF.CreationDate,2022-01-25T15:54:23+01:00*%
%TF.ProjectId,v0_miniAB_batboard,76305f6d-696e-4694-9142-5f626174626f,rev?*%
%TF.SameCoordinates,Original*%
%TF.FileFunction,Copper,L1,Top*%
%TF.FilePolarity,Positive*%
%FSLAX46Y46*%
G04 Gerber Fmt 4.6, Leading zero omitted, Abs format (unit mm)*
G04 Created by KiCad (PCBNEW (6.0.1)) date 2022-01-25 15:54:23*
%MOMM*%
%LPD*%
G01*
G04 APERTURE LIST*
G04 Aperture macros list*
%AMRoundRect*
0 Rectangle with rounded corners*
0 $1 Rounding radius*
0 $2 $3 $4 $5 $6 $7 $8 $9 X,Y pos of 4 corners*
0 Add a 4 corners polygon primitive as box body*
4,1,4,$2,$3,$4,$5,$6,$7,$8,$9,$2,$3,0*
0 Add four circle primitives for the rounded corners*
1,1,$1+$1,$2,$3*
1,1,$1+$1,$4,$5*
1,1,$1+$1,$6,$7*
1,1,$1+$1,$8,$9*
0 Add four rect primitives between the rounded corners*
20,1,$1+$1,$2,$3,$4,$5,0*
20,1,$1+$1,$4,$5,$6,$7,0*
20,1,$1+$1,$6,$7,$8,$9,0*
20,1,$1+$1,$8,$9,$2,$3,0*%
%AMHorizOval*
0 Thick line with rounded ends*
0 $1 width*
0 $2 $3 position (X,Y) of the first rounded end (center of the circle)*
0 $4 $5 position (X,Y) of the second rounded end (center of the circle)*
0 Add line between two ends*
20,1,$1,$2,$3,$4,$5,0*
0 Add two circle primitives to create the rounded ends*
1,1,$1,$2,$3*
1,1,$1,$4,$5*%
%AMFreePoly0*
4,1,22,0.550000,-0.750000,0.000000,-0.750000,0.000000,-0.745033,-0.079941,-0.743568,-0.215256,-0.701293,-0.333266,-0.622738,-0.424486,-0.514219,-0.481581,-0.384460,-0.499164,-0.250000,-0.500000,-0.250000,-0.500000,0.250000,-0.499164,0.250000,-0.499963,0.256109,-0.478152,0.396186,-0.417904,0.524511,-0.324060,0.630769,-0.204165,0.706417,-0.067858,0.745374,0.000000,0.744959,0.000000,0.750000,
0.550000,0.750000,0.550000,-0.750000,0.550000,-0.750000,$1*%
%AMFreePoly1*
4,1,20,0.000000,0.744959,0.073905,0.744508,0.209726,0.703889,0.328688,0.626782,0.421226,0.519385,0.479903,0.390333,0.500000,0.250000,0.500000,-0.250000,0.499851,-0.262216,0.476331,-0.402017,0.414519,-0.529596,0.319384,-0.634700,0.198574,-0.708877,0.061801,-0.746166,0.000000,-0.745033,0.000000,-0.750000,-0.550000,-0.750000,-0.550000,0.750000,0.000000,0.750000,0.000000,0.744959,
0.000000,0.744959,$1*%
G04 Aperture macros list end*
%TA.AperFunction,ComponentPad*%
%ADD10RoundRect,0.250000X0.395409X-0.586218X0.586218X0.395409X-0.395409X0.586218X-0.586218X-0.395409X0*%
%TD*%
%TA.AperFunction,ComponentPad*%
%ADD11C,1.500000*%
%TD*%
%TA.AperFunction,ComponentPad*%
%ADD12RoundRect,0.250000X0.625000X-0.350000X0.625000X0.350000X-0.625000X0.350000X-0.625000X-0.350000X0*%
%TD*%
%TA.AperFunction,ComponentPad*%
%ADD13O,1.750000X1.200000*%
%TD*%
%TA.AperFunction,ComponentPad*%
%ADD14RoundRect,0.249999X0.350001X0.625001X-0.350001X0.625001X-0.350001X-0.625001X0.350001X-0.625001X0*%
%TD*%
%TA.AperFunction,ComponentPad*%
%ADD15O,1.200000X1.750000*%
%TD*%
%TA.AperFunction,ComponentPad*%
%ADD16RoundRect,0.249999X-0.625001X0.350001X-0.625001X-0.350001X0.625001X-0.350001X0.625001X0.350001X0*%
%TD*%
%TA.AperFunction,ComponentPad*%
%ADD17RoundRect,0.249999X0.625001X-0.350001X0.625001X0.350001X-0.625001X0.350001X-0.625001X-0.350001X0*%
%TD*%
%TA.AperFunction,ComponentPad*%
%ADD18RoundRect,0.250001X-0.499999X-0.499999X0.499999X-0.499999X0.499999X0.499999X-0.499999X0.499999X0*%
%TD*%
%TA.AperFunction,SMDPad,CuDef*%
%ADD19FreePoly0,0.000000*%
%TD*%
%TA.AperFunction,SMDPad,CuDef*%
%ADD20R,1.000000X1.500000*%
%TD*%
%TA.AperFunction,SMDPad,CuDef*%
%ADD21FreePoly1,0.000000*%
%TD*%
%TA.AperFunction,ComponentPad*%
%ADD22RoundRect,0.249999X-0.194454X0.689431X-0.689431X0.194454X0.194454X-0.689431X0.689431X-0.194454X0*%
%TD*%
%TA.AperFunction,ComponentPad*%
%ADD23HorizOval,1.200000X-0.194454X0.194454X0.194454X-0.194454X0*%
%TD*%
%TA.AperFunction,ComponentPad*%
%ADD24RoundRect,0.249999X-0.676283X0.236153X-0.554729X-0.453214X0.676283X-0.236153X0.554729X0.453214X0*%
%TD*%
%TA.AperFunction,ComponentPad*%
%ADD25HorizOval,1.200000X-0.270822X-0.047753X0.270822X0.047753X0*%
%TD*%
%TA.AperFunction,ComponentPad*%
%ADD26RoundRect,0.249999X0.554729X-0.453214X0.676283X0.236153X-0.554729X0.453214X-0.676283X-0.236153X0*%
%TD*%
%TA.AperFunction,ComponentPad*%
%ADD27HorizOval,1.200000X-0.270822X0.047753X0.270822X-0.047753X0*%
%TD*%
%TA.AperFunction,ComponentPad*%
%ADD28C,1.400000*%
%TD*%
%TA.AperFunction,ComponentPad*%
%ADD29HorizOval,1.400000X0.000000X0.000000X0.000000X0.000000X0*%
%TD*%
%TA.AperFunction,ViaPad*%
%ADD30C,0.800000*%
%TD*%
%TA.AperFunction,Conductor*%
%ADD31C,1.000000*%
%TD*%
%TA.AperFunction,Conductor*%
%ADD32C,0.750000*%
%TD*%
%TA.AperFunction,Conductor*%
%ADD33C,2.000000*%
%TD*%
G04 APERTURE END LIST*
%TO.C,J10*%
G36*
X96100000Y-86300000D02*
G01*
X95600000Y-86300000D01*
X95600000Y-85700000D01*
X96100000Y-85700000D01*
X96100000Y-86300000D01*
G37*
%TO.C,J11*%
G36*
X103050000Y-86300000D02*
G01*
X102550000Y-86300000D01*
X102550000Y-85700000D01*
X103050000Y-85700000D01*
X103050000Y-86300000D01*
G37*
%TD*%
D10*
%TO.P,J2,1,Pin_1*%
%TO.N,+24V*%
X96260000Y-110730000D03*
D11*
%TO.P,J2,2,Pin_2*%
%TO.N,/heat_gnd*%
X99204882Y-111302427D03*
%TD*%
D12*
%TO.P,J3,1,Pin_1*%
%TO.N,/therm0*%
X103370000Y-113630000D03*
D13*
%TO.P,J3,2,Pin_2*%
%TO.N,/therm1*%
X103370000Y-111630000D03*
%TO.P,J3,3,Pin_3*%
%TO.N,/therm2*%
X103370000Y-109630000D03*
%TO.P,J3,4,Pin_4*%
%TO.N,/therm3*%
X103370000Y-107630000D03*
%TD*%
D14*
%TO.P,J6,1,Pin_1*%
%TO.N,/VFAN1*%
X111710000Y-108680000D03*
D15*
%TO.P,J6,2,Pin_2*%
%TO.N,/fan1*%
X109710000Y-108680000D03*
%TD*%
D16*
%TO.P,J7,1,Pin_1*%
%TO.N,+5V*%
X118500000Y-90925000D03*
D13*
%TO.P,J7,2,Pin_2*%
%TO.N,/sw0*%
X118500000Y-92925000D03*
%TO.P,J7,3,Pin_3*%
%TO.N,GND*%
X118500000Y-94925000D03*
%TD*%
D17*
%TO.P,J8,1,Pin_1*%
%TO.N,+5V*%
X81200000Y-94925000D03*
D13*
%TO.P,J8,2,Pin_2*%
%TO.N,/sw1*%
X81200000Y-92925000D03*
%TO.P,J8,3,Pin_3*%
%TO.N,GND*%
X81200000Y-90925000D03*
%TD*%
D18*
%TO.P,J9,1,Pin_1*%
%TO.N,/ctherm0*%
X87850000Y-100960000D03*
D11*
%TO.P,J9,2,Pin_2*%
%TO.N,/A+*%
X90850000Y-100960000D03*
%TO.P,J9,3,Pin_3*%
%TO.N,/A-*%
X93850000Y-100960000D03*
%TO.P,J9,4,Pin_4*%
%TO.N,/B+*%
X96850000Y-100960000D03*
%TO.P,J9,5,Pin_5*%
%TO.N,/B-*%
X99850000Y-100960000D03*
%TO.P,J9,6,Pin_6*%
%TO.N,/sw1*%
X102850000Y-100960000D03*
%TO.P,J9,7,Pin_7*%
%TO.N,/fan0*%
X105850000Y-100960000D03*
%TO.P,J9,8,Pin_8*%
%TO.N,GND*%
X108850000Y-100960000D03*
%TO.P,J9,9,Pin_9*%
%TO.N,/sw0*%
X111850000Y-100960000D03*
%TO.P,J9,10,Pin_10*%
%TO.N,/ctherm1*%
X87850000Y-103960000D03*
%TO.P,J9,11,Pin_11*%
%TO.N,+24V*%
X90850000Y-103960000D03*
%TO.P,J9,12,Pin_12*%
%TO.N,/heat_gnd*%
X93850000Y-103960000D03*
%TO.P,J9,13,Pin_13*%
%TO.N,/therm0*%
X96850000Y-103960000D03*
%TO.P,J9,14,Pin_14*%
%TO.N,/therm1*%
X99850000Y-103960000D03*
%TO.P,J9,15,Pin_15*%
%TO.N,/therm3*%
X102850000Y-103960000D03*
%TO.P,J9,16,Pin_16*%
%TO.N,/therm2*%
X105850000Y-103960000D03*
%TO.P,J9,17,Pin_17*%
%TO.N,+5V*%
X108850000Y-103960000D03*
%TO.P,J9,18,Pin_18*%
%TO.N,/fan1*%
X111850000Y-103960000D03*
%TD*%
D19*
%TO.P,J10,1,Pin_1*%
%TO.N,+5V*%
X95200000Y-86000000D03*
D20*
%TO.P,J10,2,Pin_2*%
%TO.N,/VFAN0*%
X96500000Y-86000000D03*
D21*
%TO.P,J10,3,Pin_3*%
%TO.N,+24V*%
X97800000Y-86000000D03*
%TD*%
D19*
%TO.P,J11,1,Pin_1*%
%TO.N,+5V*%
X102150000Y-86000000D03*
D20*
%TO.P,J11,2,Pin_2*%
%TO.N,/VFAN1*%
X103450000Y-86000000D03*
D21*
%TO.P,J11,3,Pin_3*%
%TO.N,+24V*%
X104750000Y-86000000D03*
%TD*%
D22*
%TO.P,J1,1,Pin_1*%
%TO.N,/B-*%
X87130000Y-82930000D03*
D23*
%TO.P,J1,2,Pin_2*%
%TO.N,/B+*%
X85715786Y-84344214D03*
%TO.P,J1,3,Pin_3*%
%TO.N,/A-*%
X84301573Y-85758427D03*
%TO.P,J1,4,Pin_4*%
%TO.N,/A+*%
X82887359Y-87172641D03*
%TD*%
D24*
%TO.P,J4,1,Pin_1*%
%TO.N,/VFAN0*%
X77190000Y-106030000D03*
D25*
%TO.P,J4,2,Pin_2*%
%TO.N,/fan0*%
X77537296Y-107999616D03*
%TD*%
D26*
%TO.P,J5,1,Pin_1*%
%TO.N,/VFAN0*%
X122450000Y-108000000D03*
D27*
%TO.P,J5,2,Pin_2*%
%TO.N,/fan0*%
X122797296Y-106030384D03*
%TD*%
D28*
%TO.P,TH1,1*%
%TO.N,/ctherm0*%
X112655924Y-82530924D03*
D29*
%TO.P,TH1,2*%
%TO.N,/ctherm1*%
X118044078Y-87919078D03*
%TD*%
D30*
%TO.N,/fan0*%
X104000000Y-106360000D03*
%TO.N,+5V*%
X102099988Y-83700000D03*
X95199994Y-83700000D03*
X85450000Y-91950000D03*
%TO.N,GND*%
X87550000Y-108700000D03*
X95900000Y-116450000D03*
X94450000Y-112900000D03*
X104400000Y-116450000D03*
X108100000Y-112500000D03*
X113900000Y-108100000D03*
X119450000Y-105800000D03*
X108550000Y-85500000D03*
X98000000Y-89200000D03*
X87700000Y-98000000D03*
X93000000Y-86400000D03*
X100200000Y-85200000D03*
X100800000Y-112800000D03*
X106300000Y-107850000D03*
X110400000Y-105400000D03*
X81800000Y-108700000D03*
X119450000Y-109200000D03*
X114475000Y-88825000D03*
X77350000Y-94450000D03*
X114475000Y-101025000D03*
X104625000Y-99225000D03*
X110675000Y-93950000D03*
X121575000Y-91175000D03*
X124200000Y-103000000D03*
X90800000Y-84600000D03*
X81925000Y-97975000D03*
X86100000Y-103950000D03*
X106675000Y-88400000D03*
X75950000Y-103325000D03*
%TO.N,+24V*%
X99500000Y-90400000D03*
X102859377Y-89638251D03*
%TO.N,/VFAN0*%
X96499993Y-88375010D03*
%TO.N,/VFAN1*%
X101750000Y-91050000D03*
%TO.N,/ctherm1*%
X105275000Y-89100000D03*
X100350000Y-94025000D03*
X109350000Y-90425000D03*
%TD*%
D31*
%TO.N,/B-*%
X99880000Y-100990000D02*
X99880000Y-95680000D01*
X99880000Y-95680000D02*
X87130000Y-82930000D01*
%TO.N,/B+*%
X96880000Y-95508428D02*
X96880000Y-100990000D01*
X85715786Y-84344214D02*
X96880000Y-95508428D01*
%TO.N,/A-*%
X90839999Y-92296853D02*
X84301573Y-85758427D01*
X90846853Y-92296853D02*
X94875000Y-96325000D01*
X94875000Y-96325000D02*
X94875000Y-99935000D01*
X94875000Y-99935000D02*
X93850000Y-100960000D01*
X90839999Y-92296853D02*
X90846853Y-92296853D01*
%TO.N,/A+*%
X92259521Y-99550479D02*
X92259521Y-95708217D01*
X90941783Y-94390479D02*
X90105197Y-94390479D01*
X90105197Y-94390479D02*
X82887359Y-87172641D01*
X92259521Y-95708217D02*
X90941783Y-94390479D01*
X90850000Y-100960000D02*
X92259521Y-99550479D01*
D32*
%TO.N,/therm1*%
X101638954Y-109898954D02*
X101638954Y-106809614D01*
X101638954Y-106809614D02*
X99880000Y-105050660D01*
X99880000Y-103990000D02*
X99880000Y-105050660D01*
X103370000Y-111630000D02*
X101638954Y-109898954D01*
%TO.N,/therm0*%
X100688943Y-110948943D02*
X103370000Y-113630000D01*
X96850000Y-103960000D02*
X100688943Y-107798943D01*
X100688943Y-107798943D02*
X100688943Y-110948943D01*
%TO.N,/fan0*%
X107554999Y-102664999D02*
X105880000Y-100990000D01*
X104249999Y-102620001D02*
X104249999Y-106100001D01*
X117600000Y-104500000D02*
X115764999Y-102664999D01*
X105880000Y-100990000D02*
X104249999Y-102620001D01*
X122766912Y-106000000D02*
X121400000Y-106000000D01*
X115764999Y-102664999D02*
X107554999Y-102664999D01*
X104000000Y-106350000D02*
X104249999Y-106100001D01*
X104000000Y-106360000D02*
X104000000Y-106350000D01*
X119900000Y-104500000D02*
X117600000Y-104500000D01*
X122797296Y-106030384D02*
X122766912Y-106000000D01*
X121400000Y-106000000D02*
X119900000Y-104500000D01*
D31*
%TO.N,+5V*%
X95200000Y-83700006D02*
X95199994Y-83700000D01*
D32*
X81200000Y-94925000D02*
X82475000Y-94925000D01*
D31*
X102150000Y-86000000D02*
X102150000Y-83750012D01*
D32*
X85450000Y-91950000D02*
X82475000Y-94925000D01*
D31*
X95200000Y-86000000D02*
X95200000Y-83700006D01*
X102150000Y-83750012D02*
X102099988Y-83700000D01*
D32*
%TO.N,/fan1*%
X109710000Y-108680000D02*
X109710000Y-107540000D01*
X111850000Y-105400000D02*
X111850000Y-103960000D01*
X109710000Y-107540000D02*
X111850000Y-105400000D01*
%TO.N,/sw0*%
X111850000Y-100960000D02*
X114650000Y-98160000D01*
X114650000Y-98160000D02*
X114650000Y-96775000D01*
X114650000Y-96775000D02*
X118500000Y-92925000D01*
D33*
%TO.N,/heat_gnd*%
X99214423Y-109324423D02*
X93880000Y-103990000D01*
X99204882Y-109333964D02*
X99214423Y-109324423D01*
X99204882Y-111302427D02*
X99204882Y-109333964D01*
D32*
%TO.N,+24V*%
X104750000Y-87747628D02*
X102859377Y-89638251D01*
D33*
X90880000Y-104858207D02*
X90880000Y-103990000D01*
X96260000Y-110730000D02*
X96260000Y-110238207D01*
D32*
X104750000Y-86000000D02*
X104750000Y-87747628D01*
X99500000Y-87700000D02*
X99500000Y-90400000D01*
X97800000Y-86000000D02*
X99500000Y-87700000D01*
D33*
X96260000Y-110238207D02*
X90880000Y-104858207D01*
D32*
%TO.N,/VFAN0*%
X77190000Y-106030000D02*
X83030000Y-106030000D01*
X91975489Y-114975489D02*
X108274511Y-114975489D01*
X96500000Y-86000000D02*
X96500000Y-88375003D01*
X83030000Y-106030000D02*
X91975489Y-114975489D01*
X108274511Y-114975489D02*
X115250000Y-108000000D01*
X115250000Y-108000000D02*
X122450000Y-108000000D01*
X96500000Y-88375003D02*
X96499993Y-88375010D01*
%TO.N,/VFAN1*%
X103450000Y-87623401D02*
X101750000Y-89323401D01*
X103450000Y-86000000D02*
X103450000Y-87623401D01*
X101750000Y-89323401D02*
X101750000Y-91050000D01*
%TO.N,/ctherm0*%
X101625489Y-100974511D02*
X101625489Y-94699511D01*
X100415489Y-102184511D02*
X101625489Y-100974511D01*
X87850000Y-100960000D02*
X89074511Y-102184511D01*
X89074511Y-102184511D02*
X100415489Y-102184511D01*
X112655924Y-83669076D02*
X112655924Y-82530924D01*
X101625489Y-94699511D02*
X112655924Y-83669076D01*
%TO.N,/ctherm1*%
X109350000Y-90425000D02*
X115538156Y-90425000D01*
X115538156Y-90425000D02*
X118044078Y-87919078D01*
X100350000Y-94025000D02*
X105275000Y-89100000D01*
X87850000Y-103960000D02*
X87850000Y-103875000D01*
%TO.N,/therm2*%
X104725489Y-106874511D02*
X105850000Y-105750000D01*
X103370000Y-109630000D02*
X104725489Y-108274511D01*
X105850000Y-105750000D02*
X105850000Y-103960000D01*
X104725489Y-108274511D02*
X104725489Y-106874511D01*
%TO.N,/therm3*%
X102850000Y-107110000D02*
X102850000Y-103960000D01*
X103370000Y-107630000D02*
X102850000Y-107110000D01*
%TD*%
%TA.AperFunction,Conductor*%
%TO.N,GND*%
G36*
X106943651Y-115878991D02*
G01*
X106990144Y-115932647D01*
X107000248Y-116002921D01*
X106970754Y-116067501D01*
X106926127Y-116100383D01*
X106698098Y-116200363D01*
X106691750Y-116202942D01*
X106434856Y-116299220D01*
X105802693Y-116536140D01*
X105796176Y-116538382D01*
X104888949Y-116822867D01*
X104882303Y-116824752D01*
X104404153Y-116946354D01*
X103958910Y-117059587D01*
X103952168Y-117061105D01*
X103014578Y-117245364D01*
X103007746Y-117246512D01*
X102057852Y-117379280D01*
X102050950Y-117380050D01*
X101090770Y-117460393D01*
X101083804Y-117460781D01*
X100454214Y-117478324D01*
X100115217Y-117487769D01*
X100108199Y-117487769D01*
X99768796Y-117478312D01*
X99139603Y-117460781D01*
X99132637Y-117460393D01*
X98172465Y-117380052D01*
X98165564Y-117379282D01*
X97215655Y-117246511D01*
X97208822Y-117245363D01*
X96271240Y-117061105D01*
X96264498Y-117059587D01*
X95819382Y-116946387D01*
X95341095Y-116824750D01*
X95334450Y-116822865D01*
X94427237Y-116538385D01*
X94420718Y-116536143D01*
X93531655Y-116202942D01*
X93525279Y-116200351D01*
X93297279Y-116100384D01*
X93242923Y-116054712D01*
X93221889Y-115986903D01*
X93240854Y-115918486D01*
X93293797Y-115871184D01*
X93347874Y-115858989D01*
X106875530Y-115858989D01*
X106943651Y-115878991D01*
G37*
%TD.AperFunction*%
%TA.AperFunction,Conductor*%
G36*
X107233526Y-103492776D02*
G01*
X107236636Y-103494361D01*
X107243007Y-103496068D01*
X107243012Y-103496070D01*
X107300812Y-103511557D01*
X107307111Y-103513423D01*
X107370297Y-103533953D01*
X107376866Y-103534643D01*
X107376873Y-103534645D01*
X107383644Y-103535357D01*
X107403073Y-103538957D01*
X107416028Y-103542428D01*
X107422624Y-103542774D01*
X107422626Y-103542774D01*
X107455428Y-103544493D01*
X107482352Y-103545904D01*
X107488914Y-103546421D01*
X107506572Y-103548276D01*
X107572230Y-103575288D01*
X107612860Y-103633509D01*
X107615110Y-103706198D01*
X107607310Y-103735308D01*
X107607309Y-103735316D01*
X107605885Y-103740629D01*
X107586693Y-103960000D01*
X107605885Y-104179371D01*
X107662880Y-104392076D01*
X107665205Y-104397061D01*
X107753618Y-104586666D01*
X107753621Y-104586671D01*
X107755944Y-104591653D01*
X107759100Y-104596160D01*
X107759101Y-104596162D01*
X107807983Y-104665972D01*
X107882251Y-104772038D01*
X108037962Y-104927749D01*
X108042471Y-104930906D01*
X108042473Y-104930908D01*
X108115229Y-104981852D01*
X108218346Y-105054056D01*
X108417924Y-105147120D01*
X108630629Y-105204115D01*
X108850000Y-105223307D01*
X109069371Y-105204115D01*
X109282076Y-105147120D01*
X109481654Y-105054056D01*
X109584771Y-104981852D01*
X109657527Y-104930908D01*
X109657529Y-104930906D01*
X109662038Y-104927749D01*
X109817749Y-104772038D01*
X109892018Y-104665972D01*
X109940899Y-104596162D01*
X109940900Y-104596160D01*
X109944056Y-104591653D01*
X109946379Y-104586671D01*
X109946382Y-104586666D01*
X110034795Y-104397061D01*
X110037120Y-104392076D01*
X110094115Y-104179371D01*
X110113307Y-103960000D01*
X110094115Y-103740629D01*
X110092693Y-103735323D01*
X110092692Y-103735316D01*
X110085134Y-103707110D01*
X110086824Y-103636133D01*
X110126618Y-103577338D01*
X110191883Y-103549390D01*
X110206841Y-103548499D01*
X110493159Y-103548499D01*
X110561280Y-103568501D01*
X110607773Y-103622157D01*
X110617877Y-103692431D01*
X110614866Y-103707110D01*
X110607308Y-103735316D01*
X110607307Y-103735323D01*
X110605885Y-103740629D01*
X110586693Y-103960000D01*
X110605885Y-104179371D01*
X110662880Y-104392076D01*
X110665205Y-104397061D01*
X110753618Y-104586666D01*
X110753621Y-104586671D01*
X110755944Y-104591653D01*
X110759100Y-104596160D01*
X110759101Y-104596162D01*
X110807983Y-104665972D01*
X110882251Y-104772038D01*
X110929595Y-104819382D01*
X110963621Y-104881694D01*
X110966500Y-104908477D01*
X110966500Y-104981852D01*
X110946498Y-105049973D01*
X110929595Y-105070947D01*
X109141454Y-106859088D01*
X109126426Y-106871925D01*
X109115566Y-106879815D01*
X109111145Y-106884725D01*
X109111144Y-106884726D01*
X109071114Y-106929184D01*
X109066573Y-106933969D01*
X109052528Y-106948014D01*
X109050444Y-106950588D01*
X109050441Y-106950591D01*
X109040031Y-106963446D01*
X109035747Y-106968462D01*
X108995717Y-107012920D01*
X108995713Y-107012925D01*
X108991296Y-107017831D01*
X108984791Y-107029097D01*
X108984589Y-107029448D01*
X108973391Y-107045741D01*
X108964953Y-107056161D01*
X108934787Y-107115363D01*
X108931654Y-107121133D01*
X108901740Y-107172945D01*
X108901738Y-107172950D01*
X108898436Y-107178669D01*
X108896395Y-107184949D01*
X108896392Y-107184957D01*
X108894292Y-107191421D01*
X108886728Y-107209683D01*
X108883637Y-107215749D01*
X108883634Y-107215758D01*
X108880638Y-107221637D01*
X108878929Y-107228015D01*
X108863444Y-107285804D01*
X108861578Y-107292106D01*
X108841046Y-107355298D01*
X108840356Y-107361866D01*
X108839645Y-107368628D01*
X108836042Y-107388071D01*
X108832570Y-107401029D01*
X108832225Y-107407619D01*
X108832224Y-107407623D01*
X108829093Y-107467367D01*
X108828577Y-107473931D01*
X108826500Y-107493694D01*
X108826500Y-107513555D01*
X108826327Y-107520150D01*
X108823602Y-107572147D01*
X108822850Y-107586493D01*
X108823882Y-107593007D01*
X108824949Y-107599744D01*
X108826500Y-107619456D01*
X108826500Y-107692603D01*
X108806351Y-107760951D01*
X108724637Y-107887503D01*
X108724635Y-107887507D01*
X108721380Y-107892548D01*
X108719137Y-107898114D01*
X108650495Y-108068438D01*
X108642314Y-108088737D01*
X108601772Y-108296337D01*
X108601500Y-108301899D01*
X108601500Y-109007846D01*
X108616548Y-109165566D01*
X108676092Y-109368534D01*
X108678836Y-109373861D01*
X108678836Y-109373862D01*
X108769899Y-109550671D01*
X108772942Y-109556580D01*
X108903604Y-109722920D01*
X108908135Y-109726852D01*
X108908138Y-109726855D01*
X109028584Y-109831372D01*
X109063363Y-109861552D01*
X109068549Y-109864552D01*
X109068553Y-109864555D01*
X109203644Y-109942707D01*
X109246454Y-109967473D01*
X109446271Y-110036861D01*
X109452206Y-110037722D01*
X109452208Y-110037722D01*
X109649664Y-110066352D01*
X109649667Y-110066352D01*
X109655604Y-110067213D01*
X109866899Y-110057433D01*
X110026841Y-110018887D01*
X110066701Y-110009281D01*
X110066703Y-110009280D01*
X110072534Y-110007875D01*
X110077992Y-110005393D01*
X110077996Y-110005392D01*
X110193041Y-109953084D01*
X110265087Y-109920326D01*
X110423767Y-109807766D01*
X110432725Y-109801412D01*
X110432726Y-109801411D01*
X110437611Y-109797946D01*
X110441753Y-109793619D01*
X110441759Y-109793614D01*
X110528805Y-109702684D01*
X110590360Y-109667307D01*
X110661269Y-109670826D01*
X110719020Y-109712122D01*
X110726967Y-109723511D01*
X110757667Y-109773122D01*
X110757670Y-109773126D01*
X110761521Y-109779349D01*
X110886697Y-109904306D01*
X111037261Y-109997115D01*
X111095588Y-110016461D01*
X111198610Y-110050632D01*
X111198612Y-110050632D01*
X111205138Y-110052797D01*
X111211974Y-110053497D01*
X111211977Y-110053498D01*
X111250385Y-110057433D01*
X111309599Y-110063500D01*
X111316165Y-110063500D01*
X111632855Y-110063499D01*
X111700973Y-110083501D01*
X111747466Y-110137156D01*
X111757571Y-110207430D01*
X111728078Y-110272011D01*
X111721948Y-110278594D01*
X107945458Y-114055084D01*
X107883146Y-114089110D01*
X107856363Y-114091989D01*
X104879500Y-114091989D01*
X104811379Y-114071987D01*
X104764886Y-114018331D01*
X104753500Y-113965989D01*
X104753500Y-113229600D01*
X104742526Y-113123834D01*
X104686550Y-112956054D01*
X104593478Y-112805652D01*
X104575389Y-112787594D01*
X104473483Y-112685866D01*
X104468303Y-112680695D01*
X104416764Y-112648925D01*
X104369271Y-112596154D01*
X104357847Y-112526082D01*
X104386121Y-112460958D01*
X104405045Y-112442582D01*
X104412920Y-112436396D01*
X104416852Y-112431865D01*
X104416855Y-112431862D01*
X104547621Y-112281167D01*
X104551552Y-112276637D01*
X104554552Y-112271451D01*
X104554555Y-112271447D01*
X104654467Y-112098742D01*
X104657473Y-112093546D01*
X104726861Y-111893729D01*
X104729472Y-111875724D01*
X104756352Y-111690336D01*
X104756352Y-111690333D01*
X104757213Y-111684396D01*
X104747433Y-111473101D01*
X104707979Y-111309390D01*
X104699281Y-111273299D01*
X104699280Y-111273297D01*
X104697875Y-111267466D01*
X104692942Y-111256615D01*
X104629886Y-111117932D01*
X104610326Y-111074913D01*
X104515480Y-110941205D01*
X104491412Y-110907275D01*
X104491411Y-110907274D01*
X104487946Y-110902389D01*
X104335150Y-110756119D01*
X104315432Y-110743387D01*
X104302837Y-110735254D01*
X104256460Y-110681499D01*
X104246507Y-110611203D01*
X104276139Y-110546686D01*
X104293353Y-110530317D01*
X104296455Y-110527881D01*
X104412920Y-110436396D01*
X104416852Y-110431865D01*
X104416855Y-110431862D01*
X104539618Y-110290390D01*
X104551552Y-110276637D01*
X104554552Y-110271451D01*
X104554555Y-110271447D01*
X104654467Y-110098742D01*
X104657473Y-110093546D01*
X104726861Y-109893729D01*
X104731091Y-109864555D01*
X104756352Y-109690336D01*
X104756352Y-109690333D01*
X104757213Y-109684396D01*
X104751285Y-109556323D01*
X104768116Y-109487351D01*
X104788055Y-109461403D01*
X105294035Y-108955423D01*
X105309063Y-108942586D01*
X105319923Y-108934696D01*
X105364375Y-108885327D01*
X105368916Y-108880542D01*
X105382961Y-108866497D01*
X105385048Y-108863920D01*
X105395458Y-108851065D01*
X105399742Y-108846049D01*
X105439772Y-108801591D01*
X105439776Y-108801586D01*
X105444193Y-108796680D01*
X105450900Y-108785063D01*
X105462098Y-108768770D01*
X105466380Y-108763482D01*
X105470536Y-108758350D01*
X105500702Y-108699148D01*
X105503835Y-108693378D01*
X105533749Y-108641566D01*
X105533751Y-108641561D01*
X105537053Y-108635842D01*
X105539094Y-108629562D01*
X105539097Y-108629554D01*
X105541197Y-108623090D01*
X105548761Y-108604828D01*
X105551852Y-108598762D01*
X105551855Y-108598753D01*
X105554851Y-108592874D01*
X105572045Y-108528707D01*
X105573911Y-108522405D01*
X105594443Y-108459213D01*
X105595844Y-108445883D01*
X105599447Y-108426440D01*
X105602919Y-108413482D01*
X105606396Y-108347139D01*
X105606913Y-108340570D01*
X105608645Y-108324088D01*
X105608989Y-108320817D01*
X105608989Y-108300956D01*
X105609162Y-108294361D01*
X105612294Y-108234609D01*
X105612294Y-108234605D01*
X105612639Y-108228018D01*
X105610540Y-108214764D01*
X105608989Y-108195055D01*
X105608989Y-107292660D01*
X105628991Y-107224539D01*
X105645893Y-107203565D01*
X106418545Y-106430912D01*
X106433581Y-106418070D01*
X106444434Y-106410185D01*
X106488895Y-106360806D01*
X106493436Y-106356021D01*
X106507472Y-106341985D01*
X106519969Y-106326553D01*
X106524253Y-106321538D01*
X106564283Y-106277080D01*
X106564287Y-106277075D01*
X106568704Y-106272169D01*
X106575412Y-106260551D01*
X106586607Y-106244263D01*
X106590890Y-106238974D01*
X106590891Y-106238973D01*
X106595048Y-106233839D01*
X106625214Y-106174634D01*
X106628337Y-106168881D01*
X106661564Y-106111331D01*
X106663606Y-106105047D01*
X106663608Y-106105042D01*
X106665708Y-106098579D01*
X106673272Y-106080317D01*
X106676363Y-106074251D01*
X106676366Y-106074242D01*
X106679362Y-106068363D01*
X106694782Y-106010816D01*
X106696556Y-106004196D01*
X106698422Y-105997894D01*
X106718954Y-105934702D01*
X106720355Y-105921372D01*
X106723958Y-105901929D01*
X106727430Y-105888971D01*
X106728008Y-105877957D01*
X106730907Y-105822633D01*
X106731424Y-105816059D01*
X106733156Y-105799577D01*
X106733500Y-105796306D01*
X106733500Y-105776445D01*
X106733673Y-105769850D01*
X106736805Y-105710098D01*
X106736805Y-105710094D01*
X106737150Y-105703507D01*
X106735051Y-105690253D01*
X106733500Y-105670544D01*
X106733500Y-104908477D01*
X106753502Y-104840356D01*
X106770405Y-104819382D01*
X106817749Y-104772038D01*
X106892018Y-104665972D01*
X106940899Y-104596162D01*
X106940900Y-104596160D01*
X106944056Y-104591653D01*
X106946379Y-104586671D01*
X106946382Y-104586666D01*
X107034795Y-104397061D01*
X107037120Y-104392076D01*
X107094115Y-104179371D01*
X107113307Y-103960000D01*
X107094115Y-103740629D01*
X107092693Y-103735323D01*
X107092692Y-103735316D01*
X107068005Y-103643185D01*
X107069695Y-103572209D01*
X107109489Y-103513413D01*
X107174753Y-103485465D01*
X107233526Y-103492776D01*
G37*
%TD.AperFunction*%
%TA.AperFunction,Conductor*%
G36*
X81503014Y-86900376D02*
G01*
X81559850Y-86942923D01*
X81584951Y-87015682D01*
X81586660Y-87093969D01*
X81586968Y-87108104D01*
X81588230Y-87113964D01*
X81588230Y-87113967D01*
X81606329Y-87198034D01*
X81631487Y-87314889D01*
X81633832Y-87320401D01*
X81633833Y-87320403D01*
X81651045Y-87360853D01*
X81714305Y-87509523D01*
X81832433Y-87684986D01*
X81836174Y-87689111D01*
X82085666Y-87938603D01*
X82335353Y-88188291D01*
X82457518Y-88289175D01*
X82643142Y-88390591D01*
X82648851Y-88392419D01*
X82648857Y-88392421D01*
X82666906Y-88398198D01*
X82717588Y-88429105D01*
X85177832Y-90889349D01*
X85211858Y-90951661D01*
X85206793Y-91022476D01*
X85164246Y-91079312D01*
X85139985Y-91093551D01*
X84999281Y-91156195D01*
X84999274Y-91156199D01*
X84993248Y-91158882D01*
X84987907Y-91162762D01*
X84987906Y-91162763D01*
X84954221Y-91187237D01*
X84838747Y-91271134D01*
X84834326Y-91276044D01*
X84834325Y-91276045D01*
X84728539Y-91393533D01*
X84710960Y-91413056D01*
X84701257Y-91429862D01*
X84683018Y-91461453D01*
X84662994Y-91487548D01*
X82729659Y-93420883D01*
X82667347Y-93454909D01*
X82596532Y-93449844D01*
X82539696Y-93407297D01*
X82514885Y-93340777D01*
X82521536Y-93290455D01*
X82554894Y-93194394D01*
X82554895Y-93194392D01*
X82556861Y-93188729D01*
X82583584Y-93004423D01*
X82586352Y-92985336D01*
X82586352Y-92985333D01*
X82587213Y-92979396D01*
X82577433Y-92768101D01*
X82527875Y-92562466D01*
X82484525Y-92467122D01*
X82442806Y-92375368D01*
X82440326Y-92369913D01*
X82317946Y-92197389D01*
X82165150Y-92051119D01*
X82160119Y-92047870D01*
X82160112Y-92047865D01*
X82132393Y-92029967D01*
X82086016Y-91976211D01*
X82076063Y-91905915D01*
X82105696Y-91841398D01*
X82122909Y-91825030D01*
X82237857Y-91734738D01*
X82246506Y-91726501D01*
X82377212Y-91575877D01*
X82384147Y-91566153D01*
X82484010Y-91393533D01*
X82488984Y-91382669D01*
X82554407Y-91194273D01*
X82554648Y-91193284D01*
X82553180Y-91182992D01*
X82539615Y-91179000D01*
X79864598Y-91179000D01*
X79851067Y-91182973D01*
X79849712Y-91192399D01*
X79871194Y-91281537D01*
X79875083Y-91292832D01*
X79957629Y-91474382D01*
X79963576Y-91484724D01*
X80078968Y-91647397D01*
X80086761Y-91656425D01*
X80230831Y-91794342D01*
X80240200Y-91801741D01*
X80267577Y-91819418D01*
X80313955Y-91873172D01*
X80323909Y-91943468D01*
X80294278Y-92007985D01*
X80277063Y-92024356D01*
X80157080Y-92118604D01*
X80153148Y-92123135D01*
X80153145Y-92123138D01*
X80034554Y-92259802D01*
X80018448Y-92278363D01*
X80015448Y-92283549D01*
X80015445Y-92283553D01*
X79997096Y-92315271D01*
X79912527Y-92461454D01*
X79843139Y-92661271D01*
X79812787Y-92870604D01*
X79822567Y-93081899D01*
X79823971Y-93087724D01*
X79823971Y-93087725D01*
X79860212Y-93238101D01*
X79872125Y-93287534D01*
X79874607Y-93292992D01*
X79874608Y-93292996D01*
X79918953Y-93390527D01*
X79959674Y-93480087D01*
X80082054Y-93652611D01*
X80086381Y-93656753D01*
X80086386Y-93656759D01*
X80177316Y-93743805D01*
X80212693Y-93805360D01*
X80209174Y-93876269D01*
X80167878Y-93934020D01*
X80156489Y-93941967D01*
X80106878Y-93972667D01*
X80106874Y-93972670D01*
X80100651Y-93976521D01*
X79975694Y-94101697D01*
X79882885Y-94252261D01*
X79880581Y-94259208D01*
X79841970Y-94375618D01*
X79827203Y-94420138D01*
X79816500Y-94524599D01*
X79816501Y-95325400D01*
X79827474Y-95431167D01*
X79829658Y-95437713D01*
X79875754Y-95575877D01*
X79883450Y-95598946D01*
X79976521Y-95749349D01*
X80101697Y-95874306D01*
X80252261Y-95967115D01*
X80321140Y-95989961D01*
X80413610Y-96020632D01*
X80413612Y-96020632D01*
X80420138Y-96022797D01*
X80426974Y-96023497D01*
X80426977Y-96023498D01*
X80470030Y-96027909D01*
X80524599Y-96033500D01*
X81194791Y-96033500D01*
X81875400Y-96033499D01*
X81981167Y-96022526D01*
X82015953Y-96010920D01*
X82142002Y-95968867D01*
X82142004Y-95968866D01*
X82148946Y-95966550D01*
X82240459Y-95909921D01*
X82293123Y-95877332D01*
X82293125Y-95877331D01*
X82299349Y-95873479D01*
X82324923Y-95847860D01*
X82387206Y-95813780D01*
X82420686Y-95811049D01*
X82421985Y-95811117D01*
X82428507Y-95812150D01*
X82494850Y-95808673D01*
X82501445Y-95808500D01*
X82521306Y-95808500D01*
X82541069Y-95806423D01*
X82547628Y-95805907D01*
X82563427Y-95805079D01*
X82607377Y-95802776D01*
X82607381Y-95802775D01*
X82613971Y-95802430D01*
X82626929Y-95798958D01*
X82646372Y-95795355D01*
X82646795Y-95795311D01*
X82659702Y-95793954D01*
X82722894Y-95773422D01*
X82729196Y-95771556D01*
X82786985Y-95756071D01*
X82793363Y-95754362D01*
X82799242Y-95751366D01*
X82799251Y-95751363D01*
X82805317Y-95748272D01*
X82823579Y-95740708D01*
X82830043Y-95738608D01*
X82830051Y-95738605D01*
X82836331Y-95736564D01*
X82842050Y-95733262D01*
X82842055Y-95733260D01*
X82893867Y-95703346D01*
X82899637Y-95700213D01*
X82958839Y-95670047D01*
X82969259Y-95661609D01*
X82985552Y-95650411D01*
X82985903Y-95650209D01*
X82997169Y-95643704D01*
X83002075Y-95639287D01*
X83002080Y-95639283D01*
X83046538Y-95599253D01*
X83051554Y-95594969D01*
X83064409Y-95584559D01*
X83064412Y-95584556D01*
X83066986Y-95582472D01*
X83081031Y-95568427D01*
X83085816Y-95563886D01*
X83130274Y-95523856D01*
X83130275Y-95523855D01*
X83135185Y-95519434D01*
X83143075Y-95508574D01*
X83155912Y-95493546D01*
X85905545Y-92743913D01*
X85920579Y-92731072D01*
X86008480Y-92667208D01*
X86061253Y-92628866D01*
X86189040Y-92486944D01*
X86284527Y-92321556D01*
X86300818Y-92271419D01*
X86340890Y-92212814D01*
X86406287Y-92185177D01*
X86476244Y-92197284D01*
X86509745Y-92221261D01*
X87763115Y-93474632D01*
X89004124Y-94715641D01*
X89038150Y-94777953D01*
X89033085Y-94848769D01*
X88990538Y-94905604D01*
X88974188Y-94915984D01*
X88943058Y-94932536D01*
X88939498Y-94935123D01*
X88939494Y-94935125D01*
X88719371Y-95095053D01*
X88715808Y-95097642D01*
X88712644Y-95100698D01*
X88712641Y-95100700D01*
X88631559Y-95179000D01*
X88513748Y-95292769D01*
X88405620Y-95431167D01*
X88345140Y-95508579D01*
X88340812Y-95514118D01*
X88338616Y-95517922D01*
X88338611Y-95517929D01*
X88233379Y-95700198D01*
X88200364Y-95757381D01*
X88095138Y-96017824D01*
X88094073Y-96022097D01*
X88094072Y-96022099D01*
X88028267Y-96286029D01*
X88027183Y-96290376D01*
X88026724Y-96294744D01*
X88026723Y-96294749D01*
X88002630Y-96523988D01*
X87997822Y-96569733D01*
X87997975Y-96574121D01*
X87997975Y-96574127D01*
X88006614Y-96821493D01*
X88007625Y-96850458D01*
X88008387Y-96854781D01*
X88008388Y-96854788D01*
X88032164Y-96989624D01*
X88056402Y-97127087D01*
X88143203Y-97394235D01*
X88145131Y-97398188D01*
X88145133Y-97398193D01*
X88180228Y-97470148D01*
X88266340Y-97646702D01*
X88268795Y-97650341D01*
X88268798Y-97650347D01*
X88330519Y-97741852D01*
X88423415Y-97879576D01*
X88611371Y-98088322D01*
X88826550Y-98268879D01*
X89064764Y-98417731D01*
X89161274Y-98460700D01*
X89297453Y-98521331D01*
X89321375Y-98531982D01*
X89591390Y-98609407D01*
X89595740Y-98610018D01*
X89595743Y-98610019D01*
X89698690Y-98624487D01*
X89869552Y-98648500D01*
X90080146Y-98648500D01*
X90082332Y-98648347D01*
X90082336Y-98648347D01*
X90285827Y-98634118D01*
X90285832Y-98634117D01*
X90290212Y-98633811D01*
X90564970Y-98575409D01*
X90569099Y-98573906D01*
X90569103Y-98573905D01*
X90824781Y-98480846D01*
X90824785Y-98480844D01*
X90828926Y-98479337D01*
X90936977Y-98421885D01*
X91065867Y-98353353D01*
X91135405Y-98339033D01*
X91201646Y-98364581D01*
X91243558Y-98421885D01*
X91251021Y-98464604D01*
X91251021Y-99080555D01*
X91231019Y-99148676D01*
X91214116Y-99169650D01*
X90703357Y-99680409D01*
X90636138Y-99715400D01*
X90636105Y-99715406D01*
X90630629Y-99715885D01*
X90417924Y-99772880D01*
X90372763Y-99793939D01*
X90223334Y-99863618D01*
X90223329Y-99863621D01*
X90218347Y-99865944D01*
X90213840Y-99869100D01*
X90213838Y-99869101D01*
X90042473Y-99989092D01*
X90042470Y-99989094D01*
X90037962Y-99992251D01*
X89882251Y-100147962D01*
X89879094Y-100152470D01*
X89879092Y-100152473D01*
X89759101Y-100323838D01*
X89755944Y-100328347D01*
X89753621Y-100333329D01*
X89753618Y-100333334D01*
X89719571Y-100406350D01*
X89662880Y-100527924D01*
X89605885Y-100740629D01*
X89586693Y-100960000D01*
X89587172Y-100965475D01*
X89603235Y-101149085D01*
X89589245Y-101218690D01*
X89539846Y-101269682D01*
X89470720Y-101285872D01*
X89403814Y-101262119D01*
X89388619Y-101249161D01*
X89145405Y-101005947D01*
X89111379Y-100943635D01*
X89108500Y-100916852D01*
X89108500Y-100409600D01*
X89102277Y-100349624D01*
X89098238Y-100310693D01*
X89098237Y-100310689D01*
X89097526Y-100303835D01*
X89090091Y-100281548D01*
X89047027Y-100152473D01*
X89041550Y-100136055D01*
X88948478Y-99985652D01*
X88823303Y-99860695D01*
X88806506Y-99850341D01*
X88678968Y-99771725D01*
X88678966Y-99771724D01*
X88672738Y-99767885D01*
X88521748Y-99717804D01*
X88511389Y-99714368D01*
X88511387Y-99714368D01*
X88504861Y-99712203D01*
X88498025Y-99711503D01*
X88498022Y-99711502D01*
X88454969Y-99707091D01*
X88400400Y-99701500D01*
X87299600Y-99701500D01*
X87296354Y-99701837D01*
X87296350Y-99701837D01*
X87200693Y-99711762D01*
X87200689Y-99711763D01*
X87193835Y-99712474D01*
X87187299Y-99714655D01*
X87187297Y-99714655D01*
X87085915Y-99748479D01*
X87026055Y-99768450D01*
X86875652Y-99861522D01*
X86750695Y-99986697D01*
X86746855Y-99992927D01*
X86746854Y-99992928D01*
X86669586Y-100118280D01*
X86657885Y-100137262D01*
X86655581Y-100144209D01*
X86609596Y-100282851D01*
X86602203Y-100305139D01*
X86591500Y-100409600D01*
X86591500Y-101510400D01*
X86591837Y-101513646D01*
X86591837Y-101513650D01*
X86599931Y-101591653D01*
X86602474Y-101616165D01*
X86604655Y-101622701D01*
X86604655Y-101622703D01*
X86630287Y-101699530D01*
X86658450Y-101783945D01*
X86751522Y-101934348D01*
X86756704Y-101939521D01*
X86763490Y-101946295D01*
X86876697Y-102059305D01*
X86882927Y-102063145D01*
X86882928Y-102063146D01*
X87019159Y-102147120D01*
X87027262Y-102152115D01*
X87107005Y-102178564D01*
X87188611Y-102205632D01*
X87188613Y-102205632D01*
X87195139Y-102207797D01*
X87201975Y-102208497D01*
X87201978Y-102208498D01*
X87245031Y-102212909D01*
X87299600Y-102218500D01*
X87806852Y-102218500D01*
X87874973Y-102238502D01*
X87895947Y-102255405D01*
X88139161Y-102498619D01*
X88173187Y-102560931D01*
X88168122Y-102631746D01*
X88125575Y-102688582D01*
X88059055Y-102713393D01*
X88039085Y-102713235D01*
X87855475Y-102697172D01*
X87850000Y-102696693D01*
X87630629Y-102715885D01*
X87417924Y-102772880D01*
X87333501Y-102812247D01*
X87223334Y-102863618D01*
X87223329Y-102863621D01*
X87218347Y-102865944D01*
X87213840Y-102869100D01*
X87213838Y-102869101D01*
X87042473Y-102989092D01*
X87042470Y-102989094D01*
X87037962Y-102992251D01*
X86882251Y-103147962D01*
X86879096Y-103152468D01*
X86879092Y-103152473D01*
X86759101Y-103323838D01*
X86759100Y-103323840D01*
X86755944Y-103328347D01*
X86753621Y-103333329D01*
X86753618Y-103333334D01*
X86724692Y-103395367D01*
X86662880Y-103527924D01*
X86605885Y-103740629D01*
X86586693Y-103960000D01*
X86605885Y-104179371D01*
X86662880Y-104392076D01*
X86665205Y-104397061D01*
X86753618Y-104586666D01*
X86753621Y-104586671D01*
X86755944Y-104591653D01*
X86759100Y-104596160D01*
X86759101Y-104596162D01*
X86807983Y-104665972D01*
X86882251Y-104772038D01*
X87037962Y-104927749D01*
X87042471Y-104930906D01*
X87042473Y-104930908D01*
X87115229Y-104981852D01*
X87218346Y-105054056D01*
X87417924Y-105147120D01*
X87630629Y-105204115D01*
X87850000Y-105223307D01*
X88069371Y-105204115D01*
X88282076Y-105147120D01*
X88481654Y-105054056D01*
X88584771Y-104981852D01*
X88657527Y-104930908D01*
X88657529Y-104930906D01*
X88662038Y-104927749D01*
X88817749Y-104772038D01*
X88892018Y-104665972D01*
X88940899Y-104596162D01*
X88940900Y-104596160D01*
X88944056Y-104591653D01*
X88946379Y-104586671D01*
X88946382Y-104586666D01*
X89034795Y-104397061D01*
X89037120Y-104392076D01*
X89094115Y-104179371D01*
X89113307Y-103960000D01*
X89094115Y-103740629D01*
X89037120Y-103527924D01*
X88975308Y-103395367D01*
X88946382Y-103333334D01*
X88946379Y-103333329D01*
X88944056Y-103328347D01*
X88899183Y-103264262D01*
X88876496Y-103196990D01*
X88893781Y-103128130D01*
X88945550Y-103079546D01*
X89015563Y-103066683D01*
X89024926Y-103067667D01*
X89024937Y-103067668D01*
X89028205Y-103068011D01*
X89048066Y-103068011D01*
X89054661Y-103068184D01*
X89114413Y-103071316D01*
X89114417Y-103071316D01*
X89121004Y-103071661D01*
X89134258Y-103069562D01*
X89153967Y-103068011D01*
X89452129Y-103068011D01*
X89520250Y-103088013D01*
X89566743Y-103141669D01*
X89576847Y-103211943D01*
X89563173Y-103253552D01*
X89523068Y-103328347D01*
X89493169Y-103384109D01*
X89414138Y-103613631D01*
X89402462Y-103681228D01*
X89373579Y-103848449D01*
X89372821Y-103852836D01*
X89372641Y-103856797D01*
X89372641Y-103856798D01*
X89371814Y-103875014D01*
X89371500Y-103881925D01*
X89371500Y-104834191D01*
X89371451Y-104837709D01*
X89368848Y-104930908D01*
X89368666Y-104937412D01*
X89378510Y-105011184D01*
X89379058Y-105015293D01*
X89379758Y-105021846D01*
X89382021Y-105049973D01*
X89385169Y-105089093D01*
X89386060Y-105100172D01*
X89393897Y-105132077D01*
X89396426Y-105145465D01*
X89400771Y-105178027D01*
X89402232Y-105182868D01*
X89402233Y-105182870D01*
X89423478Y-105253236D01*
X89425219Y-105259597D01*
X89443963Y-105335913D01*
X89445941Y-105340573D01*
X89456801Y-105366158D01*
X89461438Y-105378968D01*
X89470933Y-105410415D01*
X89473151Y-105414963D01*
X89473154Y-105414970D01*
X89505371Y-105481025D01*
X89508107Y-105487027D01*
X89538812Y-105559363D01*
X89541504Y-105563637D01*
X89556319Y-105587163D01*
X89562945Y-105599067D01*
X89577346Y-105628595D01*
X89620844Y-105690256D01*
X89622641Y-105692804D01*
X89626301Y-105698293D01*
X89638940Y-105718363D01*
X89668167Y-105764774D01*
X89671508Y-105768563D01*
X89671512Y-105768569D01*
X89689898Y-105789424D01*
X89698344Y-105800119D01*
X89717274Y-105826954D01*
X89736909Y-105848457D01*
X89776625Y-105888173D01*
X89782044Y-105893943D01*
X89825350Y-105943065D01*
X89825353Y-105943068D01*
X89828698Y-105946862D01*
X89832606Y-105950072D01*
X89832607Y-105950073D01*
X89860989Y-105973386D01*
X89870108Y-105981656D01*
X91625527Y-107737075D01*
X91659553Y-107799387D01*
X91654488Y-107870202D01*
X91611941Y-107927038D01*
X91562630Y-107949417D01*
X91464401Y-107970296D01*
X91460272Y-107971799D01*
X91460268Y-107971800D01*
X91204590Y-108064859D01*
X91204586Y-108064861D01*
X91200445Y-108066368D01*
X90952429Y-108198241D01*
X90948870Y-108200827D01*
X90948868Y-108200828D01*
X90747481Y-108347144D01*
X90725179Y-108363347D01*
X90722015Y-108366403D01*
X90722012Y-108366405D01*
X90639710Y-108445883D01*
X90523119Y-108558474D01*
X90413192Y-108699175D01*
X90358819Y-108768770D01*
X90350183Y-108779823D01*
X90347987Y-108783627D01*
X90347982Y-108783634D01*
X90252850Y-108948408D01*
X90209735Y-109023086D01*
X90104509Y-109283529D01*
X90103444Y-109287802D01*
X90103443Y-109287804D01*
X90037759Y-109551249D01*
X90036554Y-109556081D01*
X90036095Y-109560449D01*
X90036094Y-109560454D01*
X90007652Y-109831069D01*
X90007193Y-109835438D01*
X90007346Y-109839826D01*
X90007346Y-109839832D01*
X90016837Y-110111606D01*
X90016996Y-110116163D01*
X90017758Y-110120486D01*
X90017759Y-110120493D01*
X90044377Y-110271447D01*
X90065773Y-110392792D01*
X90152574Y-110659940D01*
X90154502Y-110663893D01*
X90154504Y-110663898D01*
X90203588Y-110764533D01*
X90275711Y-110912407D01*
X90278166Y-110916046D01*
X90278169Y-110916052D01*
X90325798Y-110986665D01*
X90432786Y-111145281D01*
X90435731Y-111148552D01*
X90435732Y-111148553D01*
X90514787Y-111236352D01*
X90620742Y-111354027D01*
X90624104Y-111356848D01*
X90624105Y-111356849D01*
X90650959Y-111379382D01*
X90835921Y-111534584D01*
X91074135Y-111683436D01*
X91089633Y-111690336D01*
X91301777Y-111784789D01*
X91330746Y-111797687D01*
X91600761Y-111875112D01*
X91605111Y-111875723D01*
X91605114Y-111875724D01*
X91690984Y-111887792D01*
X91878923Y-111914205D01*
X92089517Y-111914205D01*
X92091703Y-111914052D01*
X92091707Y-111914052D01*
X92295198Y-111899823D01*
X92295203Y-111899822D01*
X92299583Y-111899516D01*
X92574341Y-111841114D01*
X92578470Y-111839611D01*
X92578474Y-111839610D01*
X92834152Y-111746551D01*
X92834156Y-111746549D01*
X92838297Y-111745042D01*
X93086313Y-111613169D01*
X93180977Y-111544392D01*
X93310000Y-111450652D01*
X93310003Y-111450649D01*
X93313563Y-111448063D01*
X93320425Y-111441437D01*
X93416433Y-111348723D01*
X93515623Y-111252936D01*
X93688559Y-111031587D01*
X93690755Y-111027783D01*
X93690760Y-111027776D01*
X93808396Y-110824024D01*
X93829007Y-110788324D01*
X93934233Y-110527881D01*
X93939251Y-110507754D01*
X93976569Y-110358082D01*
X94012457Y-110296823D01*
X94075766Y-110264692D01*
X94146397Y-110271889D01*
X94187921Y-110299469D01*
X94725023Y-110836571D01*
X94759049Y-110898883D01*
X94761522Y-110915561D01*
X94765525Y-110965310D01*
X94766060Y-110971965D01*
X94767266Y-110976873D01*
X94767266Y-110976876D01*
X94806677Y-111137331D01*
X94823963Y-111207706D01*
X94825938Y-111212358D01*
X94825939Y-111212362D01*
X94853728Y-111277828D01*
X94918812Y-111431156D01*
X94965511Y-111505313D01*
X95042241Y-111627156D01*
X95048167Y-111636567D01*
X95051512Y-111640361D01*
X95205350Y-111814858D01*
X95205353Y-111814861D01*
X95208698Y-111818655D01*
X95212606Y-111821865D01*
X95212607Y-111821866D01*
X95384592Y-111963135D01*
X95396278Y-111972734D01*
X95606078Y-112094841D01*
X95610801Y-112096654D01*
X95827978Y-112180020D01*
X95827982Y-112180021D01*
X95832702Y-112181833D01*
X95837652Y-112182867D01*
X95837655Y-112182868D01*
X96065369Y-112230440D01*
X96065373Y-112230440D01*
X96070320Y-112231474D01*
X96312817Y-112242486D01*
X96317837Y-112241905D01*
X96317841Y-112241905D01*
X96548929Y-112215167D01*
X96548933Y-112215166D01*
X96553956Y-112214585D01*
X96558820Y-112213209D01*
X96558823Y-112213208D01*
X96782669Y-112149866D01*
X96782668Y-112149866D01*
X96787532Y-112148490D01*
X96792108Y-112146356D01*
X96792114Y-112146354D01*
X97002954Y-112048038D01*
X97002958Y-112048036D01*
X97007536Y-112045901D01*
X97076659Y-111998925D01*
X97201544Y-111914052D01*
X97208307Y-111909456D01*
X97384681Y-111742668D01*
X97429967Y-111683436D01*
X97508743Y-111580402D01*
X97566008Y-111538434D01*
X97636871Y-111534089D01*
X97698835Y-111568745D01*
X97731202Y-111626875D01*
X97768845Y-111780133D01*
X97770820Y-111784785D01*
X97770821Y-111784789D01*
X97816494Y-111892386D01*
X97863694Y-112003583D01*
X97866392Y-112007867D01*
X97975945Y-112181833D01*
X97993049Y-112208994D01*
X97996394Y-112212788D01*
X98150232Y-112387285D01*
X98150235Y-112387288D01*
X98153580Y-112391082D01*
X98157488Y-112394292D01*
X98157489Y-112394293D01*
X98327121Y-112533629D01*
X98341160Y-112545161D01*
X98361438Y-112556963D01*
X98522571Y-112650745D01*
X98550960Y-112667268D01*
X98555683Y-112669081D01*
X98772860Y-112752447D01*
X98772864Y-112752448D01*
X98777584Y-112754260D01*
X98782534Y-112755294D01*
X98782537Y-112755295D01*
X99010251Y-112802867D01*
X99010255Y-112802867D01*
X99015202Y-112803901D01*
X99257699Y-112814913D01*
X99262719Y-112814332D01*
X99262723Y-112814332D01*
X99493811Y-112787594D01*
X99493815Y-112787593D01*
X99498838Y-112787012D01*
X99503702Y-112785636D01*
X99503705Y-112785635D01*
X99727551Y-112722293D01*
X99727550Y-112722293D01*
X99732414Y-112720917D01*
X99736990Y-112718783D01*
X99736996Y-112718781D01*
X99947836Y-112620465D01*
X99947840Y-112620463D01*
X99952418Y-112618328D01*
X100008479Y-112580229D01*
X100064799Y-112541953D01*
X100153189Y-112481883D01*
X100329563Y-112315095D01*
X100448422Y-112159635D01*
X100505686Y-112117668D01*
X100576549Y-112113323D01*
X100637612Y-112147070D01*
X101949595Y-113459053D01*
X101983621Y-113521365D01*
X101986500Y-113548148D01*
X101986500Y-113965989D01*
X101966498Y-114034110D01*
X101912842Y-114080603D01*
X101860500Y-114091989D01*
X92393636Y-114091989D01*
X92325515Y-114071987D01*
X92304541Y-114055084D01*
X88022580Y-109773122D01*
X83710912Y-105461454D01*
X83698075Y-105446426D01*
X83690185Y-105435566D01*
X83672037Y-105419225D01*
X83640816Y-105391114D01*
X83636031Y-105386573D01*
X83621986Y-105372528D01*
X83619409Y-105370441D01*
X83606554Y-105360031D01*
X83601538Y-105355747D01*
X83557080Y-105315717D01*
X83557075Y-105315713D01*
X83552169Y-105311296D01*
X83540552Y-105304589D01*
X83524259Y-105293391D01*
X83513839Y-105284953D01*
X83454637Y-105254787D01*
X83448867Y-105251654D01*
X83397055Y-105221740D01*
X83397050Y-105221738D01*
X83391331Y-105218436D01*
X83385051Y-105216395D01*
X83385043Y-105216392D01*
X83378579Y-105214292D01*
X83360317Y-105206728D01*
X83354251Y-105203637D01*
X83354242Y-105203634D01*
X83348363Y-105200638D01*
X83321806Y-105193522D01*
X83284196Y-105183444D01*
X83277894Y-105181578D01*
X83214702Y-105161046D01*
X83201372Y-105159645D01*
X83181929Y-105156042D01*
X83168971Y-105152570D01*
X83162381Y-105152225D01*
X83162377Y-105152224D01*
X83118427Y-105149921D01*
X83102628Y-105149093D01*
X83096069Y-105148577D01*
X83076306Y-105146500D01*
X83056445Y-105146500D01*
X83049850Y-105146327D01*
X82990098Y-105143195D01*
X82990094Y-105143195D01*
X82983507Y-105142850D01*
X82970253Y-105144949D01*
X82950544Y-105146500D01*
X78433824Y-105146500D01*
X78365703Y-105126498D01*
X78339820Y-105104400D01*
X78256622Y-105011184D01*
X78256621Y-105011183D01*
X78251745Y-105005720D01*
X78106772Y-104904398D01*
X78099965Y-104901696D01*
X78099963Y-104901695D01*
X77949187Y-104841846D01*
X77949184Y-104841845D01*
X77942379Y-104839144D01*
X77935135Y-104838081D01*
X77935132Y-104838080D01*
X77807738Y-104819382D01*
X77767384Y-104813459D01*
X77760532Y-104813956D01*
X77760527Y-104813956D01*
X77674171Y-104820222D01*
X77662651Y-104821058D01*
X77659485Y-104821616D01*
X77659479Y-104821617D01*
X77190010Y-104904398D01*
X76332372Y-105055624D01*
X76329245Y-105056516D01*
X76329241Y-105056517D01*
X76320815Y-105058921D01*
X76230117Y-105084796D01*
X76219193Y-105090715D01*
X76081042Y-105165569D01*
X76081040Y-105165570D01*
X76074607Y-105169056D01*
X76069150Y-105173927D01*
X76069148Y-105173928D01*
X76015579Y-105221740D01*
X75942651Y-105286830D01*
X75886285Y-105367480D01*
X75830870Y-105411854D01*
X75760257Y-105419225D01*
X75696868Y-105387250D01*
X75660829Y-105326081D01*
X75658673Y-105315695D01*
X75195582Y-102492867D01*
X75084625Y-101816516D01*
X75082965Y-101795347D01*
X75082970Y-101794644D01*
X75083084Y-101775961D01*
X75075736Y-101750253D01*
X75071992Y-101732286D01*
X75062551Y-101661491D01*
X74961381Y-100902855D01*
X74960609Y-100895359D01*
X74959960Y-100886431D01*
X74898292Y-100038941D01*
X74897971Y-100031439D01*
X74897391Y-99986697D01*
X74896652Y-99929733D01*
X76177822Y-99929733D01*
X76177975Y-99934121D01*
X76177975Y-99934127D01*
X76187276Y-100200458D01*
X76187625Y-100210458D01*
X76188387Y-100214781D01*
X76188388Y-100214788D01*
X76212164Y-100349624D01*
X76236402Y-100487087D01*
X76323203Y-100754235D01*
X76325131Y-100758188D01*
X76325133Y-100758193D01*
X76376816Y-100864157D01*
X76446340Y-101006702D01*
X76448795Y-101010341D01*
X76448798Y-101010347D01*
X76517412Y-101112071D01*
X76603415Y-101239576D01*
X76606360Y-101242847D01*
X76606361Y-101242848D01*
X76620973Y-101259076D01*
X76791371Y-101448322D01*
X77006550Y-101628879D01*
X77010282Y-101631211D01*
X77236806Y-101772758D01*
X77244764Y-101777731D01*
X77414797Y-101853435D01*
X77478915Y-101881982D01*
X77501375Y-101891982D01*
X77617950Y-101925409D01*
X77736516Y-101959407D01*
X77771390Y-101969407D01*
X77775740Y-101970018D01*
X77775743Y-101970019D01*
X77878690Y-101984487D01*
X78049552Y-102008500D01*
X78260146Y-102008500D01*
X78262332Y-102008347D01*
X78262336Y-102008347D01*
X78465827Y-101994118D01*
X78465832Y-101994117D01*
X78470212Y-101993811D01*
X78744970Y-101935409D01*
X78749099Y-101933906D01*
X78749103Y-101933905D01*
X79004781Y-101840846D01*
X79004785Y-101840844D01*
X79008926Y-101839337D01*
X79256942Y-101707464D01*
X79260503Y-101704877D01*
X79480629Y-101544947D01*
X79480632Y-101544944D01*
X79484192Y-101542358D01*
X79491867Y-101534947D01*
X79595302Y-101435060D01*
X79686252Y-101347231D01*
X79859188Y-101125882D01*
X79861384Y-101122078D01*
X79861389Y-101122071D01*
X79990113Y-100899113D01*
X79999636Y-100882619D01*
X80104862Y-100622176D01*
X80113388Y-100587979D01*
X80171753Y-100353893D01*
X80171754Y-100353888D01*
X80172817Y-100349624D01*
X80173420Y-100343893D01*
X80201719Y-100074636D01*
X80201719Y-100074633D01*
X80202178Y-100070267D01*
X80202025Y-100065873D01*
X80192529Y-99793939D01*
X80192528Y-99793933D01*
X80192375Y-99789542D01*
X80191388Y-99783939D01*
X80151926Y-99560143D01*
X80143598Y-99512913D01*
X80056797Y-99245765D01*
X80049990Y-99231807D01*
X79976218Y-99080555D01*
X79933660Y-98993298D01*
X79931205Y-98989659D01*
X79931202Y-98989653D01*
X79844190Y-98860653D01*
X79776585Y-98760424D01*
X79588629Y-98551678D01*
X79576712Y-98541678D01*
X79464644Y-98447642D01*
X79373450Y-98371121D01*
X79135236Y-98222269D01*
X78905757Y-98120098D01*
X78882639Y-98109805D01*
X78882637Y-98109804D01*
X78878625Y-98108018D01*
X78608610Y-98030593D01*
X78604260Y-98029982D01*
X78604257Y-98029981D01*
X78501310Y-98015513D01*
X78330448Y-97991500D01*
X78119854Y-97991500D01*
X78117668Y-97991653D01*
X78117664Y-97991653D01*
X77914173Y-98005882D01*
X77914168Y-98005883D01*
X77909788Y-98006189D01*
X77635030Y-98064591D01*
X77630901Y-98066094D01*
X77630897Y-98066095D01*
X77375219Y-98159154D01*
X77375215Y-98159156D01*
X77371074Y-98160663D01*
X77123058Y-98292536D01*
X77119499Y-98295122D01*
X77119497Y-98295123D01*
X76905363Y-98450700D01*
X76895808Y-98457642D01*
X76892644Y-98460698D01*
X76892641Y-98460700D01*
X76829856Y-98521331D01*
X76693748Y-98652769D01*
X76520812Y-98874118D01*
X76518616Y-98877922D01*
X76518611Y-98877929D01*
X76404794Y-99075067D01*
X76380364Y-99117381D01*
X76275138Y-99377824D01*
X76274073Y-99382097D01*
X76274072Y-99382099D01*
X76210741Y-99636107D01*
X76207183Y-99650376D01*
X76206724Y-99654744D01*
X76206723Y-99654749D01*
X76178411Y-99924127D01*
X76177822Y-99929733D01*
X74896652Y-99929733D01*
X74895766Y-99861522D01*
X74886890Y-99177446D01*
X74887015Y-99169964D01*
X74916332Y-98538856D01*
X74926478Y-98320467D01*
X74927043Y-98313047D01*
X74928535Y-98298971D01*
X75016367Y-97470148D01*
X75017365Y-97462802D01*
X75017368Y-97462787D01*
X75155866Y-96628644D01*
X75157292Y-96621384D01*
X75165778Y-96584025D01*
X75344282Y-95798118D01*
X75346130Y-95790961D01*
X75346132Y-95790956D01*
X75580923Y-94980718D01*
X75583188Y-94973681D01*
X75695259Y-94657601D01*
X75865095Y-94178604D01*
X75867768Y-94171712D01*
X75894695Y-94107927D01*
X75957602Y-93958908D01*
X76196105Y-93393928D01*
X76199186Y-93387191D01*
X76504569Y-92768101D01*
X76573250Y-92628866D01*
X76576717Y-92622331D01*
X76978536Y-91915980D01*
X76995827Y-91885584D01*
X76999702Y-91879218D01*
X77354412Y-91333500D01*
X77463157Y-91166197D01*
X77467418Y-91160049D01*
X77470262Y-91156195D01*
X77838868Y-90656716D01*
X79845352Y-90656716D01*
X79846820Y-90667008D01*
X79860385Y-90671000D01*
X80927885Y-90671000D01*
X80943124Y-90666525D01*
X80944329Y-90665135D01*
X80946000Y-90657452D01*
X80946000Y-90652885D01*
X81454000Y-90652885D01*
X81458475Y-90668124D01*
X81459865Y-90669329D01*
X81467548Y-90671000D01*
X82535402Y-90671000D01*
X82548933Y-90667027D01*
X82550288Y-90657601D01*
X82528806Y-90568463D01*
X82524917Y-90557168D01*
X82442371Y-90375618D01*
X82436424Y-90365276D01*
X82321032Y-90202603D01*
X82313239Y-90193575D01*
X82169169Y-90055658D01*
X82159804Y-90048262D01*
X81992259Y-89940079D01*
X81981655Y-89934583D01*
X81796688Y-89860039D01*
X81785230Y-89856645D01*
X81588072Y-89818143D01*
X81579209Y-89817066D01*
X81576500Y-89817000D01*
X81472115Y-89817000D01*
X81456876Y-89821475D01*
X81455671Y-89822865D01*
X81454000Y-89830548D01*
X81454000Y-90652885D01*
X80946000Y-90652885D01*
X80946000Y-89835115D01*
X80941525Y-89819876D01*
X80940135Y-89818671D01*
X80932452Y-89817000D01*
X80875168Y-89817000D01*
X80869192Y-89817285D01*
X80720506Y-89831471D01*
X80708772Y-89833730D01*
X80517401Y-89889872D01*
X80506325Y-89894302D01*
X80329022Y-89985619D01*
X80318976Y-89992069D01*
X80162143Y-90115262D01*
X80153494Y-90123499D01*
X80022788Y-90274123D01*
X80015853Y-90283847D01*
X79915990Y-90456467D01*
X79911016Y-90467331D01*
X79845593Y-90655727D01*
X79845352Y-90656716D01*
X77838868Y-90656716D01*
X77974561Y-90472845D01*
X77979191Y-90466947D01*
X78035058Y-90400000D01*
X78529344Y-89807683D01*
X78534349Y-89802039D01*
X78534360Y-89802028D01*
X79117005Y-89183287D01*
X79126487Y-89174215D01*
X79141929Y-89160909D01*
X79156851Y-89148051D01*
X79161732Y-89140520D01*
X79167205Y-89134247D01*
X79176769Y-89122426D01*
X79300047Y-88999150D01*
X81369886Y-86929335D01*
X81432199Y-86895310D01*
X81503014Y-86900376D01*
G37*
%TD.AperFunction*%
%TA.AperFunction,Conductor*%
G36*
X119393075Y-87478683D02*
G01*
X119427111Y-87502920D01*
X121025754Y-89101544D01*
X121043871Y-89119661D01*
X121051482Y-89129187D01*
X121051852Y-89128872D01*
X121057671Y-89135709D01*
X121062461Y-89143301D01*
X121069191Y-89149245D01*
X121069192Y-89149246D01*
X121095449Y-89172436D01*
X121103771Y-89180496D01*
X121456273Y-89554834D01*
X121530710Y-89633882D01*
X121689047Y-89802028D01*
X121694052Y-89807672D01*
X122235469Y-90456467D01*
X122244203Y-90466933D01*
X122248841Y-90472841D01*
X122710900Y-91098955D01*
X122755987Y-91160050D01*
X122760248Y-91166198D01*
X122861637Y-91322184D01*
X123223700Y-91879215D01*
X123227575Y-91885581D01*
X123287997Y-91991796D01*
X123615950Y-92568299D01*
X123646682Y-92622323D01*
X123650153Y-92628866D01*
X123817375Y-92967867D01*
X124024219Y-93387195D01*
X124027300Y-93393932D01*
X124200982Y-93805360D01*
X124355635Y-94171712D01*
X124355635Y-94171713D01*
X124358308Y-94178604D01*
X124595925Y-94848769D01*
X124640216Y-94973686D01*
X124642481Y-94980723D01*
X124877271Y-95790956D01*
X124879121Y-95798118D01*
X125066111Y-96621389D01*
X125067538Y-96628658D01*
X125100638Y-96828007D01*
X125195312Y-97398193D01*
X125206037Y-97462787D01*
X125207036Y-97470141D01*
X125294463Y-98295123D01*
X125296361Y-98313036D01*
X125296927Y-98320462D01*
X125303442Y-98460700D01*
X125336391Y-99169968D01*
X125336516Y-99177449D01*
X125325438Y-100031431D01*
X125325117Y-100038939D01*
X125317963Y-100137262D01*
X125262800Y-100895356D01*
X125262026Y-100902867D01*
X125211117Y-101284627D01*
X125147004Y-101765404D01*
X125146522Y-101769017D01*
X125145970Y-101772730D01*
X125014042Y-102576986D01*
X124925832Y-103114732D01*
X124922211Y-103130439D01*
X124915487Y-103152921D01*
X124915486Y-103152925D01*
X124912915Y-103161523D01*
X124912860Y-103170497D01*
X124912860Y-103170498D01*
X124912711Y-103194890D01*
X124911630Y-103210606D01*
X124904959Y-103261153D01*
X124895433Y-103333334D01*
X124892103Y-103358563D01*
X124891998Y-103359336D01*
X124878019Y-103459518D01*
X124866150Y-103544580D01*
X124866016Y-103545515D01*
X124838801Y-103730410D01*
X124838657Y-103731360D01*
X124816393Y-103875014D01*
X124812597Y-103891819D01*
X124808486Y-103905566D01*
X124804112Y-103920190D01*
X124804057Y-103929166D01*
X124804057Y-103929167D01*
X124803964Y-103944362D01*
X124802358Y-103963654D01*
X124525733Y-105678737D01*
X123819495Y-110057433D01*
X123816837Y-110073911D01*
X123813161Y-110089952D01*
X123806684Y-110111606D01*
X123806683Y-110111614D01*
X123804112Y-110120210D01*
X123804063Y-110128174D01*
X123799317Y-110147940D01*
X123795016Y-110160787D01*
X123793042Y-110166256D01*
X123786896Y-110182126D01*
X123786439Y-110183305D01*
X123784198Y-110188714D01*
X123776872Y-110205296D01*
X123774402Y-110210555D01*
X123768319Y-110222768D01*
X123766386Y-110226648D01*
X123763681Y-110231779D01*
X123754968Y-110247423D01*
X123752056Y-110252382D01*
X123742668Y-110267564D01*
X123739542Y-110272370D01*
X123729508Y-110287058D01*
X123726180Y-110291701D01*
X123715481Y-110305932D01*
X123711978Y-110310380D01*
X123705861Y-110317797D01*
X123700648Y-110324117D01*
X123696966Y-110328383D01*
X123684995Y-110341635D01*
X123681166Y-110345688D01*
X123668602Y-110358404D01*
X123664578Y-110362297D01*
X123651487Y-110374413D01*
X123647291Y-110378127D01*
X123633666Y-110389655D01*
X123629340Y-110393154D01*
X123624399Y-110396970D01*
X123615195Y-110404079D01*
X123610702Y-110407393D01*
X123596089Y-110417677D01*
X123591445Y-110420793D01*
X123576408Y-110430404D01*
X123571638Y-110433305D01*
X123556194Y-110442234D01*
X123551261Y-110444940D01*
X123535443Y-110453165D01*
X123530412Y-110455641D01*
X123514230Y-110463156D01*
X123509061Y-110465415D01*
X123492599Y-110472179D01*
X123487296Y-110474220D01*
X123475425Y-110478483D01*
X123470833Y-110480132D01*
X123470557Y-110480231D01*
X123465148Y-110482036D01*
X123448108Y-110487297D01*
X123442642Y-110488850D01*
X123425312Y-110493348D01*
X123419731Y-110494660D01*
X123402227Y-110498359D01*
X123396531Y-110499427D01*
X123378773Y-110502334D01*
X123373010Y-110503141D01*
X123355033Y-110505237D01*
X123349219Y-110505779D01*
X123330948Y-110507055D01*
X123325080Y-110507327D01*
X123322501Y-110507387D01*
X123306587Y-110507754D01*
X123300721Y-110507753D01*
X123281851Y-110507307D01*
X123275985Y-110507031D01*
X123249834Y-110505185D01*
X123247644Y-110505011D01*
X123216842Y-110502291D01*
X123216840Y-110502291D01*
X123211993Y-110501863D01*
X123207251Y-110502178D01*
X123205592Y-110502061D01*
X123202031Y-110502317D01*
X123202029Y-110502317D01*
X123163776Y-110505066D01*
X123163104Y-110505112D01*
X123137689Y-110506802D01*
X123132900Y-110507029D01*
X123110079Y-110507676D01*
X123105304Y-110507721D01*
X123090960Y-110507581D01*
X123082541Y-110507499D01*
X123077750Y-110507361D01*
X123055030Y-110506274D01*
X123050242Y-110505954D01*
X123027571Y-110504002D01*
X123022795Y-110503498D01*
X123000267Y-110500690D01*
X122995506Y-110500004D01*
X122975741Y-110496770D01*
X122965191Y-110494577D01*
X122962929Y-110494005D01*
X122958321Y-110492452D01*
X122928629Y-110487339D01*
X122925015Y-110486661D01*
X122898513Y-110481276D01*
X122894046Y-110481015D01*
X122889599Y-110480437D01*
X122889618Y-110480290D01*
X122883837Y-110479625D01*
X117238925Y-109507557D01*
X117235506Y-109506744D01*
X117232358Y-109505265D01*
X117225226Y-109504155D01*
X117218623Y-109501276D01*
X117209723Y-109500143D01*
X117209715Y-109500141D01*
X117159356Y-109493731D01*
X117153886Y-109492913D01*
X117153752Y-109492890D01*
X117132568Y-109489242D01*
X117129481Y-109489155D01*
X117126985Y-109488836D01*
X117126700Y-109488814D01*
X117121883Y-109488064D01*
X117117005Y-109488064D01*
X117114536Y-109487873D01*
X117114521Y-109487871D01*
X117112537Y-109487773D01*
X117107712Y-109487159D01*
X117094034Y-109487540D01*
X117086685Y-109487745D01*
X117079611Y-109487744D01*
X117055575Y-109487064D01*
X117023946Y-109486169D01*
X117015262Y-109488444D01*
X117006345Y-109489465D01*
X117006261Y-109488733D01*
X116995302Y-109490291D01*
X116876832Y-109493591D01*
X116864398Y-109493323D01*
X116861180Y-109493094D01*
X116861164Y-109493094D01*
X116856309Y-109492749D01*
X116834439Y-109494579D01*
X116827461Y-109494967D01*
X116813083Y-109495368D01*
X116813082Y-109495368D01*
X116808601Y-109495493D01*
X116802954Y-109496463D01*
X116799822Y-109497001D01*
X116789000Y-109498380D01*
X116717195Y-109504388D01*
X116627434Y-109511897D01*
X116614975Y-109512321D01*
X116606928Y-109512195D01*
X116599415Y-109513245D01*
X116585109Y-109515244D01*
X116578176Y-109516018D01*
X116563819Y-109517219D01*
X116563816Y-109517219D01*
X116559351Y-109517593D01*
X116554986Y-109518595D01*
X116554976Y-109518597D01*
X116550762Y-109519565D01*
X116540004Y-109521548D01*
X116380552Y-109543832D01*
X116368096Y-109544946D01*
X116365009Y-109545068D01*
X116364994Y-109545070D01*
X116360133Y-109545262D01*
X116355354Y-109546201D01*
X116355355Y-109546201D01*
X116338447Y-109549523D01*
X116331593Y-109550674D01*
X116317246Y-109552679D01*
X116317245Y-109552679D01*
X116312810Y-109553299D01*
X116304395Y-109555729D01*
X116293754Y-109558306D01*
X116136679Y-109589171D01*
X116124300Y-109590970D01*
X116116432Y-109591716D01*
X116111715Y-109592915D01*
X116111712Y-109592916D01*
X116094975Y-109597172D01*
X116088219Y-109598693D01*
X116073931Y-109601501D01*
X116073923Y-109601503D01*
X116069532Y-109602366D01*
X116065309Y-109603842D01*
X116065306Y-109603843D01*
X116061320Y-109605236D01*
X116050802Y-109608405D01*
X115896407Y-109647667D01*
X115884115Y-109650148D01*
X115876355Y-109651316D01*
X115855151Y-109657964D01*
X115848567Y-109659832D01*
X115830027Y-109664547D01*
X115822038Y-109667843D01*
X115811697Y-109671589D01*
X115712526Y-109702684D01*
X115660211Y-109719087D01*
X115648052Y-109722243D01*
X115645167Y-109722840D01*
X115645165Y-109722841D01*
X115640404Y-109723826D01*
X115619596Y-109731624D01*
X115613073Y-109733867D01*
X115599094Y-109738250D01*
X115599090Y-109738251D01*
X115594818Y-109739591D01*
X115587048Y-109743307D01*
X115576916Y-109747619D01*
X115509190Y-109772999D01*
X115428601Y-109803199D01*
X115416636Y-109807014D01*
X115409096Y-109809010D01*
X115404634Y-109810966D01*
X115404632Y-109810967D01*
X115388695Y-109817954D01*
X115382345Y-109820534D01*
X115364402Y-109827258D01*
X115360471Y-109829409D01*
X115360472Y-109829409D01*
X115356885Y-109831372D01*
X115346981Y-109836242D01*
X115202084Y-109899768D01*
X115190329Y-109904236D01*
X115187567Y-109905131D01*
X115187561Y-109905133D01*
X115182933Y-109906633D01*
X115163042Y-109916682D01*
X115156835Y-109919607D01*
X115139292Y-109927298D01*
X115135479Y-109929664D01*
X115135474Y-109929667D01*
X115132006Y-109931819D01*
X115122382Y-109937223D01*
X115111527Y-109942707D01*
X114982927Y-110007675D01*
X114981177Y-110008559D01*
X114969694Y-110013658D01*
X114962425Y-110016461D01*
X114958215Y-110018885D01*
X114958211Y-110018887D01*
X114943154Y-110027557D01*
X114937098Y-110030827D01*
X114923995Y-110037446D01*
X114923983Y-110037453D01*
X114919989Y-110039471D01*
X114916318Y-110042038D01*
X114916305Y-110042045D01*
X114912952Y-110044389D01*
X114903638Y-110050310D01*
X114766387Y-110129338D01*
X114755208Y-110135053D01*
X114752520Y-110136262D01*
X114752514Y-110136265D01*
X114748079Y-110138260D01*
X114729429Y-110150403D01*
X114723572Y-110153992D01*
X114706996Y-110163536D01*
X114703476Y-110166294D01*
X114703466Y-110166301D01*
X114700220Y-110168845D01*
X114691258Y-110175255D01*
X114649629Y-110202360D01*
X114581628Y-110222768D01*
X114513390Y-110203172D01*
X114466578Y-110149794D01*
X114456056Y-110079581D01*
X114485164Y-110014826D01*
X114491783Y-110007675D01*
X115579053Y-108920405D01*
X115641365Y-108886379D01*
X115668148Y-108883500D01*
X121344259Y-108883500D01*
X121404090Y-108898612D01*
X121491355Y-108945697D01*
X121497976Y-108947577D01*
X121497979Y-108947578D01*
X121589267Y-108973496D01*
X121589272Y-108973497D01*
X121592371Y-108974377D01*
X121595540Y-108974936D01*
X121595541Y-108974936D01*
X121927954Y-109033549D01*
X122922650Y-109208940D01*
X122925891Y-109209171D01*
X122925899Y-109209172D01*
X123021841Y-109216010D01*
X123028716Y-109216500D01*
X123203666Y-109190509D01*
X123210458Y-109187799D01*
X123210463Y-109187798D01*
X123298913Y-109152510D01*
X123367946Y-109124969D01*
X123373935Y-109120767D01*
X123373938Y-109120766D01*
X123506752Y-109027596D01*
X123506755Y-109027593D01*
X123512741Y-109023394D01*
X123630285Y-108891233D01*
X123714273Y-108735576D01*
X123742953Y-108634560D01*
X123843139Y-108066368D01*
X123881443Y-107849136D01*
X123881443Y-107849133D01*
X123882009Y-107845925D01*
X123889569Y-107739859D01*
X123863578Y-107564909D01*
X123836480Y-107496985D01*
X123800751Y-107407430D01*
X123800751Y-107407429D01*
X123798038Y-107400630D01*
X123696463Y-107255834D01*
X123690990Y-107250966D01*
X123651224Y-107215597D01*
X123613616Y-107155380D01*
X123614534Y-107084389D01*
X123653687Y-107025164D01*
X123675516Y-107010353D01*
X123684343Y-107005630D01*
X123848611Y-106872371D01*
X123898006Y-106813608D01*
X123980855Y-106715048D01*
X123980858Y-106715044D01*
X123984716Y-106710454D01*
X124007296Y-106669969D01*
X124084826Y-106530962D01*
X124084828Y-106530957D01*
X124087748Y-106525722D01*
X124153989Y-106324840D01*
X124181048Y-106115056D01*
X124172772Y-105981656D01*
X124168323Y-105909929D01*
X124168322Y-105909924D01*
X124167951Y-105903940D01*
X124115168Y-105699109D01*
X124024606Y-105507955D01*
X123899531Y-105337375D01*
X123876184Y-105315717D01*
X123784176Y-105230368D01*
X123744456Y-105193522D01*
X123564978Y-105081590D01*
X123537325Y-105070947D01*
X123401216Y-105018563D01*
X123367571Y-105005614D01*
X123362141Y-105004381D01*
X123360654Y-105004119D01*
X123360650Y-105004118D01*
X123215571Y-104978537D01*
X122666919Y-104881795D01*
X122663944Y-104881558D01*
X122663934Y-104881557D01*
X122514955Y-104869702D01*
X122514952Y-104869702D01*
X122508982Y-104869227D01*
X122398182Y-104881557D01*
X122304723Y-104891957D01*
X122304721Y-104891957D01*
X122298758Y-104892621D01*
X122293029Y-104894400D01*
X122293024Y-104894401D01*
X122175454Y-104930908D01*
X122096751Y-104955346D01*
X121910249Y-105055139D01*
X121905587Y-105058921D01*
X121884887Y-105075713D01*
X121819383Y-105103095D01*
X121749474Y-105090715D01*
X121716414Y-105066956D01*
X120580912Y-103931454D01*
X120568075Y-103916426D01*
X120560185Y-103905566D01*
X120510816Y-103861114D01*
X120506031Y-103856573D01*
X120491986Y-103842528D01*
X120489409Y-103840441D01*
X120476554Y-103830031D01*
X120471538Y-103825747D01*
X120427080Y-103785717D01*
X120427075Y-103785713D01*
X120422169Y-103781296D01*
X120410552Y-103774589D01*
X120394259Y-103763391D01*
X120388971Y-103759109D01*
X120383839Y-103754953D01*
X120324637Y-103724787D01*
X120318867Y-103721654D01*
X120267055Y-103691740D01*
X120267050Y-103691738D01*
X120261331Y-103688436D01*
X120255051Y-103686395D01*
X120255043Y-103686392D01*
X120248579Y-103684292D01*
X120230317Y-103676728D01*
X120224251Y-103673637D01*
X120224242Y-103673634D01*
X120218363Y-103670638D01*
X120160040Y-103655010D01*
X120154196Y-103653444D01*
X120147894Y-103651578D01*
X120084702Y-103631046D01*
X120071372Y-103629645D01*
X120051929Y-103626042D01*
X120038971Y-103622570D01*
X120032381Y-103622225D01*
X120032377Y-103622224D01*
X119988427Y-103619921D01*
X119972628Y-103619093D01*
X119966069Y-103618577D01*
X119946306Y-103616500D01*
X119926445Y-103616500D01*
X119919850Y-103616327D01*
X119860098Y-103613195D01*
X119860094Y-103613195D01*
X119853507Y-103612850D01*
X119840253Y-103614949D01*
X119820544Y-103616500D01*
X118018148Y-103616500D01*
X117950027Y-103596498D01*
X117929053Y-103579595D01*
X116445911Y-102096453D01*
X116433074Y-102081425D01*
X116425184Y-102070565D01*
X116412679Y-102059305D01*
X116375815Y-102026113D01*
X116371030Y-102021572D01*
X116356985Y-102007527D01*
X116354408Y-102005440D01*
X116341553Y-101995030D01*
X116336537Y-101990746D01*
X116292079Y-101950716D01*
X116292074Y-101950712D01*
X116287168Y-101946295D01*
X116275551Y-101939588D01*
X116259258Y-101928390D01*
X116256704Y-101926322D01*
X116248838Y-101919952D01*
X116189636Y-101889786D01*
X116183866Y-101886653D01*
X116132054Y-101856739D01*
X116132049Y-101856737D01*
X116126330Y-101853435D01*
X116120050Y-101851394D01*
X116120042Y-101851391D01*
X116113578Y-101849291D01*
X116095316Y-101841727D01*
X116089250Y-101838636D01*
X116089241Y-101838633D01*
X116083362Y-101835637D01*
X116059851Y-101829337D01*
X116019195Y-101818443D01*
X116012893Y-101816577D01*
X115949701Y-101796045D01*
X115936371Y-101794644D01*
X115916928Y-101791041D01*
X115903970Y-101787569D01*
X115897380Y-101787224D01*
X115897376Y-101787223D01*
X115853426Y-101784920D01*
X115837627Y-101784092D01*
X115831068Y-101783576D01*
X115811305Y-101781499D01*
X115791444Y-101781499D01*
X115784849Y-101781326D01*
X115725097Y-101778194D01*
X115725093Y-101778194D01*
X115718506Y-101777849D01*
X115705252Y-101779948D01*
X115685543Y-101781499D01*
X113052133Y-101781499D01*
X112984012Y-101761497D01*
X112937519Y-101707841D01*
X112927415Y-101637567D01*
X112942576Y-101593766D01*
X112944056Y-101591653D01*
X113037120Y-101392076D01*
X113094115Y-101179371D01*
X113110638Y-100990508D01*
X113136501Y-100924389D01*
X113147064Y-100912394D01*
X114139725Y-99919733D01*
X120017822Y-99919733D01*
X120017975Y-99924121D01*
X120017975Y-99924127D01*
X120027318Y-100191659D01*
X120027625Y-100200458D01*
X120028387Y-100204781D01*
X120028388Y-100204788D01*
X120052164Y-100339624D01*
X120076402Y-100477087D01*
X120163203Y-100744235D01*
X120165131Y-100748188D01*
X120165133Y-100748193D01*
X120205097Y-100830131D01*
X120286340Y-100996702D01*
X120288795Y-101000341D01*
X120288798Y-101000347D01*
X120346515Y-101085916D01*
X120443415Y-101229576D01*
X120446360Y-101232847D01*
X120446361Y-101232848D01*
X120492983Y-101284627D01*
X120631371Y-101438322D01*
X120634733Y-101441143D01*
X120634734Y-101441144D01*
X120646652Y-101451144D01*
X120846550Y-101618879D01*
X121084764Y-101767731D01*
X121152938Y-101798084D01*
X121284679Y-101856739D01*
X121341375Y-101881982D01*
X121380476Y-101893194D01*
X121603875Y-101957252D01*
X121611390Y-101959407D01*
X121615740Y-101960018D01*
X121615743Y-101960019D01*
X121718690Y-101974487D01*
X121889552Y-101998500D01*
X122100146Y-101998500D01*
X122102332Y-101998347D01*
X122102336Y-101998347D01*
X122305827Y-101984118D01*
X122305832Y-101984117D01*
X122310212Y-101983811D01*
X122584970Y-101925409D01*
X122589099Y-101923906D01*
X122589103Y-101923905D01*
X122844781Y-101830846D01*
X122844785Y-101830844D01*
X122848926Y-101829337D01*
X123096942Y-101697464D01*
X123195234Y-101626051D01*
X123320629Y-101534947D01*
X123320632Y-101534944D01*
X123324192Y-101532358D01*
X123526252Y-101337231D01*
X123673247Y-101149085D01*
X123696481Y-101119347D01*
X123696482Y-101119346D01*
X123699188Y-101115882D01*
X123701384Y-101112078D01*
X123701389Y-101112071D01*
X123837435Y-100876431D01*
X123839636Y-100872619D01*
X123944862Y-100612176D01*
X123949030Y-100595461D01*
X124011753Y-100343893D01*
X124011754Y-100343888D01*
X124012817Y-100339624D01*
X124014003Y-100328347D01*
X124041719Y-100064636D01*
X124041719Y-100064633D01*
X124042178Y-100060267D01*
X124042025Y-100055873D01*
X124032529Y-99783939D01*
X124032528Y-99783933D01*
X124032375Y-99779542D01*
X124031611Y-99775205D01*
X123991528Y-99547885D01*
X123983598Y-99502913D01*
X123896797Y-99235765D01*
X123877594Y-99196392D01*
X123832320Y-99103569D01*
X123773660Y-98983298D01*
X123771205Y-98979659D01*
X123771202Y-98979653D01*
X123668958Y-98828071D01*
X123616585Y-98750424D01*
X123428629Y-98541678D01*
X123404381Y-98521331D01*
X123328479Y-98457642D01*
X123213450Y-98361121D01*
X122975236Y-98212269D01*
X122745099Y-98109805D01*
X122722639Y-98099805D01*
X122722637Y-98099804D01*
X122718625Y-98098018D01*
X122487711Y-98031805D01*
X122452837Y-98021805D01*
X122452836Y-98021805D01*
X122448610Y-98020593D01*
X122444260Y-98019982D01*
X122444257Y-98019981D01*
X122341310Y-98005513D01*
X122170448Y-97981500D01*
X121959854Y-97981500D01*
X121957668Y-97981653D01*
X121957664Y-97981653D01*
X121754173Y-97995882D01*
X121754168Y-97995883D01*
X121749788Y-97996189D01*
X121475030Y-98054591D01*
X121470901Y-98056094D01*
X121470897Y-98056095D01*
X121215219Y-98149154D01*
X121215215Y-98149156D01*
X121211074Y-98150663D01*
X120963058Y-98282536D01*
X120959499Y-98285122D01*
X120959497Y-98285123D01*
X120771260Y-98421885D01*
X120735808Y-98447642D01*
X120732644Y-98450698D01*
X120732641Y-98450700D01*
X120722286Y-98460700D01*
X120533748Y-98642769D01*
X120360812Y-98864118D01*
X120358616Y-98867922D01*
X120358611Y-98867929D01*
X120288334Y-98989653D01*
X120220364Y-99107381D01*
X120115138Y-99367824D01*
X120114073Y-99372097D01*
X120114072Y-99372099D01*
X120055442Y-99607252D01*
X120047183Y-99640376D01*
X120046724Y-99644744D01*
X120046723Y-99644749D01*
X120020063Y-99898411D01*
X120017822Y-99919733D01*
X114139725Y-99919733D01*
X115218546Y-98840912D01*
X115233574Y-98828075D01*
X115244434Y-98820185D01*
X115288886Y-98770816D01*
X115293427Y-98766031D01*
X115307472Y-98751986D01*
X115309559Y-98749409D01*
X115319969Y-98736554D01*
X115324253Y-98731538D01*
X115364283Y-98687080D01*
X115364287Y-98687075D01*
X115368704Y-98682169D01*
X115375411Y-98670552D01*
X115386609Y-98654259D01*
X115390891Y-98648971D01*
X115395047Y-98643839D01*
X115425213Y-98584637D01*
X115428346Y-98578867D01*
X115458260Y-98527055D01*
X115458262Y-98527050D01*
X115461564Y-98521331D01*
X115463605Y-98515051D01*
X115463608Y-98515043D01*
X115465708Y-98508579D01*
X115473272Y-98490317D01*
X115476363Y-98484251D01*
X115476366Y-98484242D01*
X115479362Y-98478363D01*
X115496556Y-98414196D01*
X115498422Y-98407894D01*
X115518954Y-98344702D01*
X115520355Y-98331372D01*
X115523958Y-98311929D01*
X115527430Y-98298971D01*
X115528292Y-98282536D01*
X115530907Y-98232633D01*
X115531424Y-98226059D01*
X115531578Y-98224596D01*
X115533500Y-98206306D01*
X115533500Y-98186445D01*
X115533673Y-98179850D01*
X115536805Y-98120098D01*
X115536805Y-98120094D01*
X115537150Y-98113507D01*
X115535051Y-98100253D01*
X115533500Y-98080544D01*
X115533500Y-97193148D01*
X115553502Y-97125027D01*
X115570405Y-97104053D01*
X117127409Y-95547049D01*
X117189721Y-95513023D01*
X117260536Y-95518088D01*
X117319274Y-95563244D01*
X117378968Y-95647397D01*
X117386761Y-95656425D01*
X117530831Y-95794342D01*
X117540196Y-95801738D01*
X117707741Y-95909921D01*
X117718345Y-95915417D01*
X117903312Y-95989961D01*
X117914770Y-95993355D01*
X118111928Y-96031857D01*
X118120791Y-96032934D01*
X118123500Y-96033000D01*
X118227885Y-96033000D01*
X118243124Y-96028525D01*
X118244329Y-96027135D01*
X118246000Y-96019452D01*
X118246000Y-96014885D01*
X118754000Y-96014885D01*
X118758475Y-96030124D01*
X118759865Y-96031329D01*
X118767548Y-96033000D01*
X118824832Y-96033000D01*
X118830808Y-96032715D01*
X118979494Y-96018529D01*
X118991228Y-96016270D01*
X119182599Y-95960128D01*
X119193675Y-95955698D01*
X119370978Y-95864381D01*
X119381024Y-95857931D01*
X119537857Y-95734738D01*
X119546506Y-95726501D01*
X119677212Y-95575877D01*
X119684147Y-95566153D01*
X119784010Y-95393533D01*
X119788984Y-95382669D01*
X119854407Y-95194273D01*
X119854648Y-95193284D01*
X119853180Y-95182992D01*
X119839615Y-95179000D01*
X118772115Y-95179000D01*
X118756876Y-95183475D01*
X118755671Y-95184865D01*
X118754000Y-95192548D01*
X118754000Y-96014885D01*
X118246000Y-96014885D01*
X118246000Y-94797000D01*
X118266002Y-94728879D01*
X118319658Y-94682386D01*
X118372000Y-94671000D01*
X119835402Y-94671000D01*
X119848933Y-94667027D01*
X119850288Y-94657601D01*
X119828806Y-94568463D01*
X119824917Y-94557168D01*
X119742371Y-94375618D01*
X119736424Y-94365276D01*
X119621032Y-94202603D01*
X119613239Y-94193575D01*
X119469169Y-94055658D01*
X119459800Y-94048259D01*
X119432423Y-94030582D01*
X119386045Y-93976828D01*
X119376091Y-93906532D01*
X119405722Y-93842015D01*
X119422937Y-93825644D01*
X119538202Y-93735102D01*
X119542920Y-93731396D01*
X119546852Y-93726865D01*
X119546855Y-93726862D01*
X119677621Y-93576167D01*
X119681552Y-93571637D01*
X119684552Y-93566451D01*
X119684555Y-93566447D01*
X119784467Y-93393742D01*
X119787473Y-93388546D01*
X119856861Y-93188729D01*
X119883584Y-93004423D01*
X119886352Y-92985336D01*
X119886352Y-92985333D01*
X119887213Y-92979396D01*
X119877433Y-92768101D01*
X119827875Y-92562466D01*
X119784525Y-92467122D01*
X119742806Y-92375368D01*
X119740326Y-92369913D01*
X119617946Y-92197389D01*
X119613619Y-92193247D01*
X119613614Y-92193241D01*
X119522684Y-92106195D01*
X119487307Y-92044640D01*
X119490826Y-91973731D01*
X119532122Y-91915980D01*
X119543511Y-91908033D01*
X119593122Y-91877333D01*
X119593126Y-91877330D01*
X119599349Y-91873479D01*
X119724306Y-91748303D01*
X119817115Y-91597739D01*
X119854600Y-91484724D01*
X119870632Y-91436390D01*
X119870632Y-91436388D01*
X119872797Y-91429862D01*
X119883500Y-91325401D01*
X119883499Y-90524600D01*
X119872526Y-90418833D01*
X119827491Y-90283847D01*
X119818867Y-90257998D01*
X119818866Y-90257996D01*
X119816550Y-90251054D01*
X119723479Y-90100651D01*
X119598303Y-89975694D01*
X119466261Y-89894302D01*
X119453969Y-89886725D01*
X119453967Y-89886724D01*
X119447739Y-89882885D01*
X119324908Y-89842144D01*
X119286390Y-89829368D01*
X119286388Y-89829368D01*
X119279862Y-89827203D01*
X119273026Y-89826503D01*
X119273023Y-89826502D01*
X119229970Y-89822091D01*
X119175401Y-89816500D01*
X118505209Y-89816500D01*
X117824600Y-89816501D01*
X117760778Y-89823122D01*
X117725693Y-89826762D01*
X117725690Y-89826763D01*
X117718833Y-89827474D01*
X117712290Y-89829657D01*
X117710526Y-89830038D01*
X117639718Y-89824868D01*
X117582946Y-89782237D01*
X117558234Y-89715680D01*
X117573428Y-89646328D01*
X117594831Y-89617783D01*
X118051475Y-89161139D01*
X118113787Y-89127113D01*
X118129587Y-89124713D01*
X118254733Y-89113764D01*
X118260046Y-89112340D01*
X118260048Y-89112340D01*
X118453678Y-89060457D01*
X118453680Y-89060456D01*
X118458988Y-89059034D01*
X118463970Y-89056711D01*
X118645655Y-88971990D01*
X118645658Y-88971988D01*
X118650636Y-88969667D01*
X118823854Y-88848379D01*
X118973379Y-88698854D01*
X119094667Y-88525636D01*
X119132239Y-88445064D01*
X119181711Y-88338970D01*
X119181712Y-88338969D01*
X119184034Y-88333988D01*
X119211575Y-88231206D01*
X119237340Y-88135048D01*
X119237340Y-88135046D01*
X119238764Y-88129733D01*
X119257194Y-87919078D01*
X119238764Y-87708423D01*
X119231188Y-87680150D01*
X119216312Y-87624628D01*
X119218002Y-87553652D01*
X119257797Y-87494856D01*
X119323061Y-87466909D01*
X119393075Y-87478683D01*
G37*
%TD.AperFunction*%
%TA.AperFunction,Conductor*%
G36*
X82679973Y-106933502D02*
G01*
X82700947Y-106950405D01*
X85807854Y-110057311D01*
X85841879Y-110119622D01*
X85836814Y-110190437D01*
X85794267Y-110247273D01*
X85727747Y-110272084D01*
X85658373Y-110256993D01*
X85650009Y-110251996D01*
X85535358Y-110177348D01*
X85525187Y-110169979D01*
X85519093Y-110165082D01*
X85511587Y-110160760D01*
X85499821Y-110153985D01*
X85493947Y-110150386D01*
X85493038Y-110149794D01*
X85477922Y-110139952D01*
X85470110Y-110136323D01*
X85460353Y-110131260D01*
X85323069Y-110052213D01*
X85312510Y-110045409D01*
X85310139Y-110043708D01*
X85310132Y-110043704D01*
X85306180Y-110040869D01*
X85301836Y-110038675D01*
X85301832Y-110038672D01*
X85286338Y-110030845D01*
X85280280Y-110027575D01*
X85267543Y-110020241D01*
X85267542Y-110020240D01*
X85263663Y-110018007D01*
X85258524Y-110015953D01*
X85255687Y-110014819D01*
X85245637Y-110010282D01*
X85104437Y-109938949D01*
X85093515Y-109932729D01*
X85091055Y-109931161D01*
X85091049Y-109931158D01*
X85086948Y-109928543D01*
X85073863Y-109922806D01*
X85066567Y-109919607D01*
X85060352Y-109916678D01*
X85047233Y-109910051D01*
X85047230Y-109910050D01*
X85043234Y-109908031D01*
X85036550Y-109905775D01*
X85035115Y-109905290D01*
X85024826Y-109901307D01*
X84879939Y-109837786D01*
X84868687Y-109832168D01*
X84866737Y-109831069D01*
X84861901Y-109828345D01*
X84857343Y-109826637D01*
X84857339Y-109826635D01*
X84841060Y-109820534D01*
X84834690Y-109817946D01*
X84821258Y-109812058D01*
X84821251Y-109812055D01*
X84817144Y-109810255D01*
X84808874Y-109807958D01*
X84798396Y-109804547D01*
X84690117Y-109763970D01*
X84650076Y-109748964D01*
X84638557Y-109743979D01*
X84635915Y-109742676D01*
X84635907Y-109742673D01*
X84631539Y-109740518D01*
X84610323Y-109733866D01*
X84603816Y-109731628D01*
X84590102Y-109726489D01*
X84590097Y-109726488D01*
X84585898Y-109724914D01*
X84581519Y-109723952D01*
X84581513Y-109723950D01*
X84577503Y-109723069D01*
X84566850Y-109720235D01*
X84415350Y-109672733D01*
X84403585Y-109668389D01*
X84396375Y-109665311D01*
X84391660Y-109664112D01*
X84391654Y-109664110D01*
X84374864Y-109659841D01*
X84368218Y-109657955D01*
X84354284Y-109653586D01*
X84350001Y-109652243D01*
X84341464Y-109650852D01*
X84330697Y-109648609D01*
X84176298Y-109609346D01*
X84164349Y-109605667D01*
X84156907Y-109602963D01*
X84135175Y-109598693D01*
X84128430Y-109597174D01*
X84109969Y-109592479D01*
X84101314Y-109591551D01*
X84090472Y-109589908D01*
X83933405Y-109559045D01*
X83921276Y-109556029D01*
X83913658Y-109553728D01*
X83891788Y-109550671D01*
X83884938Y-109549520D01*
X83870715Y-109546726D01*
X83870713Y-109546726D01*
X83866307Y-109545860D01*
X83858122Y-109545436D01*
X83857566Y-109545407D01*
X83846648Y-109544363D01*
X83687210Y-109522081D01*
X83674954Y-109519745D01*
X83671871Y-109518997D01*
X83671867Y-109518996D01*
X83667144Y-109517851D01*
X83662297Y-109517445D01*
X83662294Y-109517445D01*
X83650196Y-109516433D01*
X83645196Y-109516015D01*
X83638269Y-109515241D01*
X83619539Y-109512624D01*
X83615056Y-109512639D01*
X83615055Y-109512639D01*
X83614501Y-109512641D01*
X83610713Y-109512654D01*
X83599798Y-109512216D01*
X83438206Y-109498698D01*
X83425863Y-109497048D01*
X83422691Y-109496463D01*
X83422687Y-109496463D01*
X83417895Y-109495579D01*
X83413024Y-109495443D01*
X83413022Y-109495443D01*
X83395948Y-109494967D01*
X83388976Y-109494579D01*
X83370185Y-109493007D01*
X83365713Y-109493270D01*
X83365709Y-109493270D01*
X83361301Y-109493529D01*
X83350395Y-109493698D01*
X83247085Y-109490820D01*
X83226665Y-109490251D01*
X83214332Y-109489299D01*
X83205683Y-109486920D01*
X83196710Y-109487064D01*
X83196709Y-109487064D01*
X83181235Y-109487313D01*
X83145911Y-109487880D01*
X83140405Y-109487847D01*
X83118785Y-109487245D01*
X83114104Y-109487783D01*
X83101751Y-109488590D01*
X83093891Y-109488716D01*
X83073133Y-109492291D01*
X83066150Y-109493293D01*
X83062621Y-109493698D01*
X83019747Y-109498623D01*
X83019743Y-109498624D01*
X83010830Y-109499648D01*
X83002560Y-109503133D01*
X82993877Y-109505412D01*
X82993689Y-109504695D01*
X82983065Y-109507800D01*
X80029217Y-110016461D01*
X77342246Y-110479165D01*
X77335882Y-110480086D01*
X77331122Y-110480275D01*
X77299598Y-110486474D01*
X77296713Y-110487006D01*
X77272555Y-110491165D01*
X77272547Y-110491167D01*
X77268139Y-110491926D01*
X77263881Y-110493303D01*
X77262928Y-110493538D01*
X77257095Y-110494830D01*
X77248286Y-110496563D01*
X77246465Y-110496921D01*
X77240112Y-110498002D01*
X77210171Y-110502314D01*
X77203809Y-110503066D01*
X77173815Y-110505839D01*
X77167441Y-110506266D01*
X77150646Y-110506963D01*
X77137411Y-110507512D01*
X77131046Y-110507615D01*
X77101062Y-110507342D01*
X77094726Y-110507124D01*
X77078524Y-110506159D01*
X77064832Y-110505343D01*
X77058514Y-110504806D01*
X77028787Y-110501527D01*
X77022511Y-110500675D01*
X76998333Y-110496770D01*
X76993005Y-110495909D01*
X76986778Y-110494742D01*
X76983623Y-110494068D01*
X76957523Y-110488493D01*
X76951384Y-110487019D01*
X76933190Y-110482166D01*
X76922451Y-110479301D01*
X76916373Y-110477515D01*
X76887865Y-110468352D01*
X76881867Y-110466256D01*
X76854615Y-110455954D01*
X76853817Y-110455653D01*
X76847921Y-110453251D01*
X76820362Y-110441208D01*
X76814582Y-110438506D01*
X76801260Y-110431862D01*
X76787604Y-110425051D01*
X76781952Y-110422051D01*
X76755549Y-110407162D01*
X76750052Y-110403875D01*
X76724266Y-110387546D01*
X76718933Y-110383975D01*
X76694034Y-110366363D01*
X76688904Y-110362534D01*
X76665112Y-110343811D01*
X76660181Y-110339723D01*
X76637450Y-110319884D01*
X76632768Y-110315584D01*
X76611141Y-110294685D01*
X76606699Y-110290169D01*
X76605996Y-110289417D01*
X76586198Y-110268248D01*
X76581986Y-110263509D01*
X76562685Y-110240663D01*
X76558716Y-110235719D01*
X76540562Y-110211896D01*
X76536864Y-110206781D01*
X76519962Y-110182123D01*
X76516528Y-110176834D01*
X76500856Y-110151306D01*
X76497691Y-110145848D01*
X76491215Y-110134004D01*
X76483334Y-110119590D01*
X76480437Y-110113960D01*
X76479378Y-110111766D01*
X76467398Y-110086967D01*
X76464797Y-110081216D01*
X76453122Y-110053572D01*
X76450801Y-110047661D01*
X76440504Y-110019370D01*
X76438473Y-110013317D01*
X76429613Y-109984510D01*
X76427893Y-109978368D01*
X76420463Y-109948964D01*
X76419051Y-109942707D01*
X76418303Y-109938949D01*
X76412025Y-109907407D01*
X76411267Y-109903229D01*
X76408735Y-109887792D01*
X76250303Y-108922053D01*
X76259013Y-108851594D01*
X76304435Y-108797028D01*
X76372146Y-108775681D01*
X76440649Y-108794330D01*
X76463191Y-108812018D01*
X76553181Y-108900915D01*
X76562682Y-108910301D01*
X76738556Y-109027817D01*
X76744078Y-109030144D01*
X76744080Y-109030145D01*
X76836018Y-109068887D01*
X76933479Y-109109956D01*
X76939346Y-109111198D01*
X76939347Y-109111198D01*
X77134543Y-109152510D01*
X77134545Y-109152510D01*
X77140417Y-109153753D01*
X77146417Y-109153863D01*
X77347373Y-109157547D01*
X77347374Y-109157547D01*
X77351903Y-109157630D01*
X77357427Y-109156932D01*
X78052650Y-109034346D01*
X78173398Y-109000973D01*
X78199579Y-108993737D01*
X78199581Y-108993736D01*
X78205360Y-108992139D01*
X78293650Y-108948408D01*
X78389536Y-108900915D01*
X78389541Y-108900912D01*
X78394905Y-108898255D01*
X78440058Y-108863920D01*
X78558504Y-108773852D01*
X78558507Y-108773849D01*
X78563277Y-108770222D01*
X78573911Y-108758350D01*
X78700401Y-108617127D01*
X78700401Y-108617126D01*
X78704401Y-108612661D01*
X78709099Y-108604828D01*
X78796420Y-108459213D01*
X78813185Y-108431256D01*
X78819672Y-108413482D01*
X78883647Y-108238188D01*
X78883648Y-108238183D01*
X78885703Y-108232553D01*
X78919339Y-108023723D01*
X78918656Y-108001347D01*
X78913063Y-107818295D01*
X78912880Y-107812300D01*
X78866558Y-107605913D01*
X78782045Y-107412008D01*
X78778656Y-107407068D01*
X78778654Y-107407064D01*
X78665783Y-107242529D01*
X78662390Y-107237583D01*
X78552610Y-107129137D01*
X78518206Y-107067035D01*
X78522837Y-106996190D01*
X78565036Y-106939095D01*
X78631403Y-106913878D01*
X78641160Y-106913500D01*
X82611852Y-106913500D01*
X82679973Y-106933502D01*
G37*
%TD.AperFunction*%
%TA.AperFunction,Conductor*%
G36*
X115414972Y-103568501D02*
G01*
X115435946Y-103585404D01*
X116919088Y-105068546D01*
X116931925Y-105083574D01*
X116939815Y-105094434D01*
X116944725Y-105098855D01*
X116944726Y-105098856D01*
X116989184Y-105138886D01*
X116993969Y-105143427D01*
X117008014Y-105157472D01*
X117010588Y-105159556D01*
X117010591Y-105159559D01*
X117023446Y-105169969D01*
X117028462Y-105174253D01*
X117072920Y-105214283D01*
X117072925Y-105214287D01*
X117077831Y-105218704D01*
X117085804Y-105223307D01*
X117089448Y-105225411D01*
X117105741Y-105236609D01*
X117116161Y-105245047D01*
X117175363Y-105275213D01*
X117181133Y-105278346D01*
X117232945Y-105308260D01*
X117232950Y-105308262D01*
X117238669Y-105311564D01*
X117244949Y-105313605D01*
X117244957Y-105313608D01*
X117251421Y-105315708D01*
X117269683Y-105323272D01*
X117275755Y-105326365D01*
X117281637Y-105329362D01*
X117329583Y-105342209D01*
X117345813Y-105346558D01*
X117352112Y-105348424D01*
X117415298Y-105368954D01*
X117421867Y-105369644D01*
X117421874Y-105369646D01*
X117428645Y-105370358D01*
X117448074Y-105373958D01*
X117461029Y-105377429D01*
X117467625Y-105377775D01*
X117467627Y-105377775D01*
X117500429Y-105379494D01*
X117527353Y-105380905D01*
X117533912Y-105381421D01*
X117553694Y-105383500D01*
X117573574Y-105383500D01*
X117580169Y-105383673D01*
X117639902Y-105386804D01*
X117639906Y-105386804D01*
X117646493Y-105387149D01*
X117659740Y-105385051D01*
X117679450Y-105383500D01*
X119481852Y-105383500D01*
X119549973Y-105403502D01*
X119570947Y-105420405D01*
X120719088Y-106568546D01*
X120731925Y-106583574D01*
X120739815Y-106594434D01*
X120744725Y-106598855D01*
X120744726Y-106598856D01*
X120789184Y-106638886D01*
X120793969Y-106643427D01*
X120808014Y-106657472D01*
X120810588Y-106659556D01*
X120810591Y-106659559D01*
X120823446Y-106669969D01*
X120828462Y-106674253D01*
X120872920Y-106714283D01*
X120872925Y-106714287D01*
X120877831Y-106718704D01*
X120889097Y-106725209D01*
X120889448Y-106725411D01*
X120905741Y-106736609D01*
X120916161Y-106745047D01*
X120975363Y-106775213D01*
X120981133Y-106778346D01*
X121032945Y-106808260D01*
X121032950Y-106808262D01*
X121038669Y-106811564D01*
X121044949Y-106813605D01*
X121044957Y-106813608D01*
X121051421Y-106815708D01*
X121069683Y-106823272D01*
X121075755Y-106826365D01*
X121081637Y-106829362D01*
X121088009Y-106831069D01*
X121088008Y-106831069D01*
X121145813Y-106846558D01*
X121152112Y-106848424D01*
X121215298Y-106868954D01*
X121215299Y-106868954D01*
X121215071Y-106869656D01*
X121273094Y-106900984D01*
X121307413Y-106963134D01*
X121302684Y-107033973D01*
X121260407Y-107091010D01*
X121194005Y-107116135D01*
X121184421Y-107116500D01*
X115329450Y-107116500D01*
X115309739Y-107114949D01*
X115303009Y-107113883D01*
X115296493Y-107112851D01*
X115289905Y-107113196D01*
X115289901Y-107113196D01*
X115230162Y-107116327D01*
X115223568Y-107116500D01*
X115203694Y-107116500D01*
X115200421Y-107116844D01*
X115183929Y-107118577D01*
X115177354Y-107119094D01*
X115117624Y-107122224D01*
X115117620Y-107122225D01*
X115111029Y-107122570D01*
X115098071Y-107126042D01*
X115078628Y-107129645D01*
X115065298Y-107131046D01*
X115002106Y-107151578D01*
X114995804Y-107153444D01*
X114942328Y-107167773D01*
X114931637Y-107170638D01*
X114925758Y-107173634D01*
X114925749Y-107173637D01*
X114919683Y-107176728D01*
X114901421Y-107184292D01*
X114894957Y-107186392D01*
X114894949Y-107186395D01*
X114888669Y-107188436D01*
X114882950Y-107191738D01*
X114882945Y-107191740D01*
X114831133Y-107221654D01*
X114825363Y-107224787D01*
X114766161Y-107254953D01*
X114761029Y-107259109D01*
X114755741Y-107263391D01*
X114739448Y-107274589D01*
X114727831Y-107281296D01*
X114722925Y-107285713D01*
X114722920Y-107285717D01*
X114678462Y-107325747D01*
X114673446Y-107330031D01*
X114660591Y-107340441D01*
X114658014Y-107342528D01*
X114643969Y-107356573D01*
X114639184Y-107361114D01*
X114609239Y-107388077D01*
X114589815Y-107405566D01*
X114581925Y-107416426D01*
X114569088Y-107431454D01*
X113033595Y-108966947D01*
X112971283Y-109000973D01*
X112900468Y-108995908D01*
X112843632Y-108953361D01*
X112818821Y-108886841D01*
X112818500Y-108877852D01*
X112818499Y-108007867D01*
X112818499Y-108004600D01*
X112807526Y-107898833D01*
X112761525Y-107760951D01*
X112753867Y-107737998D01*
X112753866Y-107737996D01*
X112751550Y-107731054D01*
X112658479Y-107580651D01*
X112635902Y-107558113D01*
X112538484Y-107460866D01*
X112533303Y-107455694D01*
X112413918Y-107382104D01*
X112388969Y-107366725D01*
X112388967Y-107366724D01*
X112382739Y-107362885D01*
X112233564Y-107313406D01*
X112221390Y-107309368D01*
X112221388Y-107309368D01*
X112214862Y-107307203D01*
X112208026Y-107306503D01*
X112208023Y-107306502D01*
X112164970Y-107302091D01*
X112110401Y-107296500D01*
X112097569Y-107296500D01*
X111507146Y-107296501D01*
X111439026Y-107276499D01*
X111392533Y-107222843D01*
X111382429Y-107152570D01*
X111411922Y-107087989D01*
X111418052Y-107081406D01*
X112418546Y-106080912D01*
X112433574Y-106068075D01*
X112444434Y-106060185D01*
X112488886Y-106010816D01*
X112493427Y-106006031D01*
X112507472Y-105991986D01*
X112515837Y-105981656D01*
X112519969Y-105976554D01*
X112524253Y-105971538D01*
X112564283Y-105927080D01*
X112564287Y-105927075D01*
X112568704Y-105922169D01*
X112575411Y-105910552D01*
X112586609Y-105894259D01*
X112590894Y-105888967D01*
X112595047Y-105883839D01*
X112625213Y-105824637D01*
X112628346Y-105818867D01*
X112658260Y-105767055D01*
X112658262Y-105767050D01*
X112661564Y-105761331D01*
X112663605Y-105755051D01*
X112663608Y-105755043D01*
X112665708Y-105748579D01*
X112673272Y-105730317D01*
X112676363Y-105724251D01*
X112676366Y-105724242D01*
X112679362Y-105718363D01*
X112696556Y-105654196D01*
X112698422Y-105647894D01*
X112718954Y-105584702D01*
X112720355Y-105571372D01*
X112723958Y-105551929D01*
X112727430Y-105538971D01*
X112730907Y-105472628D01*
X112731424Y-105466059D01*
X112733156Y-105449577D01*
X112733500Y-105446306D01*
X112733500Y-105426445D01*
X112733673Y-105419850D01*
X112736805Y-105360098D01*
X112736805Y-105360094D01*
X112737150Y-105353507D01*
X112735051Y-105340253D01*
X112733500Y-105320544D01*
X112733500Y-104908477D01*
X112753502Y-104840356D01*
X112770405Y-104819382D01*
X112817749Y-104772038D01*
X112892018Y-104665972D01*
X112940899Y-104596162D01*
X112940900Y-104596160D01*
X112944056Y-104591653D01*
X112946379Y-104586671D01*
X112946382Y-104586666D01*
X113034795Y-104397061D01*
X113037120Y-104392076D01*
X113094115Y-104179371D01*
X113113307Y-103960000D01*
X113094115Y-103740629D01*
X113092693Y-103735323D01*
X113092692Y-103735316D01*
X113085134Y-103707110D01*
X113086824Y-103636133D01*
X113126618Y-103577338D01*
X113191883Y-103549390D01*
X113206841Y-103548499D01*
X115346851Y-103548499D01*
X115414972Y-103568501D01*
G37*
%TD.AperFunction*%
%TA.AperFunction,Conductor*%
G36*
X114004941Y-82090614D02*
G01*
X114038982Y-82114854D01*
X118460217Y-86536037D01*
X118494242Y-86598349D01*
X118489178Y-86669165D01*
X118446632Y-86726001D01*
X118380111Y-86750812D01*
X118338511Y-86746840D01*
X118260048Y-86725816D01*
X118260046Y-86725816D01*
X118254733Y-86724392D01*
X118044078Y-86705962D01*
X117833423Y-86724392D01*
X117828110Y-86725816D01*
X117828108Y-86725816D01*
X117634478Y-86777699D01*
X117634476Y-86777700D01*
X117629168Y-86779122D01*
X117624187Y-86781444D01*
X117624186Y-86781445D01*
X117442501Y-86866166D01*
X117442498Y-86866168D01*
X117437520Y-86868489D01*
X117264302Y-86989777D01*
X117114777Y-87139302D01*
X116993489Y-87312520D01*
X116991168Y-87317498D01*
X116991166Y-87317501D01*
X116921496Y-87466909D01*
X116904122Y-87504168D01*
X116902700Y-87509476D01*
X116902699Y-87509478D01*
X116854275Y-87690198D01*
X116849392Y-87708423D01*
X116840182Y-87813687D01*
X116838443Y-87833568D01*
X116812579Y-87899686D01*
X116802017Y-87911681D01*
X115209103Y-89504595D01*
X115146791Y-89538621D01*
X115120008Y-89541500D01*
X109576347Y-89541500D01*
X109550150Y-89538747D01*
X109451944Y-89517872D01*
X109451939Y-89517872D01*
X109445487Y-89516500D01*
X109254513Y-89516500D01*
X109248061Y-89517872D01*
X109248056Y-89517872D01*
X109161113Y-89536353D01*
X109067712Y-89556206D01*
X109061682Y-89558891D01*
X109061681Y-89558891D01*
X108899278Y-89631197D01*
X108899276Y-89631198D01*
X108893248Y-89633882D01*
X108887907Y-89637762D01*
X108887906Y-89637763D01*
X108837843Y-89674136D01*
X108738747Y-89746134D01*
X108734326Y-89751044D01*
X108734325Y-89751045D01*
X108617691Y-89880581D01*
X108610960Y-89888056D01*
X108515473Y-90053444D01*
X108456458Y-90235072D01*
X108455768Y-90241633D01*
X108455768Y-90241635D01*
X108450176Y-90294842D01*
X108436496Y-90425000D01*
X108437186Y-90431565D01*
X108453141Y-90583365D01*
X108456458Y-90614928D01*
X108515473Y-90796556D01*
X108610960Y-90961944D01*
X108615378Y-90966851D01*
X108615379Y-90966852D01*
X108717375Y-91080130D01*
X108738747Y-91103866D01*
X108820215Y-91163056D01*
X108858839Y-91191118D01*
X108893248Y-91216118D01*
X108899276Y-91218802D01*
X108899278Y-91218803D01*
X109040182Y-91281537D01*
X109067712Y-91293794D01*
X109137712Y-91308673D01*
X109248056Y-91332128D01*
X109248061Y-91332128D01*
X109254513Y-91333500D01*
X109445487Y-91333500D01*
X109451939Y-91332128D01*
X109451944Y-91332128D01*
X109550150Y-91311253D01*
X109576347Y-91308500D01*
X115458699Y-91308500D01*
X115478411Y-91310051D01*
X115491663Y-91312150D01*
X115498250Y-91311805D01*
X115498254Y-91311805D01*
X115558006Y-91308673D01*
X115564601Y-91308500D01*
X115584462Y-91308500D01*
X115604225Y-91306423D01*
X115610784Y-91305907D01*
X115626583Y-91305079D01*
X115670533Y-91302776D01*
X115670537Y-91302775D01*
X115677127Y-91302430D01*
X115690085Y-91298958D01*
X115709528Y-91295355D01*
X115709951Y-91295311D01*
X115722858Y-91293954D01*
X115786050Y-91273422D01*
X115792352Y-91271556D01*
X115850141Y-91256071D01*
X115856519Y-91254362D01*
X115862398Y-91251366D01*
X115862407Y-91251363D01*
X115868473Y-91248272D01*
X115886735Y-91240708D01*
X115893199Y-91238608D01*
X115893207Y-91238605D01*
X115899487Y-91236564D01*
X115905206Y-91233262D01*
X115905211Y-91233260D01*
X115957023Y-91203346D01*
X115962793Y-91200213D01*
X116021995Y-91170047D01*
X116032415Y-91161609D01*
X116048708Y-91150411D01*
X116049059Y-91150209D01*
X116060325Y-91143704D01*
X116065231Y-91139287D01*
X116065236Y-91139283D01*
X116109694Y-91099253D01*
X116114710Y-91094969D01*
X116127565Y-91084559D01*
X116127568Y-91084556D01*
X116130142Y-91082472D01*
X116144187Y-91068427D01*
X116148972Y-91063886D01*
X116193430Y-91023856D01*
X116193431Y-91023855D01*
X116198341Y-91019434D01*
X116206231Y-91008574D01*
X116219068Y-90993546D01*
X116917772Y-90294842D01*
X116980084Y-90260816D01*
X117050899Y-90265881D01*
X117107735Y-90308428D01*
X117132546Y-90374948D01*
X117130067Y-90410351D01*
X117129368Y-90413610D01*
X117127203Y-90420138D01*
X117116500Y-90524599D01*
X117116501Y-91325400D01*
X117127474Y-91431167D01*
X117129658Y-91437713D01*
X117180730Y-91590792D01*
X117183450Y-91598946D01*
X117276521Y-91749349D01*
X117401697Y-91874306D01*
X117407925Y-91878145D01*
X117407930Y-91878149D01*
X117453234Y-91906074D01*
X117500728Y-91958845D01*
X117512152Y-92028917D01*
X117483878Y-92094041D01*
X117464956Y-92112417D01*
X117457080Y-92118604D01*
X117453148Y-92123135D01*
X117453145Y-92123138D01*
X117334554Y-92259802D01*
X117318448Y-92278363D01*
X117315448Y-92283549D01*
X117315445Y-92283553D01*
X117297096Y-92315271D01*
X117212527Y-92461454D01*
X117143139Y-92661271D01*
X117112787Y-92870604D01*
X117118715Y-92998676D01*
X117101884Y-93067649D01*
X117081945Y-93093597D01*
X114081454Y-96094088D01*
X114066426Y-96106925D01*
X114055566Y-96114815D01*
X114051145Y-96119725D01*
X114051144Y-96119726D01*
X114011114Y-96164184D01*
X114006573Y-96168969D01*
X113992528Y-96183014D01*
X113990444Y-96185588D01*
X113990441Y-96185591D01*
X113980031Y-96198446D01*
X113975747Y-96203462D01*
X113935717Y-96247920D01*
X113935713Y-96247925D01*
X113931296Y-96252831D01*
X113924791Y-96264097D01*
X113924589Y-96264448D01*
X113913391Y-96280741D01*
X113904953Y-96291161D01*
X113874787Y-96350363D01*
X113871654Y-96356133D01*
X113841740Y-96407945D01*
X113841738Y-96407950D01*
X113838436Y-96413669D01*
X113836395Y-96419949D01*
X113836392Y-96419957D01*
X113834292Y-96426421D01*
X113826728Y-96444683D01*
X113823637Y-96450749D01*
X113823634Y-96450758D01*
X113820638Y-96456637D01*
X113818929Y-96463015D01*
X113803444Y-96520804D01*
X113801578Y-96527106D01*
X113781046Y-96590298D01*
X113780356Y-96596866D01*
X113779645Y-96603628D01*
X113776042Y-96623071D01*
X113772570Y-96636029D01*
X113772225Y-96642619D01*
X113772224Y-96642623D01*
X113769093Y-96702367D01*
X113768577Y-96708931D01*
X113766500Y-96728694D01*
X113766500Y-96748555D01*
X113766327Y-96755150D01*
X113762850Y-96821493D01*
X113763882Y-96828007D01*
X113764949Y-96834744D01*
X113766500Y-96854456D01*
X113766500Y-97741852D01*
X113746498Y-97809973D01*
X113729595Y-97830947D01*
X111897606Y-99662936D01*
X111835294Y-99696962D01*
X111819491Y-99699362D01*
X111630629Y-99715885D01*
X111417924Y-99772880D01*
X111372763Y-99793939D01*
X111223334Y-99863618D01*
X111223329Y-99863621D01*
X111218347Y-99865944D01*
X111213840Y-99869100D01*
X111213838Y-99869101D01*
X111042473Y-99989092D01*
X111042470Y-99989094D01*
X111037962Y-99992251D01*
X110882251Y-100147962D01*
X110879094Y-100152470D01*
X110879092Y-100152473D01*
X110759101Y-100323838D01*
X110755944Y-100328347D01*
X110753621Y-100333329D01*
X110753618Y-100333334D01*
X110719571Y-100406350D01*
X110662880Y-100527924D01*
X110605885Y-100740629D01*
X110586693Y-100960000D01*
X110605885Y-101179371D01*
X110662880Y-101392076D01*
X110755944Y-101591653D01*
X110757222Y-101593479D01*
X110773724Y-101661491D01*
X110750506Y-101728583D01*
X110694700Y-101772472D01*
X110647867Y-101781499D01*
X110051553Y-101781499D01*
X109983432Y-101761497D01*
X109936939Y-101707841D01*
X109926835Y-101637567D01*
X109942436Y-101592495D01*
X109945946Y-101586416D01*
X110034326Y-101396887D01*
X110038072Y-101386595D01*
X110092196Y-101184599D01*
X110094099Y-101173804D01*
X110112326Y-100965475D01*
X110112326Y-100954525D01*
X110094099Y-100746196D01*
X110092196Y-100735401D01*
X110038072Y-100533405D01*
X110034326Y-100523113D01*
X109945946Y-100333583D01*
X109940466Y-100324093D01*
X109911589Y-100282851D01*
X109901113Y-100274477D01*
X109887666Y-100281545D01*
X109209210Y-100960000D01*
X108939095Y-101230116D01*
X108876783Y-101264141D01*
X108805967Y-101259076D01*
X108760905Y-101230115D01*
X108490790Y-100960000D01*
X107811613Y-100280824D01*
X107799839Y-100274394D01*
X107787824Y-100283690D01*
X107759534Y-100324093D01*
X107754054Y-100333583D01*
X107665674Y-100523113D01*
X107661928Y-100533405D01*
X107607804Y-100735401D01*
X107605901Y-100746196D01*
X107587674Y-100954525D01*
X107587674Y-100965475D01*
X107603786Y-101149635D01*
X107589797Y-101219240D01*
X107540397Y-101270233D01*
X107471271Y-101286423D01*
X107404366Y-101262671D01*
X107389170Y-101249712D01*
X107147064Y-101007606D01*
X107113038Y-100945294D01*
X107110638Y-100929492D01*
X107101945Y-100830131D01*
X107094115Y-100740629D01*
X107037120Y-100527924D01*
X106980429Y-100406350D01*
X106946382Y-100333334D01*
X106946379Y-100333329D01*
X106944056Y-100328347D01*
X106940899Y-100323838D01*
X106820908Y-100152473D01*
X106820906Y-100152470D01*
X106817749Y-100147962D01*
X106662038Y-99992251D01*
X106654107Y-99986697D01*
X106558472Y-99919733D01*
X106542982Y-99908887D01*
X108164477Y-99908887D01*
X108171545Y-99922334D01*
X108837189Y-100587979D01*
X108851132Y-100595592D01*
X108852966Y-100595461D01*
X108859580Y-100591210D01*
X109529180Y-99921609D01*
X109535607Y-99909839D01*
X109526313Y-99897825D01*
X109485912Y-99869536D01*
X109476416Y-99864053D01*
X109286887Y-99775674D01*
X109276595Y-99771928D01*
X109074599Y-99717804D01*
X109063804Y-99715901D01*
X108855475Y-99697674D01*
X108844525Y-99697674D01*
X108636196Y-99715901D01*
X108625401Y-99717804D01*
X108423405Y-99771928D01*
X108413113Y-99775674D01*
X108223583Y-99864054D01*
X108214093Y-99869534D01*
X108172851Y-99898411D01*
X108164477Y-99908887D01*
X106542982Y-99908887D01*
X106481654Y-99865944D01*
X106282076Y-99772880D01*
X106069371Y-99715885D01*
X105850000Y-99696693D01*
X105630629Y-99715885D01*
X105417924Y-99772880D01*
X105372763Y-99793939D01*
X105223334Y-99863618D01*
X105223329Y-99863621D01*
X105218347Y-99865944D01*
X105213840Y-99869100D01*
X105213838Y-99869101D01*
X105042473Y-99989092D01*
X105042470Y-99989094D01*
X105037962Y-99992251D01*
X104882251Y-100147962D01*
X104879094Y-100152470D01*
X104879092Y-100152473D01*
X104759101Y-100323838D01*
X104755944Y-100328347D01*
X104753621Y-100333329D01*
X104753618Y-100333334D01*
X104719571Y-100406350D01*
X104662880Y-100527924D01*
X104605885Y-100740629D01*
X104586693Y-100960000D01*
X104587172Y-100965475D01*
X104587172Y-100965484D01*
X104587513Y-100969384D01*
X104573521Y-101038988D01*
X104551087Y-101069454D01*
X104299592Y-101320949D01*
X104237280Y-101354975D01*
X104166465Y-101349910D01*
X104109629Y-101307363D01*
X104084818Y-101240843D01*
X104088791Y-101199239D01*
X104092692Y-101184681D01*
X104094115Y-101179371D01*
X104113307Y-100960000D01*
X104094115Y-100740629D01*
X104037120Y-100527924D01*
X103980429Y-100406350D01*
X103946382Y-100333334D01*
X103946379Y-100333329D01*
X103944056Y-100328347D01*
X103940899Y-100323838D01*
X103820908Y-100152473D01*
X103820906Y-100152470D01*
X103817749Y-100147962D01*
X103662038Y-99992251D01*
X103654107Y-99986697D01*
X103558472Y-99919733D01*
X103481654Y-99865944D01*
X103282076Y-99772880D01*
X103069371Y-99715885D01*
X102850000Y-99696693D01*
X102645970Y-99714543D01*
X102576366Y-99700554D01*
X102525373Y-99651154D01*
X102508989Y-99589022D01*
X102508989Y-96569733D01*
X107697822Y-96569733D01*
X107697975Y-96574121D01*
X107697975Y-96574127D01*
X107706614Y-96821493D01*
X107707625Y-96850458D01*
X107708387Y-96854781D01*
X107708388Y-96854788D01*
X107732164Y-96989624D01*
X107756402Y-97127087D01*
X107843203Y-97394235D01*
X107845131Y-97398188D01*
X107845133Y-97398193D01*
X107880228Y-97470148D01*
X107966340Y-97646702D01*
X107968795Y-97650341D01*
X107968798Y-97650347D01*
X108030519Y-97741852D01*
X108123415Y-97879576D01*
X108311371Y-98088322D01*
X108526550Y-98268879D01*
X108764764Y-98417731D01*
X108861274Y-98460700D01*
X108997453Y-98521331D01*
X109021375Y-98531982D01*
X109291390Y-98609407D01*
X109295740Y-98610018D01*
X109295743Y-98610019D01*
X109398690Y-98624487D01*
X109569552Y-98648500D01*
X109780146Y-98648500D01*
X109782332Y-98648347D01*
X109782336Y-98648347D01*
X109985827Y-98634118D01*
X109985832Y-98634117D01*
X109990212Y-98633811D01*
X110264970Y-98575409D01*
X110269099Y-98573906D01*
X110269103Y-98573905D01*
X110524781Y-98480846D01*
X110524785Y-98480844D01*
X110528926Y-98479337D01*
X110776942Y-98347464D01*
X110780744Y-98344702D01*
X111000629Y-98184947D01*
X111000632Y-98184944D01*
X111004192Y-98182358D01*
X111024515Y-98162733D01*
X111104947Y-98085060D01*
X111206252Y-97987231D01*
X111379188Y-97765882D01*
X111381384Y-97762078D01*
X111381389Y-97762071D01*
X111517435Y-97526431D01*
X111519636Y-97522619D01*
X111624862Y-97262176D01*
X111659057Y-97125027D01*
X111691753Y-96993893D01*
X111691754Y-96993888D01*
X111692817Y-96989624D01*
X111707024Y-96854456D01*
X111721719Y-96714636D01*
X111721719Y-96714633D01*
X111722178Y-96710267D01*
X111722023Y-96705829D01*
X111712529Y-96433939D01*
X111712528Y-96433933D01*
X111712375Y-96429542D01*
X111709577Y-96413669D01*
X111669360Y-96185591D01*
X111663598Y-96152913D01*
X111576797Y-95885765D01*
X111568686Y-95869134D01*
X111473045Y-95673043D01*
X111453660Y-95633298D01*
X111451205Y-95629659D01*
X111451202Y-95629653D01*
X111342867Y-95469040D01*
X111296585Y-95400424D01*
X111108629Y-95191678D01*
X111098278Y-95182992D01*
X110958219Y-95065469D01*
X110893450Y-95011121D01*
X110655236Y-94862269D01*
X110398625Y-94748018D01*
X110182585Y-94686070D01*
X110132837Y-94671805D01*
X110132836Y-94671805D01*
X110128610Y-94670593D01*
X110124260Y-94669982D01*
X110124257Y-94669981D01*
X110021310Y-94655513D01*
X109850448Y-94631500D01*
X109639854Y-94631500D01*
X109637668Y-94631653D01*
X109637664Y-94631653D01*
X109434173Y-94645882D01*
X109434168Y-94645883D01*
X109429788Y-94646189D01*
X109155030Y-94704591D01*
X109150901Y-94706094D01*
X109150897Y-94706095D01*
X108895219Y-94799154D01*
X108895215Y-94799156D01*
X108891074Y-94800663D01*
X108643058Y-94932536D01*
X108639499Y-94935122D01*
X108639497Y-94935123D01*
X108460091Y-95065469D01*
X108415808Y-95097642D01*
X108412644Y-95100698D01*
X108412641Y-95100700D01*
X108331559Y-95179000D01*
X108213748Y-95292769D01*
X108105620Y-95431167D01*
X108045140Y-95508579D01*
X108040812Y-95514118D01*
X108038616Y-95517922D01*
X108038611Y-95517929D01*
X107933379Y-95700198D01*
X107900364Y-95757381D01*
X107795138Y-96017824D01*
X107794073Y-96022097D01*
X107794072Y-96022099D01*
X107728267Y-96286029D01*
X107727183Y-96290376D01*
X107726724Y-96294744D01*
X107726723Y-96294749D01*
X107702630Y-96523988D01*
X107697822Y-96569733D01*
X102508989Y-96569733D01*
X102508989Y-95117659D01*
X102528991Y-95049538D01*
X102545894Y-95028564D01*
X113224466Y-84349991D01*
X113239501Y-84337150D01*
X113245008Y-84333149D01*
X113245014Y-84333144D01*
X113250358Y-84329261D01*
X113271292Y-84306012D01*
X113293002Y-84281900D01*
X113294829Y-84279871D01*
X113299360Y-84275097D01*
X113313396Y-84261061D01*
X113315470Y-84258500D01*
X113325890Y-84245633D01*
X113330170Y-84240623D01*
X113370208Y-84196155D01*
X113370212Y-84196150D01*
X113374628Y-84191245D01*
X113378571Y-84184417D01*
X113381334Y-84179630D01*
X113392534Y-84163334D01*
X113393143Y-84162582D01*
X113400971Y-84152915D01*
X113431137Y-84093713D01*
X113434270Y-84087943D01*
X113464184Y-84036131D01*
X113464186Y-84036126D01*
X113467488Y-84030407D01*
X113469529Y-84024127D01*
X113469532Y-84024119D01*
X113471632Y-84017655D01*
X113479196Y-83999393D01*
X113482287Y-83993327D01*
X113482290Y-83993318D01*
X113485286Y-83987439D01*
X113502480Y-83923272D01*
X113504346Y-83916970D01*
X113524878Y-83853778D01*
X113526279Y-83840448D01*
X113529882Y-83821005D01*
X113533354Y-83808047D01*
X113533868Y-83798254D01*
X113536831Y-83741709D01*
X113537348Y-83735135D01*
X113538152Y-83727485D01*
X113539424Y-83715382D01*
X113539424Y-83695521D01*
X113539597Y-83688926D01*
X113542729Y-83629174D01*
X113542729Y-83629170D01*
X113543074Y-83622583D01*
X113540975Y-83609329D01*
X113539424Y-83589620D01*
X113539424Y-83408691D01*
X113559426Y-83340570D01*
X113576329Y-83319596D01*
X113585225Y-83310700D01*
X113706513Y-83137482D01*
X113709818Y-83130396D01*
X113793557Y-82950816D01*
X113793558Y-82950815D01*
X113795880Y-82945834D01*
X113800327Y-82929240D01*
X113849186Y-82746894D01*
X113849186Y-82746892D01*
X113850610Y-82741579D01*
X113869040Y-82530924D01*
X113850610Y-82320269D01*
X113849187Y-82314958D01*
X113849185Y-82314947D01*
X113828181Y-82236562D01*
X113829870Y-82165585D01*
X113869663Y-82106789D01*
X113934928Y-82078841D01*
X114004941Y-82090614D01*
G37*
%TD.AperFunction*%
%TA.AperFunction,Conductor*%
G36*
X87404516Y-81119933D02*
G01*
X87410521Y-81120219D01*
X87428235Y-81121489D01*
X87434222Y-81122062D01*
X87451824Y-81124173D01*
X87457772Y-81125031D01*
X87475230Y-81127979D01*
X87481145Y-81129124D01*
X87481169Y-81129129D01*
X87498418Y-81132901D01*
X87504302Y-81134337D01*
X87521350Y-81138937D01*
X87527187Y-81140665D01*
X87543981Y-81146083D01*
X87549774Y-81148109D01*
X87566249Y-81154325D01*
X87571969Y-81156645D01*
X87588128Y-81163664D01*
X87593763Y-81166278D01*
X87609653Y-81174133D01*
X87615166Y-81177031D01*
X87630707Y-81185696D01*
X87636125Y-81188897D01*
X87651353Y-81198414D01*
X87656618Y-81201890D01*
X87671538Y-81212288D01*
X87676645Y-81216042D01*
X87691244Y-81227348D01*
X87696175Y-81231370D01*
X87710497Y-81243667D01*
X87715231Y-81247944D01*
X87735193Y-81266921D01*
X87737434Y-81269106D01*
X90074713Y-83604286D01*
X90082904Y-83613301D01*
X90088487Y-83620079D01*
X90104412Y-83634253D01*
X90109672Y-83639214D01*
X90122549Y-83652079D01*
X90130205Y-83657812D01*
X90138442Y-83664541D01*
X90152742Y-83677269D01*
X90161426Y-83685785D01*
X90167406Y-83692245D01*
X90171219Y-83695263D01*
X90171230Y-83695273D01*
X90184070Y-83705435D01*
X90189642Y-83710112D01*
X90190211Y-83710618D01*
X90203205Y-83722183D01*
X90206935Y-83724654D01*
X90206938Y-83724656D01*
X90211209Y-83727485D01*
X90219820Y-83733728D01*
X90308338Y-83803784D01*
X90312205Y-83806971D01*
X90329310Y-83821651D01*
X90333051Y-83824862D01*
X90337187Y-83827425D01*
X90340325Y-83829723D01*
X90340422Y-83829581D01*
X90344124Y-83832105D01*
X90347643Y-83834890D01*
X90351521Y-83837148D01*
X90351524Y-83837150D01*
X90372379Y-83849293D01*
X90375352Y-83851079D01*
X90536381Y-83950877D01*
X90595376Y-83987439D01*
X90613010Y-83998368D01*
X90617273Y-84001131D01*
X90639807Y-84016395D01*
X90644199Y-84018467D01*
X90647792Y-84020516D01*
X90647931Y-84020591D01*
X90648012Y-84020436D01*
X90651989Y-84022525D01*
X90655793Y-84024883D01*
X90681804Y-84036268D01*
X90684972Y-84037708D01*
X90773844Y-84079646D01*
X90802181Y-84093018D01*
X90802691Y-84093260D01*
X90805163Y-84094440D01*
X90844970Y-84113444D01*
X90875714Y-84122650D01*
X90876293Y-84122826D01*
X90948650Y-84145103D01*
X90950390Y-84145128D01*
X90952020Y-84145499D01*
X91303143Y-84250637D01*
X91303676Y-84250798D01*
X91347324Y-84264106D01*
X91352138Y-84264792D01*
X91352139Y-84264792D01*
X91378668Y-84268571D01*
X91379563Y-84268702D01*
X91420546Y-84274841D01*
X91454830Y-84279976D01*
X91456443Y-84279755D01*
X91458004Y-84279871D01*
X91475893Y-84282419D01*
X91524953Y-84289407D01*
X91525078Y-84289425D01*
X91570687Y-84296148D01*
X91575548Y-84296109D01*
X91575555Y-84296109D01*
X91602370Y-84295891D01*
X91603296Y-84295887D01*
X91674660Y-84295833D01*
X91674667Y-84295833D01*
X91679287Y-84295829D01*
X91680881Y-84295361D01*
X91682466Y-84295241D01*
X91904050Y-84293444D01*
X92021191Y-84292494D01*
X92042002Y-84294054D01*
X92053199Y-84295835D01*
X92053202Y-84295835D01*
X92062068Y-84297245D01*
X92099503Y-84292473D01*
X92105451Y-84291858D01*
X92106117Y-84291805D01*
X92110595Y-84291769D01*
X92115021Y-84291099D01*
X92115028Y-84291098D01*
X92138726Y-84287508D01*
X92141663Y-84287099D01*
X92155124Y-84285383D01*
X92172977Y-84283107D01*
X92177480Y-84281806D01*
X92183611Y-84280708D01*
X92209164Y-84276837D01*
X92209165Y-84276837D01*
X92218035Y-84275493D01*
X92226171Y-84271714D01*
X92226174Y-84271713D01*
X92240021Y-84265281D01*
X92258125Y-84258508D01*
X92772854Y-84109798D01*
X92777092Y-84108653D01*
X92800629Y-84102736D01*
X92800638Y-84102733D01*
X92805351Y-84101548D01*
X92809834Y-84099648D01*
X92810303Y-84099491D01*
X92814505Y-84097830D01*
X92815337Y-84097524D01*
X92819644Y-84096280D01*
X92847486Y-84083730D01*
X92850104Y-84082586D01*
X93723403Y-83712554D01*
X93729734Y-83710071D01*
X94020351Y-83605042D01*
X94091214Y-83600700D01*
X94153176Y-83635359D01*
X94186563Y-83698016D01*
X94188696Y-83712559D01*
X94191020Y-83739121D01*
X94191500Y-83750103D01*
X94191500Y-85627960D01*
X94190000Y-85647344D01*
X94187283Y-85664795D01*
X94187228Y-85669262D01*
X94187228Y-85669267D01*
X94186572Y-85722933D01*
X94185503Y-85810438D01*
X94186063Y-85814723D01*
X94186271Y-85821760D01*
X94186271Y-86211047D01*
X94186273Y-86211047D01*
X94186682Y-86214014D01*
X94185504Y-86310438D01*
X94204074Y-86452452D01*
X94243245Y-86592748D01*
X94300928Y-86723841D01*
X94377897Y-86847496D01*
X94380779Y-86850924D01*
X94380780Y-86850926D01*
X94422347Y-86900376D01*
X94470054Y-86957131D01*
X94578639Y-87054218D01*
X94582372Y-87056703D01*
X94582376Y-87056706D01*
X94694135Y-87131099D01*
X94697864Y-87133581D01*
X94829333Y-87196289D01*
X94833612Y-87197626D01*
X94833615Y-87197627D01*
X94892939Y-87216161D01*
X94966039Y-87238999D01*
X94970463Y-87239716D01*
X94970465Y-87239716D01*
X95012300Y-87246492D01*
X95109821Y-87262287D01*
X95176782Y-87263514D01*
X95248539Y-87264830D01*
X95248541Y-87264830D01*
X95253020Y-87264912D01*
X95257465Y-87264359D01*
X95261944Y-87264122D01*
X95261951Y-87264249D01*
X95270339Y-87263729D01*
X95490500Y-87263729D01*
X95558621Y-87283731D01*
X95605114Y-87337387D01*
X95616500Y-87389729D01*
X95616500Y-88134198D01*
X95610333Y-88173133D01*
X95606451Y-88185082D01*
X95605761Y-88191648D01*
X95605760Y-88191652D01*
X95590277Y-88338970D01*
X95586489Y-88375010D01*
X95587179Y-88381575D01*
X95593618Y-88442834D01*
X95606451Y-88564938D01*
X95665466Y-88746566D01*
X95668769Y-88752288D01*
X95668770Y-88752289D01*
X95697027Y-88801232D01*
X95760953Y-88911954D01*
X95765371Y-88916861D01*
X95765372Y-88916862D01*
X95844766Y-89005038D01*
X95888740Y-89053876D01*
X95971661Y-89114122D01*
X96036058Y-89160909D01*
X96043241Y-89166128D01*
X96049269Y-89168812D01*
X96049271Y-89168813D01*
X96211674Y-89241119D01*
X96217705Y-89243804D01*
X96311105Y-89263657D01*
X96398049Y-89282138D01*
X96398054Y-89282138D01*
X96404506Y-89283510D01*
X96595480Y-89283510D01*
X96601932Y-89282138D01*
X96601937Y-89282138D01*
X96688881Y-89263657D01*
X96782281Y-89243804D01*
X96788312Y-89241119D01*
X96950715Y-89168813D01*
X96950717Y-89168812D01*
X96956745Y-89166128D01*
X96963929Y-89160909D01*
X97028325Y-89114122D01*
X97111246Y-89053876D01*
X97155220Y-89005038D01*
X97234614Y-88916862D01*
X97234615Y-88916861D01*
X97239033Y-88911954D01*
X97302959Y-88801232D01*
X97331216Y-88752289D01*
X97331217Y-88752288D01*
X97334520Y-88746566D01*
X97393535Y-88564938D01*
X97406369Y-88442834D01*
X97412807Y-88381575D01*
X97413497Y-88375010D01*
X97409709Y-88338970D01*
X97394226Y-88191652D01*
X97394225Y-88191648D01*
X97393535Y-88185082D01*
X97389667Y-88173177D01*
X97383500Y-88134241D01*
X97383500Y-87389729D01*
X97403502Y-87321608D01*
X97457158Y-87275115D01*
X97509500Y-87263729D01*
X97762081Y-87263729D01*
X97830202Y-87283731D01*
X97851176Y-87300634D01*
X98579595Y-88029053D01*
X98613621Y-88091365D01*
X98616500Y-88118148D01*
X98616500Y-90159210D01*
X98610333Y-90198146D01*
X98606458Y-90210072D01*
X98605768Y-90216633D01*
X98605768Y-90216635D01*
X98600592Y-90265881D01*
X98586496Y-90400000D01*
X98587186Y-90406565D01*
X98602484Y-90552114D01*
X98606458Y-90589928D01*
X98665473Y-90771556D01*
X98760960Y-90936944D01*
X98765378Y-90941851D01*
X98765379Y-90941852D01*
X98818241Y-91000561D01*
X98888747Y-91078866D01*
X98982531Y-91147004D01*
X99032064Y-91182992D01*
X99043248Y-91191118D01*
X99049276Y-91193802D01*
X99049278Y-91193803D01*
X99211681Y-91266109D01*
X99217712Y-91268794D01*
X99311113Y-91288647D01*
X99398056Y-91307128D01*
X99398061Y-91307128D01*
X99404513Y-91308500D01*
X99595487Y-91308500D01*
X99601939Y-91307128D01*
X99601944Y-91307128D01*
X99688887Y-91288647D01*
X99782288Y-91268794D01*
X99788319Y-91266109D01*
X99950722Y-91193803D01*
X99950724Y-91193802D01*
X99956752Y-91191118D01*
X99967937Y-91182992D01*
X100017469Y-91147004D01*
X100111253Y-91078866D01*
X100181759Y-91000561D01*
X100234621Y-90941852D01*
X100234622Y-90941851D01*
X100239040Y-90936944D01*
X100334527Y-90771556D01*
X100393542Y-90589928D01*
X100397517Y-90552114D01*
X100412814Y-90406565D01*
X100413504Y-90400000D01*
X100399408Y-90265881D01*
X100394232Y-90216635D01*
X100394232Y-90216633D01*
X100393542Y-90210072D01*
X100389667Y-90198146D01*
X100383500Y-90159210D01*
X100383500Y-87779457D01*
X100385051Y-87759745D01*
X100386118Y-87753008D01*
X100387150Y-87746493D01*
X100384432Y-87694621D01*
X100383673Y-87680150D01*
X100383500Y-87673555D01*
X100383500Y-87653694D01*
X100381423Y-87633931D01*
X100380907Y-87627367D01*
X100380764Y-87624628D01*
X100377430Y-87561029D01*
X100373958Y-87548071D01*
X100370355Y-87528628D01*
X100369644Y-87521866D01*
X100368954Y-87515298D01*
X100348422Y-87452106D01*
X100346556Y-87445804D01*
X100331071Y-87388015D01*
X100329362Y-87381637D01*
X100326366Y-87375758D01*
X100326363Y-87375749D01*
X100323272Y-87369683D01*
X100315708Y-87351421D01*
X100313608Y-87344957D01*
X100313605Y-87344949D01*
X100311564Y-87338669D01*
X100308262Y-87332950D01*
X100308260Y-87332945D01*
X100278346Y-87281133D01*
X100275213Y-87275363D01*
X100245047Y-87216161D01*
X100236609Y-87205741D01*
X100225411Y-87189448D01*
X100225209Y-87189097D01*
X100218704Y-87177831D01*
X100214287Y-87172925D01*
X100214283Y-87172920D01*
X100174253Y-87128462D01*
X100169969Y-87123446D01*
X100159559Y-87110591D01*
X100159556Y-87110588D01*
X100157472Y-87108014D01*
X100143427Y-87093969D01*
X100138886Y-87089184D01*
X100098856Y-87044726D01*
X100098855Y-87044725D01*
X100094434Y-87039815D01*
X100083574Y-87031925D01*
X100068546Y-87019088D01*
X98853301Y-85803843D01*
X98819275Y-85741531D01*
X98816662Y-85722933D01*
X98813841Y-85679592D01*
X98813840Y-85679582D01*
X98813683Y-85677171D01*
X98809941Y-85651039D01*
X98794016Y-85539839D01*
X98794015Y-85539833D01*
X98793379Y-85535394D01*
X98787456Y-85515137D01*
X98753755Y-85399892D01*
X98752497Y-85395590D01*
X98693217Y-85265211D01*
X98690805Y-85261440D01*
X98690801Y-85261432D01*
X98617157Y-85146279D01*
X98617156Y-85146278D01*
X98614742Y-85142503D01*
X98521252Y-85034002D01*
X98411489Y-84938250D01*
X98291304Y-84860350D01*
X98159076Y-84799252D01*
X98090467Y-84778734D01*
X98026156Y-84759501D01*
X98026151Y-84759500D01*
X98021858Y-84758216D01*
X98017426Y-84757554D01*
X98017423Y-84757553D01*
X97882235Y-84737350D01*
X97882232Y-84737350D01*
X97877804Y-84736688D01*
X97803145Y-84736232D01*
X97739055Y-84735840D01*
X97739050Y-84735840D01*
X97734583Y-84735813D01*
X97732139Y-84736148D01*
X97728344Y-84736271D01*
X97250000Y-84736271D01*
X97244170Y-84736688D01*
X97183625Y-84741018D01*
X97183623Y-84741018D01*
X97176889Y-84741500D01*
X97167011Y-84744400D01*
X97164577Y-84745115D01*
X97110504Y-84746526D01*
X97110316Y-84748255D01*
X97051531Y-84741869D01*
X97048134Y-84741500D01*
X96334500Y-84741500D01*
X96266379Y-84721498D01*
X96219886Y-84667842D01*
X96208500Y-84615500D01*
X96208500Y-83761846D01*
X96209237Y-83748238D01*
X96212659Y-83716742D01*
X96212659Y-83716738D01*
X96213324Y-83710617D01*
X96210931Y-83683263D01*
X96208950Y-83660615D01*
X96208621Y-83655790D01*
X96208500Y-83653319D01*
X96208500Y-83650237D01*
X96206297Y-83627769D01*
X96204309Y-83607495D01*
X96204187Y-83606180D01*
X96199550Y-83553179D01*
X96196087Y-83513593D01*
X96194600Y-83508474D01*
X96194080Y-83503173D01*
X96167199Y-83414139D01*
X96166864Y-83413006D01*
X96142627Y-83329584D01*
X96142625Y-83329580D01*
X96140908Y-83323669D01*
X96138457Y-83318940D01*
X96136916Y-83313837D01*
X96093230Y-83231675D01*
X96092683Y-83230633D01*
X96050221Y-83148713D01*
X96036630Y-83079029D01*
X96062872Y-83013060D01*
X96120613Y-82971750D01*
X96132205Y-82968324D01*
X96415593Y-82899144D01*
X96422169Y-82897723D01*
X97331742Y-82726535D01*
X97338367Y-82725470D01*
X98253919Y-82603193D01*
X98260578Y-82602483D01*
X98451600Y-82587242D01*
X99180149Y-82529114D01*
X99186803Y-82528761D01*
X99686302Y-82515506D01*
X100108372Y-82504306D01*
X100115056Y-82504306D01*
X100558403Y-82516071D01*
X101036616Y-82528762D01*
X101043266Y-82529115D01*
X101291446Y-82548917D01*
X101578887Y-82571851D01*
X101645202Y-82597208D01*
X101687280Y-82654391D01*
X101691762Y-82725246D01*
X101657226Y-82787277D01*
X101627630Y-82808909D01*
X101547596Y-82851106D01*
X101547593Y-82851108D01*
X101542142Y-82853982D01*
X101537356Y-82857858D01*
X101537354Y-82857859D01*
X101423890Y-82949741D01*
X101388441Y-82978447D01*
X101384496Y-82983182D01*
X101270469Y-83120042D01*
X101261842Y-83130396D01*
X101167166Y-83304041D01*
X101159091Y-83329810D01*
X101117164Y-83463600D01*
X101108023Y-83492768D01*
X101107358Y-83498891D01*
X101107357Y-83498895D01*
X101087982Y-83677256D01*
X101086664Y-83689388D01*
X101103901Y-83886413D01*
X101122630Y-83950877D01*
X101136497Y-83998609D01*
X101141500Y-84033762D01*
X101141500Y-85627960D01*
X101140000Y-85647344D01*
X101137283Y-85664795D01*
X101137228Y-85669262D01*
X101137228Y-85669267D01*
X101136572Y-85722933D01*
X101135503Y-85810438D01*
X101136063Y-85814723D01*
X101136271Y-85821760D01*
X101136271Y-86211047D01*
X101136273Y-86211047D01*
X101136682Y-86214014D01*
X101135504Y-86310438D01*
X101154074Y-86452452D01*
X101193245Y-86592748D01*
X101250928Y-86723841D01*
X101327897Y-86847496D01*
X101330779Y-86850924D01*
X101330780Y-86850926D01*
X101372347Y-86900376D01*
X101420054Y-86957131D01*
X101528639Y-87054218D01*
X101532372Y-87056703D01*
X101532376Y-87056706D01*
X101644135Y-87131099D01*
X101647864Y-87133581D01*
X101779333Y-87196289D01*
X101783612Y-87197626D01*
X101783615Y-87197627D01*
X101842939Y-87216161D01*
X101916039Y-87238999D01*
X101920463Y-87239716D01*
X101920465Y-87239716D01*
X101962300Y-87246492D01*
X102059821Y-87262287D01*
X102126782Y-87263514D01*
X102198539Y-87264830D01*
X102198541Y-87264830D01*
X102203020Y-87264912D01*
X102207465Y-87264359D01*
X102211944Y-87264122D01*
X102211951Y-87264249D01*
X102220339Y-87263729D01*
X102256024Y-87263729D01*
X102324145Y-87283731D01*
X102370638Y-87337387D01*
X102380742Y-87407661D01*
X102351248Y-87472241D01*
X102345119Y-87478824D01*
X101181454Y-88642489D01*
X101166426Y-88655326D01*
X101155566Y-88663216D01*
X101151145Y-88668126D01*
X101151144Y-88668127D01*
X101111114Y-88712585D01*
X101106573Y-88717370D01*
X101092528Y-88731415D01*
X101090444Y-88733989D01*
X101090441Y-88733992D01*
X101080031Y-88746847D01*
X101075747Y-88751863D01*
X101035717Y-88796321D01*
X101035713Y-88796326D01*
X101031296Y-88801232D01*
X101024791Y-88812498D01*
X101024589Y-88812849D01*
X101013391Y-88829142D01*
X101004953Y-88839562D01*
X100974787Y-88898764D01*
X100971654Y-88904534D01*
X100941740Y-88956346D01*
X100941738Y-88956351D01*
X100938436Y-88962070D01*
X100936395Y-88968350D01*
X100936392Y-88968358D01*
X100934292Y-88974822D01*
X100926728Y-88993084D01*
X100923637Y-88999150D01*
X100923634Y-88999159D01*
X100920638Y-89005038D01*
X100918929Y-89011416D01*
X100903444Y-89069205D01*
X100901578Y-89075507D01*
X100881046Y-89138699D01*
X100879938Y-89149246D01*
X100879645Y-89152029D01*
X100876042Y-89171472D01*
X100872570Y-89184430D01*
X100872225Y-89191020D01*
X100872224Y-89191024D01*
X100869093Y-89250768D01*
X100868577Y-89257332D01*
X100866500Y-89277095D01*
X100866500Y-89296956D01*
X100866327Y-89303551D01*
X100862850Y-89369894D01*
X100863882Y-89376408D01*
X100864949Y-89383145D01*
X100866500Y-89402857D01*
X100866500Y-90809210D01*
X100860333Y-90848146D01*
X100856458Y-90860072D01*
X100855768Y-90866633D01*
X100855768Y-90866635D01*
X100847863Y-90941852D01*
X100836496Y-91050000D01*
X100837186Y-91056565D01*
X100853548Y-91212237D01*
X100856458Y-91239928D01*
X100915473Y-91421556D01*
X101010960Y-91586944D01*
X101015378Y-91591851D01*
X101015379Y-91591852D01*
X101026289Y-91603969D01*
X101138747Y-91728866D01*
X101168788Y-91750692D01*
X101212140Y-91806914D01*
X101218215Y-91877650D01*
X101183820Y-91941722D01*
X99894455Y-93231087D01*
X99879422Y-93243927D01*
X99738747Y-93346134D01*
X99734326Y-93351044D01*
X99734325Y-93351045D01*
X99640806Y-93454909D01*
X99610960Y-93488056D01*
X99607659Y-93493774D01*
X99518776Y-93647722D01*
X99518775Y-93647725D01*
X99517136Y-93650564D01*
X99517135Y-93650565D01*
X99515473Y-93653444D01*
X99514947Y-93653140D01*
X99471945Y-93703734D01*
X99404019Y-93724385D01*
X99335710Y-93705034D01*
X99313721Y-93687486D01*
X88577085Y-82950851D01*
X88543585Y-82890849D01*
X88538730Y-82870389D01*
X88538728Y-82870384D01*
X88537039Y-82863266D01*
X88530937Y-82851106D01*
X88460791Y-82711335D01*
X88457705Y-82705186D01*
X88416352Y-82654391D01*
X88393441Y-82626250D01*
X88393440Y-82626249D01*
X88391408Y-82623753D01*
X87436247Y-81668593D01*
X87353700Y-81601563D01*
X87327887Y-81588665D01*
X87202026Y-81525777D01*
X87202024Y-81525776D01*
X87195481Y-81522507D01*
X87076705Y-81494538D01*
X87014982Y-81459454D01*
X86982025Y-81396570D01*
X86988298Y-81325851D01*
X87016490Y-81282797D01*
X87018890Y-81280397D01*
X87025738Y-81274038D01*
X87056652Y-81247401D01*
X87063452Y-81241542D01*
X87066001Y-81237610D01*
X87079240Y-81225121D01*
X87090974Y-81216033D01*
X87096090Y-81212273D01*
X87111003Y-81201881D01*
X87116264Y-81198407D01*
X87131470Y-81188904D01*
X87136876Y-81185710D01*
X87152435Y-81177033D01*
X87157943Y-81174138D01*
X87173850Y-81166275D01*
X87179466Y-81163669D01*
X87180879Y-81163055D01*
X87195646Y-81156640D01*
X87201359Y-81154323D01*
X87217835Y-81148107D01*
X87223628Y-81146081D01*
X87240432Y-81140661D01*
X87246259Y-81138936D01*
X87263314Y-81134334D01*
X87269165Y-81132905D01*
X87286469Y-81129121D01*
X87292372Y-81127979D01*
X87309831Y-81125032D01*
X87315796Y-81124171D01*
X87333425Y-81122057D01*
X87339372Y-81121488D01*
X87357077Y-81120219D01*
X87363058Y-81119934D01*
X87369358Y-81119783D01*
X87380806Y-81119511D01*
X87386804Y-81119511D01*
X87404516Y-81119933D01*
G37*
%TD.AperFunction*%
%TA.AperFunction,Conductor*%
G36*
X111367279Y-82491976D02*
G01*
X111424115Y-82534523D01*
X111448768Y-82599050D01*
X111451148Y-82626250D01*
X111461238Y-82741579D01*
X111462662Y-82746892D01*
X111462662Y-82746894D01*
X111511522Y-82929240D01*
X111515968Y-82945834D01*
X111518290Y-82950815D01*
X111518291Y-82950816D01*
X111602031Y-83130396D01*
X111605335Y-83137482D01*
X111681723Y-83246576D01*
X111704410Y-83313847D01*
X111687125Y-83382708D01*
X111667604Y-83407939D01*
X106311827Y-88763716D01*
X106249515Y-88797742D01*
X106178700Y-88792677D01*
X106121864Y-88750130D01*
X106110012Y-88729936D01*
X106109527Y-88728444D01*
X106103134Y-88717370D01*
X106017341Y-88568774D01*
X106014040Y-88563056D01*
X105955707Y-88498270D01*
X105890675Y-88426045D01*
X105890674Y-88426044D01*
X105886253Y-88421134D01*
X105731752Y-88308882D01*
X105725726Y-88306199D01*
X105725719Y-88306195D01*
X105629910Y-88263539D01*
X105575814Y-88217559D01*
X105555164Y-88149632D01*
X105563475Y-88109578D01*
X105561565Y-88108957D01*
X105565708Y-88096207D01*
X105573272Y-88077945D01*
X105576363Y-88071879D01*
X105576366Y-88071870D01*
X105579362Y-88065991D01*
X105596556Y-88001824D01*
X105598422Y-87995522D01*
X105618954Y-87932330D01*
X105620355Y-87919000D01*
X105623958Y-87899557D01*
X105627430Y-87886599D01*
X105630907Y-87820256D01*
X105631424Y-87813687D01*
X105633156Y-87797205D01*
X105633500Y-87793934D01*
X105633500Y-87774073D01*
X105633673Y-87767478D01*
X105636805Y-87707726D01*
X105636805Y-87707722D01*
X105637150Y-87701135D01*
X105635051Y-87687881D01*
X105633500Y-87668172D01*
X105633500Y-86780442D01*
X105646107Y-86725505D01*
X105691600Y-86631606D01*
X105691602Y-86631601D01*
X105693554Y-86627572D01*
X105737838Y-86488812D01*
X105761600Y-86347574D01*
X105768682Y-86268627D01*
X105768833Y-86256285D01*
X105763995Y-86181964D01*
X105763729Y-86173779D01*
X105763729Y-85829481D01*
X105764233Y-85818223D01*
X105765523Y-85803843D01*
X105768682Y-85768627D01*
X105768833Y-85756285D01*
X105766471Y-85719993D01*
X105763841Y-85679592D01*
X105763840Y-85679582D01*
X105763683Y-85677171D01*
X105759941Y-85651039D01*
X105744016Y-85539839D01*
X105744015Y-85539833D01*
X105743379Y-85535394D01*
X105737456Y-85515137D01*
X105703755Y-85399892D01*
X105702497Y-85395590D01*
X105643217Y-85265211D01*
X105640805Y-85261440D01*
X105640801Y-85261432D01*
X105567157Y-85146279D01*
X105567156Y-85146278D01*
X105564742Y-85142503D01*
X105471252Y-85034002D01*
X105361489Y-84938250D01*
X105241304Y-84860350D01*
X105109076Y-84799252D01*
X105040467Y-84778734D01*
X104976156Y-84759501D01*
X104976151Y-84759500D01*
X104971858Y-84758216D01*
X104967426Y-84757554D01*
X104967423Y-84757553D01*
X104832235Y-84737350D01*
X104832232Y-84737350D01*
X104827804Y-84736688D01*
X104753145Y-84736232D01*
X104689055Y-84735840D01*
X104689050Y-84735840D01*
X104684583Y-84735813D01*
X104682139Y-84736148D01*
X104678344Y-84736271D01*
X104200000Y-84736271D01*
X104194170Y-84736688D01*
X104133625Y-84741018D01*
X104133623Y-84741018D01*
X104126889Y-84741500D01*
X104117011Y-84744400D01*
X104114577Y-84745115D01*
X104060504Y-84746526D01*
X104060316Y-84748255D01*
X104001531Y-84741869D01*
X103998134Y-84741500D01*
X103284500Y-84741500D01*
X103216379Y-84721498D01*
X103169886Y-84667842D01*
X103158500Y-84615500D01*
X103158500Y-83811862D01*
X103159237Y-83798254D01*
X103162659Y-83766751D01*
X103163325Y-83760624D01*
X103158946Y-83710573D01*
X103158620Y-83705783D01*
X103158500Y-83703325D01*
X103158500Y-83700243D01*
X103158200Y-83697181D01*
X103154313Y-83657541D01*
X103154191Y-83656227D01*
X103149927Y-83607495D01*
X103146087Y-83563599D01*
X103144600Y-83558480D01*
X103144080Y-83553179D01*
X103117209Y-83464178D01*
X103116874Y-83463045D01*
X103092630Y-83379598D01*
X103092628Y-83379594D01*
X103090909Y-83373676D01*
X103088456Y-83368944D01*
X103086916Y-83363843D01*
X103068701Y-83329584D01*
X103043269Y-83281752D01*
X103042657Y-83280586D01*
X103002729Y-83203559D01*
X102999892Y-83198086D01*
X102996569Y-83193923D01*
X102994066Y-83189216D01*
X102985927Y-83179236D01*
X102935261Y-83117114D01*
X102934433Y-83116087D01*
X102905469Y-83079804D01*
X102905464Y-83079799D01*
X102903262Y-83077040D01*
X102900761Y-83074539D01*
X102900119Y-83073821D01*
X102896406Y-83069473D01*
X102881739Y-83051490D01*
X102869065Y-83035950D01*
X102864323Y-83032027D01*
X102864321Y-83032025D01*
X102833727Y-83006715D01*
X102824947Y-82998725D01*
X102777913Y-82951691D01*
X102770117Y-82945287D01*
X102730173Y-82886595D01*
X102728301Y-82815623D01*
X102765097Y-82754906D01*
X102828878Y-82723721D01*
X102866771Y-82723031D01*
X102885040Y-82725471D01*
X102891665Y-82726536D01*
X103801244Y-82897725D01*
X103807820Y-82899146D01*
X104709394Y-83119237D01*
X104715907Y-83121012D01*
X105607550Y-83390021D01*
X105613981Y-83392152D01*
X106493667Y-83710070D01*
X106500000Y-83712554D01*
X107379805Y-84085342D01*
X107380697Y-84085724D01*
X107415557Y-84100813D01*
X107422267Y-84104191D01*
X107422281Y-84104161D01*
X107426666Y-84106263D01*
X107430882Y-84108701D01*
X107435419Y-84110460D01*
X107435428Y-84110464D01*
X107456348Y-84118573D01*
X107460858Y-84120422D01*
X107483063Y-84130033D01*
X107487393Y-84131214D01*
X107490073Y-84132154D01*
X107498776Y-84135018D01*
X107511091Y-84139792D01*
X107522203Y-84144729D01*
X107530072Y-84148691D01*
X107550297Y-84155213D01*
X107557149Y-84157645D01*
X107569886Y-84162582D01*
X107569898Y-84162586D01*
X107574078Y-84164206D01*
X107578442Y-84165216D01*
X107578447Y-84165218D01*
X107583429Y-84166371D01*
X107593689Y-84169208D01*
X107690155Y-84200320D01*
X107699334Y-84203679D01*
X107713153Y-84209354D01*
X107717883Y-84210488D01*
X107717884Y-84210488D01*
X107727978Y-84212907D01*
X107737284Y-84215519D01*
X107744557Y-84217865D01*
X107744567Y-84217867D01*
X107748832Y-84219243D01*
X107753255Y-84220001D01*
X107753259Y-84220002D01*
X107764346Y-84221902D01*
X107772426Y-84223560D01*
X107781812Y-84225810D01*
X107875251Y-84248205D01*
X107884740Y-84250876D01*
X107894137Y-84253922D01*
X107894141Y-84253923D01*
X107898768Y-84255423D01*
X107903566Y-84256192D01*
X107903572Y-84256194D01*
X107913975Y-84257862D01*
X107923385Y-84259741D01*
X107928526Y-84260973D01*
X107931018Y-84261571D01*
X107931020Y-84261571D01*
X107935370Y-84262614D01*
X107942595Y-84263288D01*
X107950880Y-84264061D01*
X107959128Y-84265106D01*
X107981139Y-84268636D01*
X108062172Y-84281634D01*
X108071894Y-84283589D01*
X108081341Y-84285879D01*
X108081344Y-84285880D01*
X108086066Y-84287024D01*
X108090904Y-84287428D01*
X108090909Y-84287429D01*
X108098553Y-84288067D01*
X108101584Y-84288320D01*
X108111029Y-84289471D01*
X108123357Y-84291448D01*
X108138771Y-84291707D01*
X108147124Y-84292124D01*
X108221629Y-84298349D01*
X108250037Y-84300722D01*
X108259935Y-84301946D01*
X108269387Y-84303496D01*
X108269396Y-84303497D01*
X108274190Y-84304283D01*
X108279043Y-84304322D01*
X108279050Y-84304323D01*
X108289917Y-84304411D01*
X108299374Y-84304844D01*
X108307465Y-84305519D01*
X108307467Y-84305519D01*
X108311944Y-84305893D01*
X108316420Y-84305629D01*
X108316424Y-84305629D01*
X108321621Y-84305322D01*
X108327171Y-84304995D01*
X108335600Y-84304780D01*
X108438068Y-84305610D01*
X108448059Y-84306089D01*
X108462344Y-84307345D01*
X108478133Y-84306289D01*
X108487554Y-84306012D01*
X108490508Y-84306036D01*
X108495794Y-84306079D01*
X108495798Y-84306079D01*
X108500279Y-84306115D01*
X108504724Y-84305515D01*
X108504727Y-84305515D01*
X108515293Y-84304089D01*
X108523729Y-84303238D01*
X108625431Y-84296434D01*
X108635463Y-84296164D01*
X108640954Y-84296235D01*
X108644840Y-84296286D01*
X108644843Y-84296286D01*
X108649715Y-84296349D01*
X108665439Y-84294109D01*
X108674801Y-84293130D01*
X108687571Y-84292276D01*
X108702329Y-84289145D01*
X108710706Y-84287662D01*
X108764664Y-84279976D01*
X108811322Y-84273330D01*
X108821321Y-84272311D01*
X108822825Y-84272218D01*
X108830677Y-84271734D01*
X108830681Y-84271733D01*
X108835533Y-84271434D01*
X108840283Y-84270391D01*
X108840285Y-84270391D01*
X108843345Y-84269719D01*
X108851083Y-84268020D01*
X108860329Y-84266350D01*
X108868573Y-84265176D01*
X108868582Y-84265174D01*
X108873012Y-84264543D01*
X108877312Y-84263289D01*
X108877317Y-84263288D01*
X108887475Y-84260326D01*
X108895730Y-84258219D01*
X108964746Y-84243068D01*
X108994992Y-84236428D01*
X109004884Y-84234667D01*
X109014188Y-84233391D01*
X109014192Y-84233390D01*
X109019012Y-84232729D01*
X109023680Y-84231332D01*
X109034240Y-84228172D01*
X109043336Y-84225815D01*
X109055838Y-84223071D01*
X109069953Y-84217785D01*
X109078015Y-84215073D01*
X109175653Y-84185853D01*
X109185347Y-84183367D01*
X109199364Y-84180362D01*
X109214157Y-84174698D01*
X109223070Y-84171663D01*
X109227605Y-84170306D01*
X109230973Y-84169298D01*
X109230975Y-84169297D01*
X109235266Y-84168013D01*
X109241312Y-84165218D01*
X109249021Y-84161655D01*
X109256836Y-84158357D01*
X109352503Y-84121727D01*
X109361946Y-84118533D01*
X109375806Y-84114451D01*
X109380207Y-84112374D01*
X109380218Y-84112370D01*
X109390023Y-84107743D01*
X109398733Y-84104026D01*
X109406328Y-84101118D01*
X109406327Y-84101118D01*
X109410512Y-84099516D01*
X109423850Y-84092091D01*
X109431362Y-84088234D01*
X109524739Y-84044171D01*
X109533869Y-84040294D01*
X109542954Y-84036852D01*
X109542958Y-84036850D01*
X109547509Y-84035126D01*
X109561056Y-84027431D01*
X109569510Y-84023043D01*
X109576742Y-84019630D01*
X109576741Y-84019630D01*
X109580794Y-84017718D01*
X109584533Y-84015251D01*
X109584539Y-84015248D01*
X109593647Y-84009239D01*
X109600799Y-84004855D01*
X109691543Y-83953309D01*
X109700280Y-83948788D01*
X109713636Y-83942527D01*
X109726421Y-83933914D01*
X109734565Y-83928868D01*
X109745288Y-83922778D01*
X109757596Y-83913248D01*
X109764338Y-83908376D01*
X109852023Y-83849312D01*
X109860353Y-83844160D01*
X109873332Y-83836814D01*
X109881208Y-83830581D01*
X109885295Y-83827347D01*
X109893089Y-83821651D01*
X109899433Y-83817378D01*
X109899441Y-83817372D01*
X109903161Y-83814866D01*
X109914844Y-83804304D01*
X109921146Y-83798972D01*
X109922053Y-83798254D01*
X110000592Y-83736096D01*
X110010489Y-83729014D01*
X110013795Y-83726882D01*
X110013800Y-83726878D01*
X110017884Y-83724244D01*
X110033769Y-83710105D01*
X110039345Y-83705425D01*
X110050052Y-83696952D01*
X110050055Y-83696949D01*
X110053568Y-83694169D01*
X110060179Y-83687200D01*
X110067822Y-83679797D01*
X110077655Y-83671046D01*
X110083547Y-83666383D01*
X110083526Y-83666358D01*
X110087283Y-83663265D01*
X110091269Y-83660470D01*
X110094777Y-83657095D01*
X110094781Y-83657092D01*
X110110957Y-83641532D01*
X110114537Y-83638219D01*
X110129248Y-83625125D01*
X110132602Y-83622140D01*
X110135497Y-83618712D01*
X110137421Y-83616737D01*
X110143730Y-83610004D01*
X110148298Y-83605611D01*
X110151849Y-83602387D01*
X110155041Y-83600055D01*
X110165991Y-83589105D01*
X110172838Y-83582747D01*
X110187945Y-83569730D01*
X110210562Y-83550242D01*
X110215444Y-83542709D01*
X110220914Y-83536439D01*
X110230483Y-83524612D01*
X110445171Y-83309923D01*
X111234152Y-82520936D01*
X111296463Y-82486912D01*
X111367279Y-82491976D01*
G37*
%TD.AperFunction*%
%TD*%
M02*
