%TF.GenerationSoftware,KiCad,Pcbnew,(6.0.1)*%
%TF.CreationDate,2022-01-25T15:54:23+01:00*%
%TF.ProjectId,v0_miniAB_batboard,76305f6d-696e-4694-9142-5f626174626f,rev?*%
%TF.SameCoordinates,Original*%
%TF.FileFunction,Legend,Top*%
%TF.FilePolarity,Positive*%
%FSLAX46Y46*%
G04 Gerber Fmt 4.6, Leading zero omitted, Abs format (unit mm)*
G04 Created by KiCad (PCBNEW (6.0.1)) date 2022-01-25 15:54:23*
%MOMM*%
%LPD*%
G01*
G04 APERTURE LIST*
%ADD10C,0.120000*%
%ADD11C,0.100000*%
%ADD12C,0.150000*%
%ADD13C,0.300000*%
G04 APERTURE END LIST*
D10*
X95800000Y-88000000D02*
X95800000Y-88400000D01*
X91600000Y-87200000D02*
X88600000Y-87200000D01*
D11*
X91200000Y-90600000D02*
X89800000Y-90600000D01*
X89800000Y-90600000D02*
X89800000Y-89800000D01*
X89800000Y-89800000D02*
X91200000Y-89800000D01*
X91200000Y-89800000D02*
X91200000Y-90600000D01*
G36*
X91200000Y-90600000D02*
G01*
X89800000Y-90600000D01*
X89800000Y-89800000D01*
X91200000Y-89800000D01*
X91200000Y-90600000D01*
G37*
X91200000Y-90600000D02*
X89800000Y-90600000D01*
X89800000Y-89800000D01*
X91200000Y-89800000D01*
X91200000Y-90600000D01*
D10*
X91600000Y-89400000D02*
X88600000Y-89400000D01*
X88600000Y-91000000D02*
X91600000Y-91000000D01*
X88600000Y-89400000D02*
X88600000Y-91000000D01*
X91600000Y-91000000D02*
X91600000Y-89400000D01*
D11*
X96200000Y-88000000D02*
X95400000Y-88000000D01*
X95400000Y-88000000D02*
X95800000Y-87400000D01*
X95800000Y-87400000D02*
X96200000Y-88000000D01*
G36*
X96200000Y-88000000D02*
G01*
X95400000Y-88000000D01*
X95800000Y-87400000D01*
X96200000Y-88000000D01*
G37*
X96200000Y-88000000D02*
X95400000Y-88000000D01*
X95800000Y-87400000D01*
X96200000Y-88000000D01*
D10*
X102800000Y-88000000D02*
X102800000Y-88400000D01*
X88600000Y-88800000D02*
X91600000Y-88800000D01*
X91600000Y-88800000D02*
X91600000Y-87200000D01*
X88600000Y-87200000D02*
X88600000Y-88800000D01*
X102800000Y-88400000D02*
X95800000Y-88400000D01*
D11*
X90400000Y-88400000D02*
X89000000Y-88400000D01*
X89000000Y-88400000D02*
X89000000Y-87600000D01*
X89000000Y-87600000D02*
X90400000Y-87600000D01*
X90400000Y-87600000D02*
X90400000Y-88400000D01*
G36*
X90400000Y-88400000D02*
G01*
X89000000Y-88400000D01*
X89000000Y-87600000D01*
X90400000Y-87600000D01*
X90400000Y-88400000D01*
G37*
X90400000Y-88400000D02*
X89000000Y-88400000D01*
X89000000Y-87600000D01*
X90400000Y-87600000D01*
X90400000Y-88400000D01*
D10*
X95800000Y-88400000D02*
X95800000Y-88000000D01*
D11*
X103200000Y-88000000D02*
X102400000Y-88000000D01*
X102400000Y-88000000D02*
X102800000Y-87400000D01*
X102800000Y-87400000D02*
X103200000Y-88000000D01*
G36*
X103200000Y-88000000D02*
G01*
X102400000Y-88000000D01*
X102800000Y-87400000D01*
X103200000Y-88000000D01*
G37*
X103200000Y-88000000D02*
X102400000Y-88000000D01*
X102800000Y-87400000D01*
X103200000Y-88000000D01*
D12*
X92409523Y-89747619D02*
X92457142Y-89700000D01*
X92552380Y-89652380D01*
X92790476Y-89652380D01*
X92885714Y-89700000D01*
X92933333Y-89747619D01*
X92980952Y-89842857D01*
X92980952Y-89938095D01*
X92933333Y-90080952D01*
X92361904Y-90652380D01*
X92980952Y-90652380D01*
X93838095Y-89985714D02*
X93838095Y-90652380D01*
X93600000Y-89604761D02*
X93361904Y-90319047D01*
X93980952Y-90319047D01*
X94219047Y-89652380D02*
X94552380Y-90652380D01*
X94885714Y-89652380D01*
X112733333Y-105247380D02*
X112733333Y-104247380D01*
X112733333Y-104723571D02*
X113304761Y-104723571D01*
X113304761Y-105247380D02*
X113304761Y-104247380D01*
X113971428Y-104247380D02*
X114161904Y-104247380D01*
X114257142Y-104295000D01*
X114352380Y-104390238D01*
X114400000Y-104580714D01*
X114400000Y-104914047D01*
X114352380Y-105104523D01*
X114257142Y-105199761D01*
X114161904Y-105247380D01*
X113971428Y-105247380D01*
X113876190Y-105199761D01*
X113780952Y-105104523D01*
X113733333Y-104914047D01*
X113733333Y-104580714D01*
X113780952Y-104390238D01*
X113876190Y-104295000D01*
X113971428Y-104247380D01*
X114685714Y-104247380D02*
X115257142Y-104247380D01*
X114971428Y-105247380D02*
X114971428Y-104247380D01*
X115590476Y-104723571D02*
X115923809Y-104723571D01*
X116066666Y-105247380D02*
X115590476Y-105247380D01*
X115590476Y-104247380D01*
X116066666Y-104247380D01*
X116495238Y-105247380D02*
X116495238Y-104247380D01*
X117066666Y-105247380D01*
X117066666Y-104247380D01*
X117542857Y-105247380D02*
X117542857Y-104247380D01*
X117780952Y-104247380D01*
X117923809Y-104295000D01*
X118019047Y-104390238D01*
X118066666Y-104485476D01*
X118114285Y-104675952D01*
X118114285Y-104818809D01*
X118066666Y-105009285D01*
X118019047Y-105104523D01*
X117923809Y-105199761D01*
X117780952Y-105247380D01*
X117542857Y-105247380D01*
X114590476Y-106333571D02*
X114257142Y-106333571D01*
X114257142Y-106857380D02*
X114257142Y-105857380D01*
X114733333Y-105857380D01*
X115066666Y-106571666D02*
X115542857Y-106571666D01*
X114971428Y-106857380D02*
X115304761Y-105857380D01*
X115638095Y-106857380D01*
X115971428Y-106857380D02*
X115971428Y-105857380D01*
X116542857Y-106857380D01*
X116542857Y-105857380D01*
X91059613Y-115167046D02*
X91250422Y-114185419D01*
X91159561Y-114652861D02*
X91720491Y-114761894D01*
X91620543Y-115276080D02*
X91811352Y-114294453D01*
X92187932Y-114852756D02*
X92515141Y-114916359D01*
X92555426Y-115457803D02*
X92087985Y-115366942D01*
X92278794Y-114385314D01*
X92746235Y-114476176D01*
X92983896Y-115250027D02*
X93451338Y-115340889D01*
X92835891Y-115512320D02*
X93353909Y-114594296D01*
X93490309Y-115639526D01*
X93868095Y-114694243D02*
X94429024Y-114803277D01*
X93957751Y-115730387D02*
X94148560Y-114748760D01*
X94665372Y-115334321D02*
X94992581Y-115397924D01*
X95032866Y-115939369D02*
X94565425Y-115848507D01*
X94756234Y-114866880D01*
X95223675Y-114957741D01*
X96014493Y-116130178D02*
X95778146Y-115599133D01*
X95453563Y-116021144D02*
X95644372Y-115039517D01*
X96018326Y-115112206D01*
X96102728Y-115177122D01*
X96140386Y-115232953D01*
X96168958Y-115335527D01*
X96141699Y-115475759D01*
X96076783Y-115560162D01*
X96020953Y-115597820D01*
X95918378Y-115626391D01*
X95544425Y-115553702D01*
X100022380Y-115502380D02*
X100022380Y-114930952D01*
X101022380Y-115216666D02*
X100022380Y-115216666D01*
X101022380Y-114597619D02*
X100022380Y-114597619D01*
X100498571Y-114597619D02*
X100498571Y-114026190D01*
X101022380Y-114026190D02*
X100022380Y-114026190D01*
X100498571Y-113550000D02*
X100498571Y-113216666D01*
X101022380Y-113073809D02*
X101022380Y-113550000D01*
X100022380Y-113550000D01*
X100022380Y-113073809D01*
X101022380Y-112073809D02*
X100546190Y-112407142D01*
X101022380Y-112645238D02*
X100022380Y-112645238D01*
X100022380Y-112264285D01*
X100070000Y-112169047D01*
X100117619Y-112121428D01*
X100212857Y-112073809D01*
X100355714Y-112073809D01*
X100450952Y-112121428D01*
X100498571Y-112169047D01*
X100546190Y-112264285D01*
X100546190Y-112645238D01*
X101022380Y-111645238D02*
X100022380Y-111645238D01*
X100736666Y-111311904D01*
X100022380Y-110978571D01*
X101022380Y-110978571D01*
X101022380Y-110502380D02*
X100022380Y-110502380D01*
X100974761Y-110073809D02*
X101022380Y-109930952D01*
X101022380Y-109692857D01*
X100974761Y-109597619D01*
X100927142Y-109550000D01*
X100831904Y-109502380D01*
X100736666Y-109502380D01*
X100641428Y-109550000D01*
X100593809Y-109597619D01*
X100546190Y-109692857D01*
X100498571Y-109883333D01*
X100450952Y-109978571D01*
X100403333Y-110026190D01*
X100308095Y-110073809D01*
X100212857Y-110073809D01*
X100117619Y-110026190D01*
X100070000Y-109978571D01*
X100022380Y-109883333D01*
X100022380Y-109645238D01*
X100070000Y-109502380D01*
X100022380Y-109216666D02*
X100022380Y-108645238D01*
X101022380Y-108930952D02*
X100022380Y-108930952D01*
X100022380Y-108121428D02*
X100022380Y-107930952D01*
X100070000Y-107835714D01*
X100165238Y-107740476D01*
X100355714Y-107692857D01*
X100689047Y-107692857D01*
X100879523Y-107740476D01*
X100974761Y-107835714D01*
X101022380Y-107930952D01*
X101022380Y-108121428D01*
X100974761Y-108216666D01*
X100879523Y-108311904D01*
X100689047Y-108359523D01*
X100355714Y-108359523D01*
X100165238Y-108311904D01*
X100070000Y-108216666D01*
X100022380Y-108121428D01*
X101022380Y-106692857D02*
X100546190Y-107026190D01*
X101022380Y-107264285D02*
X100022380Y-107264285D01*
X100022380Y-106883333D01*
X100070000Y-106788095D01*
X100117619Y-106740476D01*
X100212857Y-106692857D01*
X100355714Y-106692857D01*
X100450952Y-106740476D01*
X100498571Y-106788095D01*
X100546190Y-106883333D01*
X100546190Y-107264285D01*
X101283780Y-83510438D02*
X101625800Y-82570745D01*
X101462934Y-83018218D02*
X101999901Y-83213658D01*
X101820747Y-83705878D02*
X102162768Y-82766185D01*
X102789229Y-82994199D02*
X102968218Y-83059345D01*
X103041426Y-83136666D01*
X103098347Y-83258734D01*
X103077948Y-83454010D01*
X102963941Y-83767241D01*
X102854047Y-83929943D01*
X102731979Y-83986864D01*
X102626198Y-83999038D01*
X102447209Y-83933891D01*
X102374001Y-83856571D01*
X102317080Y-83734503D01*
X102337480Y-83539227D01*
X102451486Y-83225996D01*
X102561380Y-83063294D01*
X102683448Y-83006373D01*
X102789229Y-82994199D01*
X103460438Y-83238499D02*
X103997406Y-83433939D01*
X103386902Y-84275912D02*
X103728922Y-83336219D01*
X104147770Y-83995418D02*
X104461001Y-84109425D01*
X104416089Y-84650505D02*
X103968616Y-84487638D01*
X104310636Y-83547946D01*
X104758109Y-83710812D01*
X104818814Y-84797085D02*
X105160834Y-83857392D01*
X105355782Y-84992525D01*
X105697802Y-84052833D01*
X105803254Y-85155392D02*
X106145274Y-84215699D01*
X106369011Y-84297133D01*
X106486966Y-84390740D01*
X106543887Y-84512808D01*
X106556061Y-84618589D01*
X106535662Y-84813865D01*
X106486802Y-84948107D01*
X106376908Y-85110809D01*
X106299587Y-85184017D01*
X106177519Y-85240938D01*
X106026991Y-85236825D01*
X105803254Y-85155392D01*
X107951287Y-85379786D02*
X107638057Y-85265779D01*
X107458903Y-85757999D02*
X107800923Y-84818306D01*
X108248396Y-84981173D01*
X108317327Y-85766389D02*
X108764799Y-85929255D01*
X108130112Y-86002299D02*
X108785363Y-85176613D01*
X108756574Y-86230312D01*
X109069805Y-86344319D02*
X109411825Y-85404626D01*
X109606772Y-86539759D01*
X109948792Y-85600067D01*
X96507023Y-89752142D02*
X96459404Y-89799761D01*
X96316547Y-89847380D01*
X96221309Y-89847380D01*
X96078452Y-89799761D01*
X95983214Y-89704523D01*
X95935595Y-89609285D01*
X95887976Y-89418809D01*
X95887976Y-89275952D01*
X95935595Y-89085476D01*
X95983214Y-88990238D01*
X96078452Y-88895000D01*
X96221309Y-88847380D01*
X96316547Y-88847380D01*
X96459404Y-88895000D01*
X96507023Y-88942619D01*
X97364166Y-89180714D02*
X97364166Y-89847380D01*
X96935595Y-89180714D02*
X96935595Y-89704523D01*
X96983214Y-89799761D01*
X97078452Y-89847380D01*
X97221309Y-89847380D01*
X97316547Y-89799761D01*
X97364166Y-89752142D01*
X97697500Y-89180714D02*
X98078452Y-89180714D01*
X97840357Y-88847380D02*
X97840357Y-89704523D01*
X97887976Y-89799761D01*
X97983214Y-89847380D01*
X98078452Y-89847380D01*
X99030833Y-89180714D02*
X99411785Y-89180714D01*
X99173690Y-88847380D02*
X99173690Y-89704523D01*
X99221309Y-89799761D01*
X99316547Y-89847380D01*
X99411785Y-89847380D01*
X99745119Y-89847380D02*
X99745119Y-89180714D01*
X99745119Y-89371190D02*
X99792738Y-89275952D01*
X99840357Y-89228333D01*
X99935595Y-89180714D01*
X100030833Y-89180714D01*
X100792738Y-89847380D02*
X100792738Y-89323571D01*
X100745119Y-89228333D01*
X100649880Y-89180714D01*
X100459404Y-89180714D01*
X100364166Y-89228333D01*
X100792738Y-89799761D02*
X100697500Y-89847380D01*
X100459404Y-89847380D01*
X100364166Y-89799761D01*
X100316547Y-89704523D01*
X100316547Y-89609285D01*
X100364166Y-89514047D01*
X100459404Y-89466428D01*
X100697500Y-89466428D01*
X100792738Y-89418809D01*
X101697500Y-89799761D02*
X101602261Y-89847380D01*
X101411785Y-89847380D01*
X101316547Y-89799761D01*
X101268928Y-89752142D01*
X101221309Y-89656904D01*
X101221309Y-89371190D01*
X101268928Y-89275952D01*
X101316547Y-89228333D01*
X101411785Y-89180714D01*
X101602261Y-89180714D01*
X101697500Y-89228333D01*
X102507023Y-89799761D02*
X102411785Y-89847380D01*
X102221309Y-89847380D01*
X102126071Y-89799761D01*
X102078452Y-89704523D01*
X102078452Y-89323571D01*
X102126071Y-89228333D01*
X102221309Y-89180714D01*
X102411785Y-89180714D01*
X102507023Y-89228333D01*
X102554642Y-89323571D01*
X102554642Y-89418809D01*
X102078452Y-89514047D01*
X104554642Y-89847380D02*
X104507023Y-89847380D01*
X104411785Y-89799761D01*
X104268928Y-89656904D01*
X104030833Y-89371190D01*
X103935595Y-89228333D01*
X103887976Y-89085476D01*
X103887976Y-88990238D01*
X103935595Y-88895000D01*
X104030833Y-88847380D01*
X104078452Y-88847380D01*
X104173690Y-88895000D01*
X104221309Y-88990238D01*
X104221309Y-89037857D01*
X104173690Y-89133095D01*
X104126071Y-89180714D01*
X103840357Y-89371190D01*
X103792738Y-89418809D01*
X103745119Y-89514047D01*
X103745119Y-89656904D01*
X103792738Y-89752142D01*
X103840357Y-89799761D01*
X103935595Y-89847380D01*
X104078452Y-89847380D01*
X104173690Y-89799761D01*
X104221309Y-89752142D01*
X104364166Y-89561666D01*
X104411785Y-89418809D01*
X104411785Y-89323571D01*
X105697500Y-89799761D02*
X105792738Y-89847380D01*
X105983214Y-89847380D01*
X106078452Y-89799761D01*
X106126071Y-89704523D01*
X106126071Y-89656904D01*
X106078452Y-89561666D01*
X105983214Y-89514047D01*
X105840357Y-89514047D01*
X105745119Y-89466428D01*
X105697500Y-89371190D01*
X105697500Y-89323571D01*
X105745119Y-89228333D01*
X105840357Y-89180714D01*
X105983214Y-89180714D01*
X106078452Y-89228333D01*
X106697500Y-89847380D02*
X106602261Y-89799761D01*
X106554642Y-89752142D01*
X106507023Y-89656904D01*
X106507023Y-89371190D01*
X106554642Y-89275952D01*
X106602261Y-89228333D01*
X106697500Y-89180714D01*
X106840357Y-89180714D01*
X106935595Y-89228333D01*
X106983214Y-89275952D01*
X107030833Y-89371190D01*
X107030833Y-89656904D01*
X106983214Y-89752142D01*
X106935595Y-89799761D01*
X106840357Y-89847380D01*
X106697500Y-89847380D01*
X107602261Y-89847380D02*
X107507023Y-89799761D01*
X107459404Y-89704523D01*
X107459404Y-88847380D01*
X108411785Y-89847380D02*
X108411785Y-88847380D01*
X108411785Y-89799761D02*
X108316547Y-89847380D01*
X108126071Y-89847380D01*
X108030833Y-89799761D01*
X107983214Y-89752142D01*
X107935595Y-89656904D01*
X107935595Y-89371190D01*
X107983214Y-89275952D01*
X108030833Y-89228333D01*
X108126071Y-89180714D01*
X108316547Y-89180714D01*
X108411785Y-89228333D01*
X109268928Y-89799761D02*
X109173690Y-89847380D01*
X108983214Y-89847380D01*
X108887976Y-89799761D01*
X108840357Y-89704523D01*
X108840357Y-89323571D01*
X108887976Y-89228333D01*
X108983214Y-89180714D01*
X109173690Y-89180714D01*
X109268928Y-89228333D01*
X109316547Y-89323571D01*
X109316547Y-89418809D01*
X108840357Y-89514047D01*
X109745119Y-89847380D02*
X109745119Y-89180714D01*
X109745119Y-89371190D02*
X109792738Y-89275952D01*
X109840357Y-89228333D01*
X109935595Y-89180714D01*
X110030833Y-89180714D01*
X95935595Y-91457380D02*
X95935595Y-90457380D01*
X95935595Y-90838333D02*
X96030833Y-90790714D01*
X96221309Y-90790714D01*
X96316547Y-90838333D01*
X96364166Y-90885952D01*
X96411785Y-90981190D01*
X96411785Y-91266904D01*
X96364166Y-91362142D01*
X96316547Y-91409761D01*
X96221309Y-91457380D01*
X96030833Y-91457380D01*
X95935595Y-91409761D01*
X96840357Y-91457380D02*
X96840357Y-90790714D01*
X96840357Y-90981190D02*
X96887976Y-90885952D01*
X96935595Y-90838333D01*
X97030833Y-90790714D01*
X97126071Y-90790714D01*
X97459404Y-91457380D02*
X97459404Y-90790714D01*
X97459404Y-90457380D02*
X97411785Y-90505000D01*
X97459404Y-90552619D01*
X97507023Y-90505000D01*
X97459404Y-90457380D01*
X97459404Y-90552619D01*
X98364166Y-91457380D02*
X98364166Y-90457380D01*
X98364166Y-91409761D02*
X98268928Y-91457380D01*
X98078452Y-91457380D01*
X97983214Y-91409761D01*
X97935595Y-91362142D01*
X97887976Y-91266904D01*
X97887976Y-90981190D01*
X97935595Y-90885952D01*
X97983214Y-90838333D01*
X98078452Y-90790714D01*
X98268928Y-90790714D01*
X98364166Y-90838333D01*
X99268928Y-90790714D02*
X99268928Y-91600238D01*
X99221309Y-91695476D01*
X99173690Y-91743095D01*
X99078452Y-91790714D01*
X98935595Y-91790714D01*
X98840357Y-91743095D01*
X99268928Y-91409761D02*
X99173690Y-91457380D01*
X98983214Y-91457380D01*
X98887976Y-91409761D01*
X98840357Y-91362142D01*
X98792738Y-91266904D01*
X98792738Y-90981190D01*
X98840357Y-90885952D01*
X98887976Y-90838333D01*
X98983214Y-90790714D01*
X99173690Y-90790714D01*
X99268928Y-90838333D01*
X100126071Y-91409761D02*
X100030833Y-91457380D01*
X99840357Y-91457380D01*
X99745119Y-91409761D01*
X99697500Y-91314523D01*
X99697500Y-90933571D01*
X99745119Y-90838333D01*
X99840357Y-90790714D01*
X100030833Y-90790714D01*
X100126071Y-90838333D01*
X100173690Y-90933571D01*
X100173690Y-91028809D01*
X99697500Y-91124047D01*
X101221309Y-90790714D02*
X101602261Y-90790714D01*
X101364166Y-91457380D02*
X101364166Y-90600238D01*
X101411785Y-90505000D01*
X101507023Y-90457380D01*
X101602261Y-90457380D01*
X102078452Y-91457380D02*
X101983214Y-91409761D01*
X101935595Y-91362142D01*
X101887976Y-91266904D01*
X101887976Y-90981190D01*
X101935595Y-90885952D01*
X101983214Y-90838333D01*
X102078452Y-90790714D01*
X102221309Y-90790714D01*
X102316547Y-90838333D01*
X102364166Y-90885952D01*
X102411785Y-90981190D01*
X102411785Y-91266904D01*
X102364166Y-91362142D01*
X102316547Y-91409761D01*
X102221309Y-91457380D01*
X102078452Y-91457380D01*
X102840357Y-91457380D02*
X102840357Y-90790714D01*
X102840357Y-90981190D02*
X102887976Y-90885952D01*
X102935595Y-90838333D01*
X103030833Y-90790714D01*
X103126071Y-90790714D01*
X104173690Y-90552619D02*
X104221309Y-90505000D01*
X104316547Y-90457380D01*
X104554642Y-90457380D01*
X104649880Y-90505000D01*
X104697500Y-90552619D01*
X104745119Y-90647857D01*
X104745119Y-90743095D01*
X104697500Y-90885952D01*
X104126071Y-91457380D01*
X104745119Y-91457380D01*
X105602261Y-90790714D02*
X105602261Y-91457380D01*
X105364166Y-90409761D02*
X105126071Y-91124047D01*
X105745119Y-91124047D01*
X105983214Y-90457380D02*
X106316547Y-91457380D01*
X106649880Y-90457380D01*
D13*
X93419047Y-95057142D02*
X93704761Y-95152380D01*
X93800000Y-95247619D01*
X93895238Y-95438095D01*
X93895238Y-95723809D01*
X93800000Y-95914285D01*
X93704761Y-96009523D01*
X93514285Y-96104761D01*
X92752380Y-96104761D01*
X92752380Y-94104761D01*
X93419047Y-94104761D01*
X93609523Y-94200000D01*
X93704761Y-94295238D01*
X93800000Y-94485714D01*
X93800000Y-94676190D01*
X93704761Y-94866666D01*
X93609523Y-94961904D01*
X93419047Y-95057142D01*
X92752380Y-95057142D01*
X94657142Y-95533333D02*
X95609523Y-95533333D01*
X94466666Y-96104761D02*
X95133333Y-94104761D01*
X95800000Y-96104761D01*
X96180952Y-94104761D02*
X97323809Y-94104761D01*
X96752380Y-96104761D02*
X96752380Y-94104761D01*
X98657142Y-95057142D02*
X98942857Y-95152380D01*
X99038095Y-95247619D01*
X99133333Y-95438095D01*
X99133333Y-95723809D01*
X99038095Y-95914285D01*
X98942857Y-96009523D01*
X98752380Y-96104761D01*
X97990476Y-96104761D01*
X97990476Y-94104761D01*
X98657142Y-94104761D01*
X98847619Y-94200000D01*
X98942857Y-94295238D01*
X99038095Y-94485714D01*
X99038095Y-94676190D01*
X98942857Y-94866666D01*
X98847619Y-94961904D01*
X98657142Y-95057142D01*
X97990476Y-95057142D01*
X100371428Y-94104761D02*
X100752380Y-94104761D01*
X100942857Y-94200000D01*
X101133333Y-94390476D01*
X101228571Y-94771428D01*
X101228571Y-95438095D01*
X101133333Y-95819047D01*
X100942857Y-96009523D01*
X100752380Y-96104761D01*
X100371428Y-96104761D01*
X100180952Y-96009523D01*
X99990476Y-95819047D01*
X99895238Y-95438095D01*
X99895238Y-94771428D01*
X99990476Y-94390476D01*
X100180952Y-94200000D01*
X100371428Y-94104761D01*
X101990476Y-95533333D02*
X102942857Y-95533333D01*
X101800000Y-96104761D02*
X102466666Y-94104761D01*
X103133333Y-96104761D01*
X104942857Y-96104761D02*
X104276190Y-95152380D01*
X103800000Y-96104761D02*
X103800000Y-94104761D01*
X104561904Y-94104761D01*
X104752380Y-94200000D01*
X104847619Y-94295238D01*
X104942857Y-94485714D01*
X104942857Y-94771428D01*
X104847619Y-94961904D01*
X104752380Y-95057142D01*
X104561904Y-95152380D01*
X103800000Y-95152380D01*
X105800000Y-96104761D02*
X105800000Y-94104761D01*
X106276190Y-94104761D01*
X106561904Y-94200000D01*
X106752380Y-94390476D01*
X106847619Y-94580952D01*
X106942857Y-94961904D01*
X106942857Y-95247619D01*
X106847619Y-95628571D01*
X106752380Y-95819047D01*
X106561904Y-96009523D01*
X106276190Y-96104761D01*
X105800000Y-96104761D01*
D12*
X93009523Y-87452380D02*
X92533333Y-87452380D01*
X92485714Y-87928571D01*
X92533333Y-87880952D01*
X92628571Y-87833333D01*
X92866666Y-87833333D01*
X92961904Y-87880952D01*
X93009523Y-87928571D01*
X93057142Y-88023809D01*
X93057142Y-88261904D01*
X93009523Y-88357142D01*
X92961904Y-88404761D01*
X92866666Y-88452380D01*
X92628571Y-88452380D01*
X92533333Y-88404761D01*
X92485714Y-88357142D01*
X93342857Y-87452380D02*
X93676190Y-88452380D01*
X94009523Y-87452380D01*
X91322414Y-85865166D02*
X90980394Y-84925473D01*
X91338372Y-84795180D01*
X91444153Y-84807354D01*
X91505187Y-84835814D01*
X91582508Y-84909022D01*
X91631368Y-85043264D01*
X91619194Y-85149045D01*
X91590733Y-85210079D01*
X91517526Y-85287400D01*
X91159547Y-85417693D01*
X92119639Y-85270949D02*
X92567112Y-85108082D01*
X92127865Y-85572006D02*
X92099076Y-84518306D01*
X92754327Y-85343992D01*
X93604525Y-85034545D02*
X93128427Y-84701079D01*
X93067558Y-85229985D02*
X92725537Y-84290293D01*
X93083516Y-84159999D01*
X93189297Y-84172173D01*
X93250331Y-84200634D01*
X93327651Y-84273842D01*
X93376511Y-84408084D01*
X93364337Y-84513865D01*
X93335877Y-84574899D01*
X93262669Y-84652219D01*
X92904691Y-84782513D01*
X93530988Y-83997133D02*
X94067955Y-83801693D01*
X94141492Y-84839105D02*
X93799472Y-83899413D01*
X95573240Y-83760565D02*
X95260009Y-83874572D01*
X95439163Y-84366792D02*
X95097143Y-83427099D01*
X95544615Y-83264232D01*
X96102146Y-83821435D02*
X96549619Y-83658568D01*
X96110372Y-84122492D02*
X96081583Y-83068792D01*
X96736834Y-83894478D01*
X97050064Y-83780471D02*
X96708044Y-82840779D01*
X97587032Y-83585031D01*
X97245011Y-82645339D01*
X82614761Y-103766190D02*
X82662380Y-103623333D01*
X82662380Y-103385238D01*
X82614761Y-103290000D01*
X82567142Y-103242380D01*
X82471904Y-103194761D01*
X82376666Y-103194761D01*
X82281428Y-103242380D01*
X82233809Y-103290000D01*
X82186190Y-103385238D01*
X82138571Y-103575714D01*
X82090952Y-103670952D01*
X82043333Y-103718571D01*
X81948095Y-103766190D01*
X81852857Y-103766190D01*
X81757619Y-103718571D01*
X81710000Y-103670952D01*
X81662380Y-103575714D01*
X81662380Y-103337619D01*
X81710000Y-103194761D01*
X81662380Y-102861428D02*
X82662380Y-102623333D01*
X81948095Y-102432857D01*
X82662380Y-102242380D01*
X81662380Y-102004285D01*
X82662380Y-101623333D02*
X81662380Y-101623333D01*
X81662380Y-101290000D02*
X81662380Y-100718571D01*
X82662380Y-101004285D02*
X81662380Y-101004285D01*
X82567142Y-99813809D02*
X82614761Y-99861428D01*
X82662380Y-100004285D01*
X82662380Y-100099523D01*
X82614761Y-100242380D01*
X82519523Y-100337619D01*
X82424285Y-100385238D01*
X82233809Y-100432857D01*
X82090952Y-100432857D01*
X81900476Y-100385238D01*
X81805238Y-100337619D01*
X81710000Y-100242380D01*
X81662380Y-100099523D01*
X81662380Y-100004285D01*
X81710000Y-99861428D01*
X81757619Y-99813809D01*
X82662380Y-99385238D02*
X81662380Y-99385238D01*
X82138571Y-99385238D02*
X82138571Y-98813809D01*
X82662380Y-98813809D02*
X81662380Y-98813809D01*
X82662380Y-97813809D02*
X82662380Y-98385238D01*
X82662380Y-98099523D02*
X81662380Y-98099523D01*
X81805238Y-98194761D01*
X81900476Y-98290000D01*
X81948095Y-98385238D01*
X117455238Y-97593809D02*
X117407619Y-97736666D01*
X117407619Y-97974761D01*
X117455238Y-98070000D01*
X117502857Y-98117619D01*
X117598095Y-98165238D01*
X117693333Y-98165238D01*
X117788571Y-98117619D01*
X117836190Y-98070000D01*
X117883809Y-97974761D01*
X117931428Y-97784285D01*
X117979047Y-97689047D01*
X118026666Y-97641428D01*
X118121904Y-97593809D01*
X118217142Y-97593809D01*
X118312380Y-97641428D01*
X118360000Y-97689047D01*
X118407619Y-97784285D01*
X118407619Y-98022380D01*
X118360000Y-98165238D01*
X118407619Y-98498571D02*
X117407619Y-98736666D01*
X118121904Y-98927142D01*
X117407619Y-99117619D01*
X118407619Y-99355714D01*
X117407619Y-99736666D02*
X118407619Y-99736666D01*
X118407619Y-100070000D02*
X118407619Y-100641428D01*
X117407619Y-100355714D02*
X118407619Y-100355714D01*
X117502857Y-101546190D02*
X117455238Y-101498571D01*
X117407619Y-101355714D01*
X117407619Y-101260476D01*
X117455238Y-101117619D01*
X117550476Y-101022380D01*
X117645714Y-100974761D01*
X117836190Y-100927142D01*
X117979047Y-100927142D01*
X118169523Y-100974761D01*
X118264761Y-101022380D01*
X118360000Y-101117619D01*
X118407619Y-101260476D01*
X118407619Y-101355714D01*
X118360000Y-101498571D01*
X118312380Y-101546190D01*
X117407619Y-101974761D02*
X118407619Y-101974761D01*
X117931428Y-101974761D02*
X117931428Y-102546190D01*
X117407619Y-102546190D02*
X118407619Y-102546190D01*
X118407619Y-103212857D02*
X118407619Y-103308095D01*
X118360000Y-103403333D01*
X118312380Y-103450952D01*
X118217142Y-103498571D01*
X118026666Y-103546190D01*
X117788571Y-103546190D01*
X117598095Y-103498571D01*
X117502857Y-103450952D01*
X117455238Y-103403333D01*
X117407619Y-103308095D01*
X117407619Y-103212857D01*
X117455238Y-103117619D01*
X117502857Y-103070000D01*
X117598095Y-103022380D01*
X117788571Y-102974761D01*
X118026666Y-102974761D01*
X118217142Y-103022380D01*
X118312380Y-103070000D01*
X118360000Y-103117619D01*
X118407619Y-103212857D01*
%TO.C,J2*%
X89492381Y-107278545D02*
X89628673Y-106577383D01*
X89702676Y-106446237D01*
X89814336Y-106370921D01*
X89963655Y-106351435D01*
X90057143Y-106369607D01*
X89089856Y-107103282D02*
X89034026Y-107140940D01*
X88931451Y-107169512D01*
X88697730Y-107124081D01*
X88613328Y-107059164D01*
X88575670Y-107003334D01*
X88547098Y-106900760D01*
X88565271Y-106807271D01*
X88639273Y-106676125D01*
X89309237Y-106224229D01*
X88701563Y-106106109D01*
%TO.C,J3*%
X98642380Y-110003333D02*
X99356666Y-110003333D01*
X99499523Y-110050952D01*
X99594761Y-110146190D01*
X99642380Y-110289047D01*
X99642380Y-110384285D01*
X98642380Y-109622380D02*
X98642380Y-109003333D01*
X99023333Y-109336666D01*
X99023333Y-109193809D01*
X99070952Y-109098571D01*
X99118571Y-109050952D01*
X99213809Y-109003333D01*
X99451904Y-109003333D01*
X99547142Y-109050952D01*
X99594761Y-109098571D01*
X99642380Y-109193809D01*
X99642380Y-109479523D01*
X99594761Y-109574761D01*
X99547142Y-109622380D01*
%TO.C,J6*%
X110166666Y-111352380D02*
X110166666Y-112066666D01*
X110119047Y-112209523D01*
X110023809Y-112304761D01*
X109880952Y-112352380D01*
X109785714Y-112352380D01*
X111071428Y-111352380D02*
X110880952Y-111352380D01*
X110785714Y-111400000D01*
X110738095Y-111447619D01*
X110642857Y-111590476D01*
X110595238Y-111780952D01*
X110595238Y-112161904D01*
X110642857Y-112257142D01*
X110690476Y-112304761D01*
X110785714Y-112352380D01*
X110976190Y-112352380D01*
X111071428Y-112304761D01*
X111119047Y-112257142D01*
X111166666Y-112161904D01*
X111166666Y-111923809D01*
X111119047Y-111828571D01*
X111071428Y-111780952D01*
X110976190Y-111733333D01*
X110785714Y-111733333D01*
X110690476Y-111780952D01*
X110642857Y-111828571D01*
X110595238Y-111923809D01*
%TO.C,J7*%
X115702380Y-88058333D02*
X116416666Y-88058333D01*
X116559523Y-88105952D01*
X116654761Y-88201190D01*
X116702380Y-88344047D01*
X116702380Y-88439285D01*
X115702380Y-87677380D02*
X115702380Y-87010714D01*
X116702380Y-87439285D01*
%TO.C,J8*%
X81102380Y-88018333D02*
X81816666Y-88018333D01*
X81959523Y-88065952D01*
X82054761Y-88161190D01*
X82102380Y-88304047D01*
X82102380Y-88399285D01*
X81530952Y-87399285D02*
X81483333Y-87494523D01*
X81435714Y-87542142D01*
X81340476Y-87589761D01*
X81292857Y-87589761D01*
X81197619Y-87542142D01*
X81150000Y-87494523D01*
X81102380Y-87399285D01*
X81102380Y-87208809D01*
X81150000Y-87113571D01*
X81197619Y-87065952D01*
X81292857Y-87018333D01*
X81340476Y-87018333D01*
X81435714Y-87065952D01*
X81483333Y-87113571D01*
X81530952Y-87208809D01*
X81530952Y-87399285D01*
X81578571Y-87494523D01*
X81626190Y-87542142D01*
X81721428Y-87589761D01*
X81911904Y-87589761D01*
X82007142Y-87542142D01*
X82054761Y-87494523D01*
X82102380Y-87399285D01*
X82102380Y-87208809D01*
X82054761Y-87113571D01*
X82007142Y-87065952D01*
X81911904Y-87018333D01*
X81721428Y-87018333D01*
X81626190Y-87065952D01*
X81578571Y-87113571D01*
X81530952Y-87208809D01*
%TO.C,J9*%
X88416666Y-98702380D02*
X88416666Y-99416666D01*
X88369047Y-99559523D01*
X88273809Y-99654761D01*
X88130952Y-99702380D01*
X88035714Y-99702380D01*
X88940476Y-99702380D02*
X89130952Y-99702380D01*
X89226190Y-99654761D01*
X89273809Y-99607142D01*
X89369047Y-99464285D01*
X89416666Y-99273809D01*
X89416666Y-98892857D01*
X89369047Y-98797619D01*
X89321428Y-98750000D01*
X89226190Y-98702380D01*
X89035714Y-98702380D01*
X88940476Y-98750000D01*
X88892857Y-98797619D01*
X88845238Y-98892857D01*
X88845238Y-99130952D01*
X88892857Y-99226190D01*
X88940476Y-99273809D01*
X89035714Y-99321428D01*
X89226190Y-99321428D01*
X89321428Y-99273809D01*
X89369047Y-99226190D01*
X89416666Y-99130952D01*
%TO.C,J10*%
X98766666Y-85452380D02*
X99385714Y-85452380D01*
X99052380Y-85833333D01*
X99195238Y-85833333D01*
X99290476Y-85880952D01*
X99338095Y-85928571D01*
X99385714Y-86023809D01*
X99385714Y-86261904D01*
X99338095Y-86357142D01*
X99290476Y-86404761D01*
X99195238Y-86452380D01*
X98909523Y-86452380D01*
X98814285Y-86404761D01*
X98766666Y-86357142D01*
X94185714Y-86452380D02*
X93614285Y-86452380D01*
X93900000Y-86452380D02*
X93900000Y-85452380D01*
X93804761Y-85595238D01*
X93709523Y-85690476D01*
X93614285Y-85738095D01*
%TO.C,J11*%
X101135714Y-86452380D02*
X100564285Y-86452380D01*
X100850000Y-86452380D02*
X100850000Y-85452380D01*
X100754761Y-85595238D01*
X100659523Y-85690476D01*
X100564285Y-85738095D01*
X105716666Y-85452380D02*
X106335714Y-85452380D01*
X106002380Y-85833333D01*
X106145238Y-85833333D01*
X106240476Y-85880952D01*
X106288095Y-85928571D01*
X106335714Y-86023809D01*
X106335714Y-86261904D01*
X106288095Y-86357142D01*
X106240476Y-86404761D01*
X106145238Y-86452380D01*
X105859523Y-86452380D01*
X105764285Y-86404761D01*
X105716666Y-86357142D01*
D10*
%TO.C,J2*%
X98042921Y-107322594D02*
X96636659Y-114557186D01*
X87674403Y-112815100D02*
X86883584Y-111642664D01*
X86883584Y-111642664D02*
X87908229Y-106371326D01*
X96636659Y-114557186D02*
X87674403Y-112815100D01*
X87908229Y-106371326D02*
X89080665Y-105580508D01*
X89080665Y-105580508D02*
X98042921Y-107322594D01*
%TO.C,J3*%
X101560000Y-113930000D02*
X101360000Y-113930000D01*
X105170000Y-110530000D02*
X105670000Y-110530000D01*
X105670000Y-108630000D02*
X105170000Y-108630000D01*
X106280000Y-115690000D02*
X106280000Y-105570000D01*
X102170000Y-113130000D02*
X102170000Y-115080000D01*
X105170000Y-112530000D02*
X105670000Y-112530000D01*
X102170000Y-106180000D02*
X102170000Y-108130000D01*
X101560000Y-113130000D02*
X102170000Y-113130000D01*
X105670000Y-108730000D02*
X105170000Y-108730000D01*
X105170000Y-108530000D02*
X105670000Y-108530000D01*
X104170000Y-105570000D02*
X104170000Y-106180000D01*
X104170000Y-115690000D02*
X104170000Y-115080000D01*
X105170000Y-108730000D02*
X105170000Y-108530000D01*
X105170000Y-110730000D02*
X105170000Y-110530000D01*
X102170000Y-108130000D02*
X101560000Y-108130000D01*
X101460000Y-113930000D02*
X101460000Y-114230000D01*
X105670000Y-112730000D02*
X105170000Y-112730000D01*
X101360000Y-114230000D02*
X101560000Y-114230000D01*
X106280000Y-105570000D02*
X101560000Y-105570000D01*
X105670000Y-112630000D02*
X105170000Y-112630000D01*
X101560000Y-105570000D02*
X101560000Y-115690000D01*
X101260000Y-114740000D02*
X101260000Y-115990000D01*
X102870000Y-115690000D02*
X102870000Y-115080000D01*
X102870000Y-105570000D02*
X102870000Y-106180000D01*
X101260000Y-115990000D02*
X102510000Y-115990000D01*
X105670000Y-115080000D02*
X105670000Y-106180000D01*
X101560000Y-115690000D02*
X106280000Y-115690000D01*
X105170000Y-112730000D02*
X105170000Y-112530000D01*
X102170000Y-115080000D02*
X105670000Y-115080000D01*
X105670000Y-110630000D02*
X105170000Y-110630000D01*
X105670000Y-110730000D02*
X105170000Y-110730000D01*
X105670000Y-106180000D02*
X102170000Y-106180000D01*
X101360000Y-113930000D02*
X101360000Y-114230000D01*
%TO.C,J6*%
X114070000Y-110790000D02*
X114070000Y-109540000D01*
X108260000Y-109880000D02*
X110210000Y-109880000D01*
X113770000Y-105770000D02*
X107650000Y-105770000D01*
X113160000Y-109880000D02*
X113160000Y-106380000D01*
X111210000Y-110490000D02*
X111210000Y-109880000D01*
X113770000Y-107880000D02*
X113160000Y-107880000D01*
X111210000Y-109880000D02*
X113160000Y-109880000D01*
X112010000Y-110590000D02*
X112310000Y-110590000D01*
X107650000Y-110490000D02*
X113770000Y-110490000D01*
X107650000Y-109180000D02*
X108260000Y-109180000D01*
X110810000Y-106380000D02*
X110810000Y-106880000D01*
X112010000Y-110690000D02*
X112310000Y-110690000D01*
X113160000Y-106380000D02*
X108260000Y-106380000D01*
X112310000Y-110690000D02*
X112310000Y-110490000D01*
X113770000Y-110490000D02*
X113770000Y-105770000D01*
X112010000Y-110490000D02*
X112010000Y-110690000D01*
X113770000Y-109180000D02*
X113160000Y-109180000D01*
X110710000Y-106380000D02*
X110710000Y-106880000D01*
X110810000Y-106880000D02*
X110610000Y-106880000D01*
X107650000Y-105770000D02*
X107650000Y-110490000D01*
X107650000Y-107880000D02*
X108260000Y-107880000D01*
X110210000Y-109880000D02*
X110210000Y-110490000D01*
X110610000Y-106880000D02*
X110610000Y-106380000D01*
X108260000Y-106380000D02*
X108260000Y-109880000D01*
X112820000Y-110790000D02*
X114070000Y-110790000D01*
%TO.C,J7*%
X117700000Y-96985000D02*
X117700000Y-96375000D01*
X116700000Y-92025000D02*
X116200000Y-92025000D01*
X116200000Y-93825000D02*
X116700000Y-93825000D01*
X120610000Y-88565000D02*
X119360000Y-88565000D01*
X116700000Y-93825000D02*
X116700000Y-94025000D01*
X120310000Y-90625000D02*
X120510000Y-90625000D01*
X115590000Y-88865000D02*
X115590000Y-96985000D01*
X117700000Y-88865000D02*
X117700000Y-89475000D01*
X116200000Y-89475000D02*
X116200000Y-96375000D01*
X120310000Y-88865000D02*
X115590000Y-88865000D01*
X116700000Y-91825000D02*
X116700000Y-92025000D01*
X120310000Y-96985000D02*
X120310000Y-88865000D01*
X119700000Y-94425000D02*
X120310000Y-94425000D01*
X120310000Y-91425000D02*
X119700000Y-91425000D01*
X119700000Y-91425000D02*
X119700000Y-89475000D01*
X120510000Y-90625000D02*
X120510000Y-90325000D01*
X120410000Y-90625000D02*
X120410000Y-90325000D01*
X120510000Y-90325000D02*
X120310000Y-90325000D01*
X116700000Y-94025000D02*
X116200000Y-94025000D01*
X119000000Y-88865000D02*
X119000000Y-89475000D01*
X116200000Y-96375000D02*
X119700000Y-96375000D01*
X119000000Y-96985000D02*
X119000000Y-96375000D01*
X119700000Y-96375000D02*
X119700000Y-94425000D01*
X115590000Y-96985000D02*
X120310000Y-96985000D01*
X116200000Y-93925000D02*
X116700000Y-93925000D01*
X120610000Y-89815000D02*
X120610000Y-88565000D01*
X116200000Y-91825000D02*
X116700000Y-91825000D01*
X119700000Y-89475000D02*
X116200000Y-89475000D01*
X116200000Y-91925000D02*
X116700000Y-91925000D01*
%TO.C,J8*%
X80700000Y-88865000D02*
X80700000Y-89475000D01*
X84110000Y-88865000D02*
X79390000Y-88865000D01*
X79390000Y-96985000D02*
X84110000Y-96985000D01*
X79390000Y-95225000D02*
X79190000Y-95225000D01*
X83000000Y-91825000D02*
X83500000Y-91825000D01*
X79390000Y-94425000D02*
X80000000Y-94425000D01*
X80000000Y-89475000D02*
X80000000Y-91425000D01*
X80000000Y-96375000D02*
X83500000Y-96375000D01*
X82000000Y-96985000D02*
X82000000Y-96375000D01*
X83500000Y-91925000D02*
X83000000Y-91925000D01*
X79190000Y-95525000D02*
X79390000Y-95525000D01*
X83500000Y-93925000D02*
X83000000Y-93925000D01*
X82000000Y-88865000D02*
X82000000Y-89475000D01*
X83500000Y-94025000D02*
X83000000Y-94025000D01*
X79190000Y-95225000D02*
X79190000Y-95525000D01*
X83500000Y-89475000D02*
X80000000Y-89475000D01*
X79090000Y-96035000D02*
X79090000Y-97285000D01*
X83000000Y-92025000D02*
X83000000Y-91825000D01*
X80000000Y-91425000D02*
X79390000Y-91425000D01*
X79390000Y-88865000D02*
X79390000Y-96985000D01*
X84110000Y-96985000D02*
X84110000Y-88865000D01*
X79090000Y-97285000D02*
X80340000Y-97285000D01*
X83000000Y-94025000D02*
X83000000Y-93825000D01*
X83500000Y-96375000D02*
X83500000Y-89475000D01*
X83000000Y-93825000D02*
X83500000Y-93825000D01*
X79290000Y-95225000D02*
X79290000Y-95525000D01*
X80000000Y-94425000D02*
X80000000Y-96375000D01*
X83500000Y-92025000D02*
X83000000Y-92025000D01*
X80700000Y-96985000D02*
X80700000Y-96375000D01*
%TO.C,J9*%
X85165000Y-91930000D02*
X114535000Y-91930000D01*
X84165000Y-102060000D02*
X84165000Y-92930000D01*
X115535000Y-92930000D02*
X115535000Y-102060000D01*
X84165000Y-92930000D02*
X85165000Y-91930000D01*
X114535000Y-91930000D02*
X115535000Y-92930000D01*
X115535000Y-102060000D02*
X84165000Y-102060000D01*
%TO.C,J10*%
X95100000Y-85000000D02*
X97900000Y-85000000D01*
X94450000Y-86300000D02*
X94450000Y-85700000D01*
X98550000Y-85700000D02*
X98550000Y-86300000D01*
X97900000Y-87000000D02*
X95100000Y-87000000D01*
X94450000Y-86300000D02*
G75*
G03*
X95150000Y-87000000I699999J-1D01*
G01*
X98550000Y-85700000D02*
G75*
G03*
X97850000Y-85000000I-699999J1D01*
G01*
X97850000Y-87000000D02*
G75*
G03*
X98550000Y-86300000I1J699999D01*
G01*
X95150000Y-85000000D02*
G75*
G03*
X94450000Y-85700000I-1J-699999D01*
G01*
%TO.C,J11*%
X105500000Y-85700000D02*
X105500000Y-86300000D01*
X104850000Y-87000000D02*
X102050000Y-87000000D01*
X101400000Y-86300000D02*
X101400000Y-85700000D01*
X102050000Y-85000000D02*
X104850000Y-85000000D01*
X102100000Y-85000000D02*
G75*
G03*
X101400000Y-85700000I-1J-699999D01*
G01*
X104800000Y-87000000D02*
G75*
G03*
X105500000Y-86300000I1J699999D01*
G01*
X105500000Y-85700000D02*
G75*
G03*
X104800000Y-85000000I-699999J1D01*
G01*
X101400000Y-86300000D02*
G75*
G03*
X102100000Y-87000000I699999J-1D01*
G01*
%TO.C,svg2mod*%
G36*
X78951234Y-102506829D02*
G01*
X78991962Y-102523699D01*
X79032187Y-102540861D01*
X79071913Y-102558310D01*
X79111143Y-102576042D01*
X79149882Y-102594052D01*
X79188131Y-102612337D01*
X79225896Y-102630892D01*
X79263179Y-102649713D01*
X79299984Y-102668795D01*
X79336316Y-102688135D01*
X79372176Y-102707727D01*
X79407570Y-102727568D01*
X79442500Y-102747654D01*
X79476971Y-102767980D01*
X79510985Y-102788542D01*
X79544546Y-102809336D01*
X79577658Y-102830356D01*
X79610325Y-102851601D01*
X79642550Y-102873063D01*
X79674336Y-102894741D01*
X79705687Y-102916629D01*
X79736608Y-102938723D01*
X79767101Y-102961018D01*
X79797169Y-102983511D01*
X79826817Y-103006198D01*
X79856049Y-103029073D01*
X79884867Y-103052133D01*
X79913275Y-103075373D01*
X79941277Y-103098790D01*
X79968877Y-103122378D01*
X79996078Y-103146134D01*
X80022883Y-103170054D01*
X80049297Y-103194132D01*
X80075322Y-103218365D01*
X80100962Y-103242749D01*
X80126222Y-103267279D01*
X80151104Y-103291951D01*
X80175612Y-103316761D01*
X80199750Y-103341704D01*
X80223521Y-103366776D01*
X80246929Y-103391974D01*
X80269978Y-103417292D01*
X80292670Y-103442726D01*
X80315010Y-103468272D01*
X80337001Y-103493927D01*
X80358647Y-103519684D01*
X80379952Y-103545542D01*
X80400918Y-103571494D01*
X80421550Y-103597537D01*
X80441851Y-103623666D01*
X80461824Y-103649878D01*
X80481474Y-103676167D01*
X80500804Y-103702530D01*
X80519817Y-103728963D01*
X80538517Y-103755461D01*
X80556907Y-103782019D01*
X80574992Y-103808635D01*
X80592774Y-103835302D01*
X80610258Y-103862018D01*
X80627447Y-103888777D01*
X80644344Y-103915576D01*
X80660954Y-103942410D01*
X80677279Y-103969275D01*
X80693323Y-103996167D01*
X80709090Y-104023082D01*
X80724583Y-104050014D01*
X80739807Y-104076960D01*
X80754764Y-104103916D01*
X80769458Y-104130878D01*
X80783893Y-104157840D01*
X80798072Y-104184800D01*
X80811999Y-104211751D01*
X80825678Y-104238691D01*
X80839111Y-104265616D01*
X80852303Y-104292519D01*
X80865258Y-104319399D01*
X80877978Y-104346249D01*
X80890468Y-104373067D01*
X80902731Y-104399847D01*
X80914770Y-104426585D01*
X80926589Y-104453278D01*
X80938192Y-104479920D01*
X80949582Y-104506509D01*
X80960764Y-104533038D01*
X80971739Y-104559504D01*
X80982513Y-104585904D01*
X80993088Y-104612231D01*
X81003469Y-104638483D01*
X81013658Y-104664655D01*
X81023660Y-104690743D01*
X81033478Y-104716742D01*
X81043115Y-104742648D01*
X81052575Y-104768457D01*
X81061862Y-104794165D01*
X81070980Y-104819767D01*
X81079931Y-104845259D01*
X81088719Y-104870637D01*
X81097349Y-104895896D01*
X81105823Y-104921033D01*
X81114146Y-104946043D01*
X81122320Y-104970921D01*
X81130350Y-104995664D01*
X81138238Y-105020267D01*
X81145989Y-105044726D01*
X81153606Y-105069037D01*
X81161093Y-105093195D01*
X81168453Y-105117196D01*
X81175690Y-105141036D01*
X81182807Y-105164711D01*
X81189809Y-105188216D01*
X81196698Y-105211547D01*
X81203478Y-105234699D01*
X81210153Y-105257670D01*
X81216726Y-105280453D01*
X81223201Y-105303045D01*
X81229582Y-105325442D01*
X81235872Y-105347640D01*
X81242074Y-105369633D01*
X81248193Y-105391419D01*
X81254231Y-105412992D01*
X81260193Y-105434348D01*
X81266082Y-105455484D01*
X81271902Y-105476394D01*
X81277656Y-105497075D01*
X81283347Y-105517522D01*
X81288980Y-105537731D01*
X81294557Y-105557698D01*
X81300084Y-105577418D01*
X81305562Y-105596887D01*
X81310996Y-105616101D01*
X81316389Y-105635056D01*
X81321745Y-105653747D01*
X81327067Y-105672171D01*
X81332359Y-105690322D01*
X81337625Y-105708197D01*
X81342868Y-105725791D01*
X81348092Y-105743100D01*
X81353300Y-105760120D01*
X81358496Y-105776846D01*
X81363684Y-105793274D01*
X81368866Y-105809401D01*
X81374047Y-105825221D01*
X81379231Y-105840730D01*
X81384420Y-105855925D01*
X81389618Y-105870800D01*
X81394830Y-105885353D01*
X81400058Y-105899577D01*
X81405306Y-105913469D01*
X81410578Y-105927026D01*
X81415877Y-105940241D01*
X81421207Y-105953112D01*
X81426572Y-105965634D01*
X81431974Y-105977803D01*
X81437418Y-105989614D01*
X81442908Y-106001063D01*
X81448446Y-106012146D01*
X81454037Y-106022859D01*
X81459683Y-106033197D01*
X81465389Y-106043156D01*
X81471158Y-106052732D01*
X81476994Y-106061921D01*
X81482900Y-106070718D01*
X81488880Y-106079119D01*
X81494938Y-106087119D01*
X81501076Y-106094715D01*
X81507299Y-106101902D01*
X81513611Y-106108677D01*
X81520014Y-106115033D01*
X81526512Y-106120969D01*
X81533109Y-106126478D01*
X81539809Y-106131557D01*
X81546615Y-106136202D01*
X81573561Y-106153136D01*
X81600411Y-106168084D01*
X81627153Y-106181096D01*
X81653774Y-106192222D01*
X81680262Y-106201513D01*
X81706605Y-106209017D01*
X81732789Y-106214786D01*
X81758803Y-106218868D01*
X81784635Y-106221315D01*
X81810271Y-106222175D01*
X81835700Y-106221498D01*
X81860908Y-106219336D01*
X81885885Y-106215737D01*
X81910616Y-106210752D01*
X81935090Y-106204430D01*
X81959295Y-106196822D01*
X81983218Y-106187977D01*
X82006846Y-106177945D01*
X82030167Y-106166777D01*
X82053170Y-106154522D01*
X82075840Y-106141230D01*
X82098167Y-106126951D01*
X82120137Y-106111736D01*
X82141738Y-106095633D01*
X82162957Y-106078693D01*
X82183783Y-106060966D01*
X82204203Y-106042502D01*
X82224205Y-106023350D01*
X82243775Y-106003562D01*
X82262903Y-105983186D01*
X82281574Y-105962272D01*
X82299777Y-105940871D01*
X82317500Y-105919033D01*
X82334730Y-105896807D01*
X82351454Y-105874243D01*
X82367661Y-105851391D01*
X82383337Y-105828302D01*
X82398471Y-105805025D01*
X82413050Y-105781610D01*
X82427061Y-105758107D01*
X82440493Y-105734566D01*
X82453332Y-105711038D01*
X82447326Y-105736814D01*
X82442671Y-105762203D01*
X82439332Y-105787171D01*
X82437274Y-105811689D01*
X82436464Y-105835725D01*
X82436866Y-105859248D01*
X82438446Y-105882226D01*
X82441169Y-105904628D01*
X82445002Y-105926423D01*
X82449908Y-105947580D01*
X82455855Y-105968068D01*
X82462807Y-105987855D01*
X82470729Y-106006910D01*
X82479588Y-106025201D01*
X82489348Y-106042698D01*
X82499976Y-106059370D01*
X82511436Y-106075185D01*
X82523694Y-106090111D01*
X82536715Y-106104118D01*
X82550465Y-106117175D01*
X82564910Y-106129250D01*
X82580015Y-106140311D01*
X82595744Y-106150329D01*
X82612065Y-106159270D01*
X82628942Y-106167105D01*
X82646340Y-106173802D01*
X82664226Y-106179330D01*
X82682564Y-106183657D01*
X82701320Y-106186752D01*
X82720460Y-106188585D01*
X82739948Y-106189123D01*
X82759751Y-106188336D01*
X82779834Y-106186192D01*
X82800162Y-106182660D01*
X82820701Y-106177709D01*
X82841416Y-106171308D01*
X82862273Y-106163425D01*
X82883237Y-106154029D01*
X82904274Y-106143089D01*
X82925348Y-106130574D01*
X82946426Y-106116452D01*
X82967473Y-106100692D01*
X82988455Y-106083263D01*
X83009336Y-106064134D01*
X83030083Y-106043274D01*
X83050661Y-106020651D01*
X83071035Y-105996233D01*
X83091170Y-105969991D01*
X83111033Y-105941892D01*
X83107015Y-105971192D01*
X83102840Y-106000183D01*
X83098534Y-106028853D01*
X83094123Y-106057195D01*
X83089634Y-106085198D01*
X83085092Y-106112854D01*
X83080523Y-106140152D01*
X83075954Y-106167083D01*
X83071411Y-106193638D01*
X83066919Y-106219807D01*
X83062505Y-106245581D01*
X83058194Y-106270950D01*
X83054013Y-106295905D01*
X83049987Y-106320437D01*
X83046144Y-106344536D01*
X83042508Y-106368192D01*
X83039106Y-106391396D01*
X83035964Y-106414140D01*
X83033108Y-106436412D01*
X83030564Y-106458204D01*
X83028358Y-106479507D01*
X83026516Y-106500311D01*
X83025064Y-106520606D01*
X83024028Y-106540383D01*
X83023434Y-106559633D01*
X83023309Y-106578345D01*
X83023678Y-106596512D01*
X83024567Y-106614123D01*
X83026003Y-106631168D01*
X83028011Y-106647639D01*
X83030618Y-106663526D01*
X83033849Y-106678819D01*
X83037730Y-106693510D01*
X83042288Y-106707587D01*
X83047549Y-106721043D01*
X83053539Y-106733868D01*
X83060283Y-106746052D01*
X83067808Y-106757585D01*
X83076140Y-106768459D01*
X83085304Y-106778664D01*
X83095328Y-106788191D01*
X83106236Y-106797029D01*
X83118056Y-106805170D01*
X83130812Y-106812604D01*
X83144532Y-106819321D01*
X83159240Y-106825313D01*
X83174964Y-106830570D01*
X83191729Y-106835082D01*
X83209561Y-106838839D01*
X83228487Y-106841834D01*
X83248532Y-106844055D01*
X83269722Y-106845494D01*
X83292084Y-106846140D01*
X83315643Y-106845986D01*
X83340425Y-106845021D01*
X83366457Y-106843235D01*
X83393765Y-106840620D01*
X83422375Y-106837165D01*
X83452312Y-106832862D01*
X83483602Y-106827701D01*
X83516273Y-106821672D01*
X83550349Y-106814767D01*
X83585858Y-106806975D01*
X83622824Y-106798287D01*
X83661274Y-106788694D01*
X83701234Y-106778187D01*
X83722159Y-106772505D01*
X83743283Y-106766666D01*
X83764603Y-106760676D01*
X83786118Y-106754540D01*
X83807824Y-106748263D01*
X83829719Y-106741849D01*
X83851802Y-106735303D01*
X83874069Y-106728631D01*
X83896519Y-106721837D01*
X83919150Y-106714927D01*
X83941959Y-106707905D01*
X83964944Y-106700777D01*
X83988103Y-106693547D01*
X84011433Y-106686220D01*
X84034933Y-106678801D01*
X84058599Y-106671296D01*
X84082431Y-106663708D01*
X84106424Y-106656044D01*
X84130578Y-106648308D01*
X84154891Y-106640505D01*
X84179358Y-106632640D01*
X84203980Y-106624718D01*
X84228752Y-106616745D01*
X84253674Y-106608724D01*
X84278742Y-106600661D01*
X84303955Y-106592561D01*
X84329310Y-106584428D01*
X84354806Y-106576269D01*
X84380439Y-106568087D01*
X84406207Y-106559888D01*
X84432109Y-106551677D01*
X84458142Y-106543458D01*
X84484304Y-106535237D01*
X84510592Y-106527019D01*
X84537004Y-106518808D01*
X84563539Y-106510610D01*
X84590193Y-106502430D01*
X84616965Y-106494271D01*
X84643853Y-106486141D01*
X84670853Y-106478042D01*
X84697964Y-106469981D01*
X84725184Y-106461963D01*
X84752510Y-106453992D01*
X84779940Y-106446073D01*
X84807472Y-106438211D01*
X84835103Y-106430411D01*
X84862832Y-106422679D01*
X84890656Y-106415019D01*
X84918573Y-106407436D01*
X84946580Y-106399935D01*
X84974676Y-106392521D01*
X85002857Y-106385199D01*
X85031123Y-106377974D01*
X85059470Y-106370851D01*
X85087897Y-106363835D01*
X85116400Y-106356931D01*
X85144979Y-106350143D01*
X85173630Y-106343478D01*
X85202351Y-106336939D01*
X85231141Y-106330532D01*
X85259997Y-106324262D01*
X85288916Y-106318133D01*
X85317896Y-106312151D01*
X85346936Y-106306321D01*
X85376032Y-106300647D01*
X85405183Y-106295135D01*
X85434387Y-106289789D01*
X85463640Y-106284615D01*
X85492942Y-106279617D01*
X85522289Y-106274801D01*
X85551679Y-106270171D01*
X85581111Y-106265732D01*
X85610582Y-106261490D01*
X85640089Y-106257449D01*
X85669630Y-106253614D01*
X85699204Y-106249991D01*
X85728808Y-106246583D01*
X85758439Y-106243397D01*
X85788096Y-106240437D01*
X85817776Y-106237708D01*
X85847476Y-106235215D01*
X85877196Y-106232963D01*
X85906932Y-106230957D01*
X85936682Y-106229202D01*
X85966444Y-106227703D01*
X85996216Y-106226465D01*
X86025995Y-106225493D01*
X86055779Y-106224791D01*
X86085566Y-106224365D01*
X86115354Y-106224220D01*
X86145141Y-106224361D01*
X86174923Y-106224793D01*
X86204700Y-106225520D01*
X86234468Y-106226547D01*
X86264226Y-106227881D01*
X86293970Y-106229524D01*
X86323700Y-106231484D01*
X86353413Y-106233764D01*
X86383106Y-106236369D01*
X86412777Y-106239305D01*
X86442424Y-106242576D01*
X86472045Y-106246187D01*
X86501638Y-106250144D01*
X86531199Y-106254451D01*
X86560728Y-106259113D01*
X86590221Y-106264136D01*
X86619677Y-106269523D01*
X86649093Y-106275281D01*
X86678467Y-106281414D01*
X86707797Y-106287927D01*
X86737080Y-106294825D01*
X86766314Y-106302113D01*
X86795498Y-106309797D01*
X86824628Y-106317880D01*
X86853703Y-106326368D01*
X86882720Y-106335266D01*
X86911677Y-106344578D01*
X86940572Y-106354311D01*
X86969402Y-106364468D01*
X86998166Y-106375055D01*
X87026860Y-106386077D01*
X87055484Y-106397539D01*
X87084034Y-106409445D01*
X87112508Y-106421801D01*
X87140904Y-106434611D01*
X87169220Y-106447881D01*
X87197453Y-106461615D01*
X87225602Y-106475819D01*
X87253664Y-106490498D01*
X87281637Y-106505655D01*
X87309518Y-106521298D01*
X87337305Y-106537429D01*
X87364997Y-106554055D01*
X87392590Y-106571180D01*
X87420083Y-106588810D01*
X87447473Y-106606948D01*
X87474758Y-106625601D01*
X87501936Y-106644773D01*
X87529005Y-106664469D01*
X87555962Y-106684694D01*
X87582805Y-106705453D01*
X87609532Y-106726752D01*
X87580384Y-106724874D01*
X87551183Y-106723655D01*
X87521941Y-106723089D01*
X87492669Y-106723167D01*
X87463381Y-106723881D01*
X87434089Y-106725224D01*
X87404804Y-106727188D01*
X87375540Y-106729765D01*
X87346308Y-106732946D01*
X87317121Y-106736725D01*
X87287991Y-106741094D01*
X87258930Y-106746044D01*
X87229952Y-106751567D01*
X87201067Y-106757657D01*
X87172289Y-106764305D01*
X87143630Y-106771503D01*
X87115102Y-106779243D01*
X87086717Y-106787518D01*
X87058488Y-106796320D01*
X87030427Y-106805641D01*
X87002547Y-106815472D01*
X86974859Y-106825808D01*
X86947375Y-106836638D01*
X86920110Y-106847956D01*
X86893074Y-106859754D01*
X86866280Y-106872024D01*
X86839740Y-106884758D01*
X86813466Y-106897948D01*
X86787472Y-106911586D01*
X86761769Y-106925666D01*
X86736369Y-106940178D01*
X86711285Y-106955114D01*
X86686529Y-106970468D01*
X86662114Y-106986232D01*
X86638051Y-107002397D01*
X86614354Y-107018955D01*
X86591034Y-107035899D01*
X86568104Y-107053221D01*
X86545576Y-107070913D01*
X86523462Y-107088968D01*
X86501775Y-107107377D01*
X86480527Y-107126132D01*
X86459730Y-107145227D01*
X86439397Y-107164652D01*
X86419540Y-107184400D01*
X86400171Y-107204464D01*
X86381303Y-107224835D01*
X86362948Y-107245506D01*
X86345117Y-107266469D01*
X86327825Y-107287715D01*
X86311082Y-107309238D01*
X86294902Y-107331029D01*
X86279296Y-107353080D01*
X86264276Y-107375384D01*
X86249856Y-107397933D01*
X86236048Y-107420719D01*
X86222863Y-107443734D01*
X86210314Y-107466971D01*
X86198414Y-107490420D01*
X86187174Y-107514076D01*
X86176608Y-107537929D01*
X86166726Y-107561972D01*
X86157543Y-107586197D01*
X86149069Y-107610597D01*
X86141318Y-107635163D01*
X86134301Y-107659888D01*
X86128032Y-107684764D01*
X86122521Y-107709782D01*
X86117782Y-107734936D01*
X86113827Y-107760217D01*
X86110668Y-107785617D01*
X86108318Y-107811130D01*
X86106789Y-107836746D01*
X86106092Y-107862458D01*
X86106242Y-107888258D01*
X86107249Y-107914138D01*
X86085125Y-107898027D01*
X86062675Y-107882980D01*
X86039917Y-107868986D01*
X86016870Y-107856030D01*
X85993552Y-107844099D01*
X85969982Y-107833179D01*
X85946180Y-107823257D01*
X85922162Y-107814320D01*
X85897949Y-107806354D01*
X85873559Y-107799346D01*
X85849009Y-107793282D01*
X85824320Y-107788150D01*
X85799509Y-107783934D01*
X85774596Y-107780622D01*
X85749598Y-107778201D01*
X85724535Y-107776657D01*
X85699425Y-107775977D01*
X85674287Y-107776147D01*
X85649139Y-107777154D01*
X85624000Y-107778984D01*
X85598889Y-107781624D01*
X85573824Y-107785061D01*
X85548824Y-107789280D01*
X85523907Y-107794269D01*
X85499093Y-107800015D01*
X85474399Y-107806503D01*
X85449845Y-107813720D01*
X85425449Y-107821653D01*
X85401230Y-107830289D01*
X85377206Y-107839613D01*
X85353396Y-107849613D01*
X85329819Y-107860276D01*
X85306493Y-107871586D01*
X85283437Y-107883532D01*
X85260669Y-107896100D01*
X85238209Y-107909276D01*
X85216074Y-107923047D01*
X85194284Y-107937400D01*
X85172857Y-107952320D01*
X85151811Y-107967795D01*
X85131166Y-107983812D01*
X85110940Y-108000356D01*
X85091151Y-108017414D01*
X85071819Y-108034973D01*
X85052961Y-108053019D01*
X85034597Y-108071540D01*
X85016745Y-108090521D01*
X84999424Y-108109949D01*
X84982653Y-108129810D01*
X84966449Y-108150092D01*
X84950832Y-108170781D01*
X84935820Y-108191863D01*
X84921432Y-108213325D01*
X84907687Y-108235153D01*
X84894603Y-108257334D01*
X84882199Y-108279855D01*
X84870493Y-108302702D01*
X84859504Y-108325862D01*
X84849251Y-108349320D01*
X84839753Y-108373065D01*
X84831027Y-108397082D01*
X84823093Y-108421358D01*
X84815969Y-108445880D01*
X84809675Y-108470633D01*
X84804227Y-108495606D01*
X84799646Y-108520783D01*
X84795950Y-108546152D01*
X84793157Y-108571700D01*
X84791287Y-108597412D01*
X84790356Y-108623276D01*
X84790386Y-108649278D01*
X84781128Y-108624890D01*
X84771133Y-108600976D01*
X84760418Y-108577537D01*
X84748997Y-108554577D01*
X84736887Y-108532097D01*
X84724103Y-108510102D01*
X84710662Y-108488593D01*
X84696578Y-108467574D01*
X84681869Y-108447047D01*
X84666550Y-108427015D01*
X84650636Y-108407481D01*
X84634144Y-108388447D01*
X84617089Y-108369917D01*
X84599488Y-108351894D01*
X84581355Y-108334379D01*
X84562708Y-108317376D01*
X84543561Y-108300887D01*
X84523930Y-108284916D01*
X84503832Y-108269466D01*
X84483282Y-108254538D01*
X84462296Y-108240135D01*
X84440890Y-108226262D01*
X84419080Y-108212919D01*
X84396881Y-108200111D01*
X84374310Y-108187840D01*
X84351382Y-108176108D01*
X84328113Y-108164919D01*
X84304519Y-108154274D01*
X84280615Y-108144178D01*
X84256418Y-108134633D01*
X84231944Y-108125641D01*
X84207208Y-108117206D01*
X84182226Y-108109330D01*
X84157013Y-108102016D01*
X84131587Y-108095266D01*
X84105962Y-108089085D01*
X84080154Y-108083473D01*
X84054180Y-108078435D01*
X84028055Y-108073972D01*
X84001795Y-108070088D01*
X83975415Y-108066785D01*
X83948932Y-108064067D01*
X83922362Y-108061936D01*
X83895720Y-108060395D01*
X83869022Y-108059446D01*
X83842284Y-108059093D01*
X83815521Y-108059337D01*
X83788750Y-108060183D01*
X83761987Y-108061633D01*
X83735247Y-108063689D01*
X83708546Y-108066354D01*
X83681900Y-108069632D01*
X83655325Y-108073524D01*
X83628837Y-108078034D01*
X83602451Y-108083165D01*
X83576183Y-108088918D01*
X83550049Y-108095298D01*
X83524066Y-108102307D01*
X83498248Y-108109947D01*
X83472612Y-108118222D01*
X83447173Y-108127134D01*
X83421948Y-108136686D01*
X83396951Y-108146881D01*
X83372200Y-108157721D01*
X83347710Y-108169209D01*
X83323496Y-108181349D01*
X83299575Y-108194143D01*
X83275962Y-108207593D01*
X83252673Y-108221703D01*
X83229724Y-108236475D01*
X83207132Y-108251912D01*
X83184910Y-108268017D01*
X83163077Y-108284792D01*
X83141646Y-108302241D01*
X83120635Y-108320367D01*
X83100059Y-108339171D01*
X83079934Y-108358657D01*
X83060275Y-108378827D01*
X83041099Y-108399685D01*
X83022421Y-108421233D01*
X83004258Y-108443474D01*
X83009060Y-108411754D01*
X83012993Y-108380770D01*
X83016070Y-108350517D01*
X83018307Y-108320992D01*
X83019719Y-108292190D01*
X83020320Y-108264107D01*
X83020125Y-108236738D01*
X83019149Y-108210079D01*
X83017408Y-108184125D01*
X83014915Y-108158873D01*
X83011686Y-108134317D01*
X83007736Y-108110454D01*
X83003079Y-108087278D01*
X82997731Y-108064787D01*
X82991706Y-108042974D01*
X82985018Y-108021837D01*
X82977684Y-108001370D01*
X82969718Y-107981569D01*
X82961134Y-107962430D01*
X82951948Y-107943949D01*
X82942175Y-107926121D01*
X82931828Y-107908941D01*
X82920924Y-107892405D01*
X82909477Y-107876510D01*
X82897502Y-107861250D01*
X82885014Y-107846621D01*
X82872027Y-107832620D01*
X82858557Y-107819240D01*
X82844618Y-107806479D01*
X82830225Y-107794331D01*
X82815394Y-107782793D01*
X82800138Y-107771859D01*
X82784473Y-107761527D01*
X82768414Y-107751790D01*
X82751976Y-107742645D01*
X82735173Y-107734088D01*
X82718021Y-107726114D01*
X82700533Y-107718719D01*
X82682726Y-107711897D01*
X82664613Y-107705646D01*
X82646211Y-107699961D01*
X82627532Y-107694837D01*
X82608594Y-107690269D01*
X82589410Y-107686254D01*
X82569995Y-107682788D01*
X82550364Y-107679865D01*
X82530533Y-107677481D01*
X82510515Y-107675632D01*
X82490326Y-107674314D01*
X82469980Y-107673522D01*
X82449493Y-107673252D01*
X82428879Y-107673500D01*
X82408154Y-107674261D01*
X82387331Y-107675530D01*
X82366427Y-107677304D01*
X82345455Y-107679578D01*
X82324431Y-107682348D01*
X82303369Y-107685609D01*
X82282285Y-107689356D01*
X82261193Y-107693587D01*
X82240108Y-107698295D01*
X82219046Y-107703477D01*
X82198020Y-107709129D01*
X82177046Y-107715246D01*
X82156138Y-107721823D01*
X82135312Y-107728857D01*
X82114582Y-107736342D01*
X82093964Y-107744275D01*
X82073472Y-107752652D01*
X82053120Y-107761467D01*
X82032925Y-107770716D01*
X82012900Y-107780396D01*
X81993060Y-107790501D01*
X81973421Y-107801028D01*
X81953998Y-107811971D01*
X81934804Y-107823327D01*
X81915856Y-107835092D01*
X81897167Y-107847260D01*
X81878753Y-107859827D01*
X81860629Y-107872790D01*
X81842809Y-107886144D01*
X81825309Y-107899883D01*
X81808143Y-107914005D01*
X81791325Y-107928504D01*
X81774872Y-107943377D01*
X81758798Y-107958618D01*
X81743118Y-107974224D01*
X81727845Y-107990190D01*
X81712997Y-108006512D01*
X81698587Y-108023185D01*
X81684630Y-108040205D01*
X81671140Y-108057567D01*
X81658134Y-108075268D01*
X81645626Y-108093303D01*
X81633630Y-108111667D01*
X81622162Y-108130356D01*
X81611236Y-108149366D01*
X81600867Y-108168693D01*
X81591071Y-108188331D01*
X81581861Y-108208277D01*
X81573254Y-108228527D01*
X81583028Y-108186430D01*
X81592017Y-108145122D01*
X81600230Y-108104599D01*
X81607677Y-108064853D01*
X81614369Y-108025881D01*
X81620316Y-107987675D01*
X81625528Y-107950230D01*
X81630015Y-107913542D01*
X81633788Y-107877603D01*
X81636858Y-107842410D01*
X81639233Y-107807955D01*
X81640926Y-107774233D01*
X81641945Y-107741239D01*
X81642302Y-107708968D01*
X81642006Y-107677413D01*
X81641067Y-107646568D01*
X81639497Y-107616430D01*
X81637305Y-107586990D01*
X81634502Y-107558245D01*
X81631098Y-107530189D01*
X81627103Y-107502815D01*
X81622527Y-107476118D01*
X81617381Y-107450094D01*
X81611676Y-107424735D01*
X81605420Y-107400036D01*
X81598625Y-107375993D01*
X81591301Y-107352599D01*
X81583459Y-107329848D01*
X81575107Y-107307735D01*
X81566258Y-107286255D01*
X81556920Y-107265401D01*
X81547105Y-107245169D01*
X81536822Y-107225552D01*
X81526083Y-107206545D01*
X81514896Y-107188143D01*
X81503273Y-107170339D01*
X81491224Y-107153128D01*
X81478758Y-107136505D01*
X81465887Y-107120464D01*
X81452621Y-107104999D01*
X81438969Y-107090104D01*
X81424943Y-107075775D01*
X81410552Y-107062005D01*
X81395806Y-107048789D01*
X81380717Y-107036122D01*
X81365294Y-107023997D01*
X81349548Y-107012409D01*
X81333488Y-107001352D01*
X81317126Y-106990821D01*
X81300471Y-106980811D01*
X81283534Y-106971315D01*
X81266324Y-106962328D01*
X81248853Y-106953844D01*
X81231131Y-106945858D01*
X81213167Y-106938364D01*
X81194973Y-106931357D01*
X81176557Y-106924831D01*
X81157932Y-106918780D01*
X81139107Y-106913199D01*
X81120091Y-106908082D01*
X81100897Y-106903423D01*
X81081533Y-106899217D01*
X81062010Y-106895459D01*
X81042339Y-106892142D01*
X81022529Y-106889261D01*
X81002592Y-106886811D01*
X80982536Y-106884785D01*
X80962373Y-106883179D01*
X80942113Y-106881987D01*
X80921766Y-106881202D01*
X80901343Y-106880820D01*
X80880853Y-106880834D01*
X80860307Y-106881240D01*
X80839715Y-106882031D01*
X80819088Y-106883203D01*
X80798435Y-106884748D01*
X80777768Y-106886663D01*
X80757096Y-106888940D01*
X80736429Y-106891575D01*
X80715779Y-106894562D01*
X80695155Y-106897896D01*
X80674567Y-106901570D01*
X80654026Y-106905579D01*
X80633542Y-106909917D01*
X80613126Y-106914580D01*
X80592787Y-106919560D01*
X80572536Y-106924854D01*
X80552383Y-106930454D01*
X80532339Y-106936356D01*
X80512413Y-106942554D01*
X80492617Y-106949041D01*
X80472960Y-106955814D01*
X80453452Y-106962865D01*
X80434104Y-106970190D01*
X80414927Y-106977783D01*
X80395930Y-106985637D01*
X80377124Y-106993749D01*
X80358519Y-107002111D01*
X80340125Y-107010719D01*
X80321953Y-107019566D01*
X80304012Y-107028647D01*
X80286314Y-107037957D01*
X80268868Y-107047490D01*
X80277773Y-107007798D01*
X80285981Y-106968771D01*
X80293496Y-106930405D01*
X80300322Y-106892697D01*
X80306462Y-106855641D01*
X80311919Y-106819234D01*
X80316699Y-106783472D01*
X80320803Y-106748349D01*
X80324237Y-106713863D01*
X80327003Y-106680008D01*
X80329105Y-106646781D01*
X80330547Y-106614177D01*
X80331333Y-106582191D01*
X80331465Y-106550821D01*
X80330949Y-106520061D01*
X80329786Y-106489907D01*
X80327982Y-106460355D01*
X80325539Y-106431400D01*
X80322462Y-106403039D01*
X80318754Y-106375268D01*
X80314418Y-106348081D01*
X80309459Y-106321475D01*
X80303879Y-106295446D01*
X80297683Y-106269989D01*
X80290875Y-106245099D01*
X80283457Y-106220774D01*
X80275434Y-106197008D01*
X80266808Y-106173797D01*
X80257585Y-106151138D01*
X80247767Y-106129025D01*
X80237358Y-106107454D01*
X80226362Y-106086422D01*
X80214782Y-106065924D01*
X80202622Y-106045956D01*
X80189886Y-106026513D01*
X80176577Y-106007592D01*
X80162700Y-105989188D01*
X80148256Y-105971296D01*
X80133251Y-105953913D01*
X80117688Y-105937035D01*
X80101571Y-105920656D01*
X80084902Y-105904774D01*
X80067687Y-105889383D01*
X80049928Y-105874479D01*
X80031629Y-105860058D01*
X80012794Y-105846117D01*
X79993426Y-105832650D01*
X79973530Y-105819653D01*
X79953108Y-105807122D01*
X79932164Y-105795054D01*
X79910703Y-105783443D01*
X79888727Y-105772285D01*
X79866240Y-105761576D01*
X79843246Y-105751313D01*
X79819749Y-105741490D01*
X79795753Y-105732103D01*
X79771260Y-105723149D01*
X79746274Y-105714623D01*
X79720800Y-105706520D01*
X79694841Y-105698837D01*
X79668400Y-105691569D01*
X79641481Y-105684712D01*
X79614088Y-105678261D01*
X79586224Y-105672214D01*
X79557894Y-105666564D01*
X79529100Y-105661308D01*
X79499846Y-105656442D01*
X79470137Y-105651962D01*
X79439975Y-105647862D01*
X79409364Y-105644140D01*
X79419866Y-105640959D01*
X79430476Y-105636922D01*
X79441177Y-105632050D01*
X79451950Y-105626365D01*
X79462778Y-105619888D01*
X79473644Y-105612639D01*
X79484529Y-105604642D01*
X79495415Y-105595915D01*
X79506287Y-105586482D01*
X79517124Y-105576362D01*
X79527911Y-105565578D01*
X79538628Y-105554150D01*
X79549259Y-105542100D01*
X79559786Y-105529449D01*
X79570191Y-105516218D01*
X79580456Y-105502429D01*
X79590565Y-105488102D01*
X79600498Y-105473258D01*
X79610238Y-105457920D01*
X79619769Y-105442108D01*
X79629071Y-105425844D01*
X79638128Y-105409149D01*
X79646921Y-105392043D01*
X79655433Y-105374549D01*
X79663647Y-105356687D01*
X79671544Y-105338478D01*
X79679107Y-105319945D01*
X79686318Y-105301107D01*
X79693160Y-105281987D01*
X79699615Y-105262606D01*
X79705664Y-105242984D01*
X79711292Y-105223144D01*
X79716479Y-105203105D01*
X79721208Y-105182890D01*
X79725462Y-105162520D01*
X79729222Y-105142016D01*
X79732472Y-105121399D01*
X79735193Y-105100690D01*
X79737368Y-105079911D01*
X79738978Y-105059083D01*
X79740007Y-105038226D01*
X79740437Y-105017364D01*
X79740250Y-104996515D01*
X79739428Y-104975702D01*
X79737953Y-104954947D01*
X79735809Y-104934269D01*
X79732977Y-104913691D01*
X79729439Y-104893234D01*
X79725178Y-104872919D01*
X79720177Y-104852766D01*
X79714417Y-104832798D01*
X79707881Y-104813036D01*
X79700551Y-104793500D01*
X79692409Y-104774213D01*
X79683438Y-104755194D01*
X79673620Y-104736467D01*
X79662938Y-104718050D01*
X79651374Y-104699967D01*
X79638909Y-104682238D01*
X79625527Y-104664885D01*
X79611209Y-104647928D01*
X79595939Y-104631389D01*
X79579698Y-104615288D01*
X79562468Y-104599649D01*
X79544233Y-104584490D01*
X79524973Y-104569835D01*
X79504673Y-104555704D01*
X79483313Y-104542117D01*
X79460876Y-104529098D01*
X79437345Y-104516665D01*
X79412702Y-104504842D01*
X79386929Y-104493649D01*
X79360008Y-104483107D01*
X79331923Y-104473238D01*
X79302654Y-104464063D01*
X79272185Y-104455603D01*
X79240497Y-104447879D01*
X79207574Y-104440912D01*
X79173397Y-104434724D01*
X79137948Y-104429336D01*
X79101211Y-104424770D01*
X79063167Y-104421045D01*
X79023799Y-104418185D01*
X78983089Y-104416209D01*
X79014685Y-104386671D01*
X79045059Y-104357171D01*
X79074227Y-104327714D01*
X79102206Y-104298306D01*
X79129013Y-104268950D01*
X79154663Y-104239651D01*
X79179175Y-104210415D01*
X79202564Y-104181246D01*
X79224848Y-104152148D01*
X79246042Y-104123128D01*
X79266163Y-104094189D01*
X79285229Y-104065336D01*
X79303255Y-104036575D01*
X79320259Y-104007909D01*
X79336256Y-103979344D01*
X79351264Y-103950884D01*
X79365299Y-103922535D01*
X79378378Y-103894301D01*
X79390518Y-103866187D01*
X79401735Y-103838198D01*
X79412045Y-103810338D01*
X79421466Y-103782612D01*
X79430013Y-103755025D01*
X79437705Y-103727583D01*
X79444557Y-103700289D01*
X79450585Y-103673149D01*
X79455808Y-103646167D01*
X79460240Y-103619348D01*
X79463899Y-103592697D01*
X79466802Y-103566218D01*
X79468965Y-103539917D01*
X79470404Y-103513799D01*
X79471137Y-103487868D01*
X79471180Y-103462128D01*
X79470550Y-103436585D01*
X79469263Y-103411244D01*
X79467335Y-103386109D01*
X79464785Y-103361185D01*
X79461627Y-103336477D01*
X79457880Y-103311990D01*
X79453558Y-103287729D01*
X79448680Y-103263697D01*
X79443262Y-103239901D01*
X79437320Y-103216345D01*
X79430871Y-103193033D01*
X79423931Y-103169971D01*
X79416518Y-103147163D01*
X79408648Y-103124615D01*
X79400338Y-103102330D01*
X79391603Y-103080314D01*
X79382461Y-103058572D01*
X79372929Y-103037107D01*
X79363023Y-103015926D01*
X79352760Y-102995033D01*
X79342156Y-102974433D01*
X79331228Y-102954130D01*
X79319992Y-102934129D01*
X79308466Y-102914436D01*
X79296666Y-102895054D01*
X79284608Y-102875990D01*
X79272309Y-102857246D01*
X79259787Y-102838829D01*
X79247056Y-102820744D01*
X79234135Y-102802994D01*
X79221039Y-102785585D01*
X79207786Y-102768521D01*
X79194392Y-102751808D01*
X79180873Y-102735449D01*
X79167247Y-102719451D01*
X79153530Y-102703818D01*
X79139738Y-102688554D01*
X79125888Y-102673664D01*
X79111997Y-102659153D01*
X79098081Y-102645027D01*
X79084158Y-102631289D01*
X79070243Y-102617944D01*
X79056354Y-102604998D01*
X79042506Y-102592455D01*
X79028717Y-102580320D01*
X79015004Y-102568598D01*
X79001382Y-102557293D01*
X78987869Y-102546411D01*
X78974481Y-102535956D01*
X78961235Y-102525932D01*
X78948147Y-102516346D01*
X78935234Y-102507200D01*
X78922513Y-102498502D01*
X78910000Y-102490254D01*
X78951234Y-102506829D01*
G37*
%TD*%
M02*
