%TF.GenerationSoftware,KiCad,Pcbnew,(6.0.1)*%
%TF.CreationDate,2022-01-25T15:54:23+01:00*%
%TF.ProjectId,v0_miniAB_batboard,76305f6d-696e-4694-9142-5f626174626f,rev?*%
%TF.SameCoordinates,Original*%
%TF.FileFunction,Profile,NP*%
%FSLAX46Y46*%
G04 Gerber Fmt 4.6, Leading zero omitted, Abs format (unit mm)*
G04 Created by KiCad (PCBNEW (6.0.1)) date 2022-01-25 15:54:23*
%MOMM*%
%LPD*%
G01*
G04 APERTURE LIST*
%TA.AperFunction,Profile*%
%ADD10C,0.200000*%
%TD*%
G04 APERTURE END LIST*
D10*
X103911834Y-82401619D02*
X102969028Y-82224177D01*
X76387470Y-110771757D02*
X76438805Y-110808068D01*
X94258689Y-117017922D02*
X95199036Y-117312793D01*
X87714623Y-80667351D02*
X87668519Y-80652479D01*
X87934038Y-80776032D02*
X87891932Y-80749720D01*
X95199036Y-117312793D02*
X96156164Y-117556207D01*
X108467920Y-83797836D02*
X108317883Y-83796620D01*
X123672433Y-110947499D02*
X123715290Y-110929890D01*
X124311699Y-110196069D02*
X125311699Y-103996049D01*
X76125924Y-92387387D02*
X75735343Y-93179196D01*
X76338283Y-110733051D02*
X76387470Y-110771757D01*
X86887103Y-112207131D02*
X87584675Y-112921856D01*
X114808568Y-110705064D02*
X114631489Y-110834710D01*
X97254377Y-82224177D02*
X96311571Y-82401619D01*
X97128034Y-117747203D02*
X98112606Y-117884818D01*
X113336302Y-112207131D02*
X113996705Y-111450563D01*
X76717191Y-110947090D02*
X76776111Y-110966029D01*
X121453301Y-88810670D02*
X121453301Y-88810670D01*
X74419896Y-98278155D02*
X74513166Y-97398027D01*
X85231309Y-110585571D02*
X85414835Y-110705064D01*
X86676705Y-80904161D02*
X78770104Y-88810670D01*
X88053599Y-80868696D02*
X88014960Y-80835520D01*
X123206200Y-111011369D02*
X123255021Y-111014816D01*
X76896252Y-110994865D02*
X76957239Y-111004716D01*
X121453301Y-88810670D02*
X113546700Y-80904161D01*
X86226700Y-111450563D02*
X86079939Y-111282436D01*
X92070000Y-83784082D02*
X91606143Y-83787844D01*
X96311571Y-82401619D02*
X95377026Y-82629759D01*
X124191743Y-110507235D02*
X124214592Y-110466205D01*
X124167148Y-110547009D02*
X124191743Y-110507235D01*
X122646359Y-90155980D02*
X122071917Y-89467610D01*
X109194801Y-83638145D02*
X109054678Y-83691796D01*
X92436491Y-116277653D02*
X93337160Y-116672554D01*
X75923983Y-110057742D02*
X75939319Y-110118431D01*
X87192806Y-80629599D02*
X87145724Y-80639895D01*
X112289367Y-80776032D02*
X112331473Y-80749720D01*
X122971970Y-111009095D02*
X122925435Y-111003294D01*
X76246617Y-110648863D02*
X76291311Y-110692053D01*
X112208445Y-80835520D02*
X112169806Y-80868696D01*
X87335831Y-80612439D02*
X87287949Y-80615871D01*
X87527360Y-80621591D02*
X87479655Y-80615871D01*
X86792531Y-80804632D02*
X86752649Y-80835520D01*
X115376675Y-110377902D02*
X115181614Y-110476446D01*
X124083470Y-110658353D02*
X124112952Y-110622611D01*
X125768083Y-100951163D02*
X125833149Y-100056951D01*
X112169806Y-80868696D02*
X112132500Y-80904161D01*
X123159327Y-111014485D02*
X123206200Y-111011369D01*
X77328595Y-110998499D02*
X77390297Y-110986367D01*
X123065513Y-111015357D02*
X123018681Y-111013116D01*
X122833108Y-110986367D02*
X117082306Y-109996064D01*
X74574608Y-101845613D02*
X74574608Y-101845613D01*
X100111702Y-81996038D02*
X99156507Y-82021386D01*
X77266643Y-111007424D02*
X77328595Y-110998499D01*
X77142458Y-111015740D02*
X77204558Y-111013163D01*
X102110799Y-117884818D02*
X103095371Y-117747203D01*
X85231309Y-110585571D02*
X85041788Y-110476446D01*
X123351610Y-111014849D02*
X123399261Y-111011522D01*
X76563546Y-91618097D02*
X77047492Y-90873552D01*
X85414835Y-110705064D02*
X85591914Y-110834710D01*
X105024369Y-117312793D02*
X105964716Y-117017922D01*
X103095371Y-117747203D02*
X104067241Y-117556207D01*
X100111702Y-117996064D02*
X100111702Y-117996064D01*
X87099086Y-80652479D02*
X87052982Y-80667351D01*
X123538929Y-110988691D02*
X123584194Y-110976943D01*
X87760106Y-80684511D02*
X87714623Y-80667351D01*
X112935456Y-80615871D02*
X112983161Y-80621591D01*
X124020033Y-110725500D02*
X124052477Y-110692664D01*
X85041788Y-110476446D02*
X84846726Y-110377902D01*
X87479655Y-80615871D02*
X87431773Y-80612439D01*
X76776111Y-110966029D02*
X76835837Y-110981961D01*
X124311699Y-110196069D02*
X124311699Y-110196069D01*
X108018300Y-83760103D02*
X107870042Y-83724569D01*
X102020028Y-82097433D02*
X101066898Y-82021386D01*
X109331009Y-83573869D02*
X109194801Y-83638145D01*
X123914578Y-110814728D02*
X123951024Y-110786576D01*
X117082306Y-109996064D02*
X117082306Y-109996064D01*
X75939319Y-110118431D02*
X75957648Y-110178030D01*
X123584194Y-110976943D02*
X123628715Y-110963197D01*
X123255021Y-111014816D02*
X123303510Y-111015961D01*
X112248328Y-80804632D02*
X112208445Y-80835520D01*
X76491929Y-110841708D02*
X76546448Y-110872453D01*
X125368950Y-103617122D02*
X125395429Y-103427350D01*
X76003030Y-110293561D02*
X76029951Y-110349291D01*
X125803509Y-98278155D02*
X125710238Y-97398027D01*
X117082306Y-109996064D02*
X117082306Y-109996064D01*
X76835837Y-110981961D02*
X76896252Y-110994865D01*
X74390259Y-100056951D02*
X74378688Y-99165206D01*
X86833569Y-80776032D02*
X86792531Y-80804632D01*
X106886245Y-116672554D02*
X107786914Y-116277653D01*
X124235635Y-110423962D02*
X124254814Y-110380549D01*
X86875674Y-80749720D02*
X86833569Y-80776032D01*
X83804150Y-110051361D02*
X83585353Y-110020783D01*
X75957648Y-110178030D02*
X75978907Y-110236440D01*
X124287340Y-110290387D02*
X124300570Y-110243726D01*
X86676705Y-80904161D02*
X86676705Y-80904161D01*
X89880020Y-114805355D02*
X90705881Y-115343092D01*
X124097480Y-92387387D02*
X123659858Y-91618097D01*
X114631489Y-110834710D02*
X114461311Y-110974296D01*
X107723665Y-83677361D02*
X107651382Y-83649343D01*
X93337160Y-116672554D02*
X94258689Y-117017922D01*
X117082306Y-109996064D02*
X117082306Y-109996064D01*
X94452806Y-82908596D02*
X93540976Y-83238131D01*
X88014960Y-80835520D02*
X87975076Y-80804632D01*
X85591914Y-110834710D02*
X85762094Y-110974296D01*
X87804878Y-80703959D02*
X87760106Y-80684511D01*
X86226700Y-111450563D02*
X86226700Y-111450563D01*
X74574608Y-101845613D02*
X75911706Y-109996064D01*
X112839603Y-80611295D02*
X112887574Y-80612439D01*
X109767612Y-83266926D02*
X109709705Y-83318466D01*
X87007499Y-80684511D02*
X86962728Y-80703959D01*
X86714010Y-80868696D02*
X86676705Y-80904161D01*
X75911706Y-109996064D02*
X75923983Y-110057742D01*
X125125227Y-94821454D02*
X124830882Y-93991294D01*
X87145724Y-80639895D02*
X87099086Y-80652479D01*
X76164326Y-110556304D02*
X76204267Y-110603580D01*
X116638052Y-110020783D02*
X116859221Y-110002280D01*
X116638045Y-110020783D02*
X116419248Y-110051361D01*
X115781610Y-110213409D02*
X115576825Y-110290152D01*
X76204267Y-110603580D02*
X76246617Y-110648863D01*
X123399261Y-111011522D02*
X123446404Y-111006025D01*
X105770599Y-82908596D02*
X104846379Y-82629759D01*
X112554886Y-80652479D02*
X112601525Y-80639895D01*
X112508782Y-80667351D02*
X112463299Y-80684511D01*
X125420502Y-103237382D02*
X125420502Y-103237382D01*
X98203377Y-82097433D02*
X97254377Y-82224177D01*
X78151488Y-89467610D02*
X78770104Y-88810670D01*
X125311699Y-103996049D02*
X125341047Y-103806691D01*
X76291311Y-110692053D02*
X76338283Y-110733051D01*
X87891932Y-80749720D02*
X87848849Y-80725696D01*
X113470756Y-80835520D02*
X113509395Y-80868696D01*
X84020124Y-110093800D02*
X84232822Y-110147888D01*
X95377026Y-82629759D02*
X94452806Y-82908596D01*
X113170423Y-80667351D02*
X113215906Y-80684511D01*
X122879130Y-110995718D02*
X122833108Y-110986367D01*
X123951024Y-110786576D02*
X123986195Y-110756819D01*
X76602242Y-110900279D02*
X76659196Y-110925166D01*
X112648607Y-80629599D02*
X112696045Y-80621591D01*
X87052982Y-80667351D02*
X87007499Y-80684511D01*
X123876916Y-110841232D02*
X123914578Y-110814728D01*
X123446404Y-111006025D02*
X123492979Y-110998400D01*
X108617262Y-83787844D02*
X108467920Y-83797836D01*
X112508782Y-80667351D02*
X112554886Y-80652479D01*
X114461311Y-110974296D02*
X114298485Y-111123609D01*
X112289367Y-80776032D02*
X112248328Y-80804632D01*
X87848849Y-80725696D02*
X87804878Y-80703959D01*
X87383802Y-80611295D02*
X87335831Y-80612439D01*
X75978907Y-110236440D02*
X76003030Y-110293561D01*
X76438805Y-110808068D02*
X76491929Y-110841708D01*
X124052477Y-110692664D02*
X124083470Y-110658353D01*
X109462658Y-83499086D02*
X109331009Y-83573869D01*
X125420502Y-103237382D02*
X125648804Y-101845613D01*
X104846379Y-82629759D02*
X103911834Y-82401619D01*
X84020124Y-110093800D02*
X83804150Y-110051361D01*
X87287949Y-80615871D02*
X87240244Y-80621591D01*
X93540976Y-83238131D02*
X92643601Y-83618364D01*
X102969028Y-82224177D02*
X102020028Y-82097433D01*
X87574798Y-80629599D02*
X87527360Y-80621591D01*
X101115563Y-117968093D02*
X102110799Y-117884818D01*
X75392521Y-93991294D02*
X75098176Y-94821454D01*
X76126859Y-110507138D02*
X76164326Y-110556304D01*
X75735343Y-93179196D02*
X75392521Y-93991294D01*
X124272068Y-110336009D02*
X124287340Y-110290387D01*
X113304648Y-80725696D02*
X113347731Y-80749720D01*
X83585353Y-110020783D02*
X83364184Y-110002280D01*
X125833149Y-100056951D02*
X125844718Y-99165206D01*
X96156164Y-117556207D02*
X97128034Y-117747203D01*
X125311699Y-103996049D02*
X125311699Y-103996049D01*
X111906027Y-113593776D02*
X112638730Y-112921856D01*
X74574608Y-101845613D02*
X74455327Y-100951163D01*
X115990577Y-110147888D02*
X115781610Y-110213409D01*
X113260677Y-80703959D02*
X113304648Y-80725696D01*
X88090905Y-80904161D02*
X88053599Y-80868696D01*
X77047492Y-90873552D02*
X77577045Y-90155980D01*
X112696045Y-80621591D02*
X112743750Y-80615871D01*
X99156507Y-82021386D02*
X98203377Y-82097433D01*
X111140232Y-114221929D02*
X111906027Y-113593776D01*
X101066898Y-82021386D02*
X100111702Y-81996038D01*
X108911285Y-83734708D02*
X108765265Y-83766763D01*
X114992094Y-110585571D02*
X114808568Y-110705064D01*
X87621880Y-80639895D02*
X87574798Y-80629599D01*
X87975076Y-80804632D02*
X87934038Y-80776032D01*
X112601525Y-80639895D02*
X112648607Y-80629599D01*
X76029951Y-110349291D02*
X76059607Y-110403531D01*
X115181614Y-110476446D02*
X114992094Y-110585571D01*
X113430874Y-80804632D02*
X113470756Y-80835520D01*
X112743750Y-80615871D02*
X112791632Y-80612439D01*
X109589105Y-83413913D02*
X109462658Y-83499086D01*
X86752649Y-80835520D02*
X86714010Y-80868696D01*
X86918757Y-80725696D02*
X86875674Y-80749720D01*
X86226700Y-111450563D02*
X86887103Y-112207131D01*
X112791632Y-80612439D02*
X112839603Y-80611295D01*
X100111702Y-117996064D02*
X101115563Y-117968093D01*
X125370380Y-95667448D02*
X125125227Y-94821454D01*
X123986195Y-110756819D02*
X124020033Y-110725500D01*
X123659858Y-91618097D02*
X123175912Y-90873552D01*
X99107842Y-117968093D02*
X100111702Y-117996064D01*
X85762094Y-110974296D02*
X85924920Y-111123609D01*
X77204558Y-111013163D02*
X77266643Y-111007424D01*
X125648804Y-101845613D02*
X125768083Y-100951163D01*
X112418527Y-80703959D02*
X112463299Y-80684511D01*
X113347731Y-80749720D02*
X113389836Y-80776032D01*
X109823815Y-83212861D02*
X109767612Y-83266926D01*
X109054678Y-83691796D02*
X108911285Y-83734708D01*
X106682429Y-83238131D02*
X105770599Y-82908596D01*
X100111702Y-117996064D02*
X100111702Y-117996064D01*
X123757225Y-110910416D02*
X123798181Y-110889119D01*
X122071917Y-89467610D02*
X121453301Y-88810670D01*
X113124319Y-80652479D02*
X113170423Y-80667351D01*
X123159327Y-111014485D02*
X123112413Y-111015814D01*
X108317883Y-83796620D02*
X108167795Y-83784082D01*
X76957239Y-111004716D02*
X77018681Y-111011494D01*
X85924920Y-111123609D02*
X86079939Y-111282436D01*
X113509395Y-80868696D02*
X113546700Y-80904161D01*
X83364184Y-110002280D02*
X83141099Y-109996064D01*
X74513166Y-97398027D02*
X74657780Y-96527049D01*
X112638730Y-112921856D02*
X113336302Y-112207131D01*
X88317378Y-113593776D02*
X89083172Y-114221929D01*
X125844718Y-99165206D02*
X125803509Y-98278155D01*
X84646576Y-110290152D02*
X84846726Y-110377902D01*
X110343385Y-114805355D02*
X111140232Y-114221929D01*
X112331473Y-80749720D02*
X112374556Y-80725696D01*
X113077681Y-80639895D02*
X113124319Y-80652479D01*
X124488060Y-93179196D02*
X124097480Y-92387387D01*
X78151488Y-89467610D02*
X77577045Y-90155980D01*
X124830882Y-93991294D02*
X124488060Y-93179196D01*
X87584675Y-112921856D02*
X88317378Y-113593776D01*
X76091931Y-110456180D02*
X76126859Y-110507138D01*
X84441790Y-110213409D02*
X84646576Y-110290152D01*
X125710238Y-97398027D02*
X125565623Y-96527049D01*
X112887574Y-80612439D02*
X112935456Y-80615871D01*
X125395429Y-103427350D02*
X125420502Y-103237382D01*
X124112952Y-110622611D02*
X124140864Y-110585482D01*
X113996705Y-111450563D02*
X113996705Y-111450563D01*
X91606143Y-83787844D02*
X91458140Y-83766763D01*
X122925435Y-111003294D02*
X122879130Y-110995718D01*
X123303510Y-111015961D02*
X123351610Y-111014849D01*
X112132500Y-80904161D02*
X109823815Y-83212861D01*
X114143465Y-111282436D02*
X113996705Y-111450563D01*
X113030599Y-80629599D02*
X113077681Y-80639895D01*
X91028604Y-83638145D02*
X91458140Y-83766763D01*
X124214592Y-110466205D02*
X124235635Y-110423962D01*
X87431773Y-80612439D02*
X87383802Y-80611295D01*
X84232822Y-110147888D02*
X84441790Y-110213409D01*
X113996705Y-111450563D02*
X113996705Y-111450563D01*
X123492979Y-110998400D02*
X123538929Y-110988691D01*
X124254814Y-110380549D02*
X124272068Y-110336009D01*
X125341047Y-103806691D02*
X125368950Y-103617122D01*
X108765265Y-83766763D02*
X108617262Y-83787844D01*
X78770104Y-88810670D02*
X78770104Y-88810670D01*
X123628715Y-110963197D02*
X123672433Y-110947499D01*
X90892396Y-83573869D02*
X90634300Y-83413913D01*
X76125924Y-92387387D02*
X76563546Y-91618097D01*
X114298485Y-111123609D02*
X114143465Y-111282436D01*
X77390297Y-110986367D02*
X83141099Y-109996064D01*
X77080460Y-111015176D02*
X77142458Y-111015740D01*
X74378688Y-99165206D02*
X74419896Y-98278155D01*
X108167795Y-83784082D02*
X108018300Y-83760103D01*
X112983161Y-80621591D02*
X113030599Y-80629599D01*
X107870042Y-83724569D02*
X107723665Y-83677361D01*
X90634300Y-83413913D02*
X90513700Y-83318466D01*
X90455793Y-83266926D02*
X88090905Y-80904161D01*
X107651382Y-83649343D02*
X107579812Y-83618364D01*
X109517524Y-115343092D02*
X110343385Y-114805355D01*
X91028604Y-83638145D02*
X90892396Y-83573869D01*
X116419248Y-110051361D02*
X116203274Y-110093800D01*
X116203274Y-110093800D02*
X115990577Y-110147888D01*
X115576825Y-110290152D02*
X115376675Y-110377902D01*
X109823815Y-83212861D02*
X109823815Y-83212861D01*
X74657780Y-96527049D02*
X74853023Y-95667448D01*
X90705881Y-115343092D02*
X91558718Y-115834178D01*
X117082299Y-109996064D02*
X116859213Y-110002280D01*
X76659196Y-110925166D02*
X76717191Y-110947090D01*
X104067241Y-117556207D02*
X105024369Y-117312793D01*
X123715290Y-110929890D02*
X123757225Y-110910416D01*
X109709705Y-83318466D02*
X109589105Y-83413913D01*
X112418527Y-80703959D02*
X112374556Y-80725696D01*
X125565623Y-96527049D02*
X125370380Y-95667448D01*
X92643601Y-83618364D02*
X92070000Y-83784082D01*
X113215906Y-80684511D02*
X113260677Y-80703959D01*
X124140864Y-110585482D02*
X124167148Y-110547009D01*
X122971970Y-111009095D02*
X123018681Y-111013116D01*
X123798181Y-110889119D02*
X123838097Y-110866043D01*
X91558718Y-115834178D02*
X92436491Y-116277653D01*
X98112606Y-117884818D02*
X99107842Y-117968093D01*
X74455327Y-100951163D02*
X74390259Y-100056951D01*
X123112413Y-111015814D02*
X123065513Y-111015357D01*
X107579804Y-83618364D02*
X106682429Y-83238131D01*
X108664687Y-115834178D02*
X109517524Y-115343092D01*
X113996705Y-111450563D02*
X113996705Y-111450563D01*
X107786914Y-116277653D02*
X108664687Y-115834178D01*
X105964716Y-117017922D02*
X106886245Y-116672554D01*
X90455793Y-83266926D02*
X90513700Y-83318466D01*
X76546448Y-110872453D02*
X76602242Y-110900279D01*
X75098176Y-94821454D02*
X74853023Y-95667448D01*
X123175912Y-90873552D02*
X122646359Y-90155980D01*
X76059607Y-110403531D02*
X76091931Y-110456180D01*
X113389836Y-80776032D02*
X113430874Y-80804632D01*
X124300570Y-110243726D02*
X124311699Y-110196069D01*
X89083172Y-114221929D02*
X89880020Y-114805355D01*
X87668519Y-80652479D02*
X87621880Y-80639895D01*
X87240244Y-80621591D02*
X87192806Y-80629599D01*
X123838097Y-110866043D02*
X123876916Y-110841232D01*
X77018681Y-111011494D02*
X77080460Y-111015176D01*
X86962728Y-80703959D02*
X86918757Y-80725696D01*
M02*
