M48
; DRILL file {KiCad (6.0.1)} date Tue Jan 25 15:54:27 2022
; FORMAT={-:-/ absolute / metric / decimal}
; #@! TF.CreationDate,2022-01-25T15:54:27+01:00
; #@! TF.GenerationSoftware,Kicad,Pcbnew,(6.0.1)
; #@! TF.FileFunction,Plated,1,2,PTH
FMAT,2
METRIC
; #@! TA.AperFunction,Plated,PTH,ViaDrill
T1C0.400
; #@! TA.AperFunction,Plated,PTH,ComponentDrill
T2C0.700
; #@! TA.AperFunction,Plated,PTH,ComponentDrill
T3C0.750
; #@! TA.AperFunction,Plated,PTH,ComponentDrill
T4C1.020
%
G90
G05
T1
X75.95Y-103.325
X77.35Y-94.45
X81.8Y-108.7
X81.925Y-97.975
X85.45Y-91.95
X86.1Y-103.95
X87.55Y-108.7
X87.7Y-98.0
X90.8Y-84.6
X93.0Y-86.4
X94.45Y-112.9
X95.2Y-83.7
X95.9Y-116.45
X96.5Y-88.375
X98.0Y-89.2
X99.5Y-90.4
X100.2Y-85.2
X100.35Y-94.025
X100.8Y-112.8
X101.75Y-91.05
X102.1Y-83.7
X102.859Y-89.638
X104.0Y-106.36
X104.4Y-116.45
X104.625Y-99.225
X105.275Y-89.1
X106.3Y-107.85
X106.675Y-88.4
X108.1Y-112.5
X108.55Y-85.5
X109.35Y-90.425
X110.4Y-105.4
X110.675Y-93.95
X113.9Y-108.1
X114.475Y-88.825
X114.475Y-101.025
X119.45Y-105.8
X119.45Y-109.2
X121.575Y-91.175
X124.2Y-103.0
T2
X112.656Y-82.531
X118.044Y-87.919
T3
X77.19Y-106.03
X77.537Y-108.0
X81.2Y-90.925
X81.2Y-92.925
X81.2Y-94.925
X82.887Y-87.173
X84.302Y-85.758
X85.716Y-84.344
X87.13Y-82.93
X103.37Y-107.63
X103.37Y-109.63
X103.37Y-111.63
X103.37Y-113.63
X109.71Y-108.68
X111.71Y-108.68
X118.5Y-90.925
X118.5Y-92.925
X118.5Y-94.925
X122.45Y-108.0
X122.797Y-106.03
T4
X87.85Y-100.96
X87.85Y-103.96
X90.85Y-100.96
X90.85Y-103.96
X93.85Y-100.96
X93.85Y-103.96
X96.26Y-110.73
X96.85Y-100.96
X96.85Y-103.96
X99.205Y-111.302
X99.85Y-100.96
X99.85Y-103.96
X102.85Y-100.96
X102.85Y-103.96
X105.85Y-100.96
X105.85Y-103.96
X108.85Y-100.96
X108.85Y-103.96
X111.85Y-100.96
X111.85Y-103.96
T0
M30
